<?xml version="1.0" encoding="UTF-8"?>
<svg width="320px" height="190px" viewBox="0 0 320 190" version="1.1" xmlns="http://www.w3.org/2000/svg" xmlns:xlink="http://www.w3.org/1999/xlink">
    <!-- Generator: Sketch 48.2 (47327) - http://www.bohemiancoding.com/sketch -->
    <title>co.lateral screens@1x</title>
    <desc>Created with Sketch.</desc>
    <defs>
        <rect id="path-1" x="0" y="0" width="240" height="170" rx="3"></rect>
        <filter x="-6.2%" y="-8.8%" width="112.5%" height="117.6%" filterUnits="objectBoundingBox" id="filter-2">
            <feOffset dx="0" dy="0" in="SourceAlpha" result="shadowOffsetOuter1"></feOffset>
            <feGaussianBlur stdDeviation="5" in="shadowOffsetOuter1" result="shadowBlurOuter1"></feGaussianBlur>
            <feColorMatrix values="0 0 0 0 0   0 0 0 0 0   0 0 0 0 0  0 0 0 0.1 0" type="matrix" in="shadowBlurOuter1"></feColorMatrix>
        </filter>
        <rect id="path-3" x="520" y="0" width="240" height="170" rx="3"></rect>
        <filter x="-6.2%" y="-8.8%" width="112.5%" height="117.6%" filterUnits="objectBoundingBox" id="filter-4">
            <feOffset dx="0" dy="0" in="SourceAlpha" result="shadowOffsetOuter1"></feOffset>
            <feGaussianBlur stdDeviation="5" in="shadowOffsetOuter1" result="shadowBlurOuter1"></feGaussianBlur>
            <feColorMatrix values="0 0 0 0 0   0 0 0 0 0   0 0 0 0 0  0 0 0 0.1 0" type="matrix" in="shadowBlurOuter1"></feColorMatrix>
        </filter>
        <rect id="path-5" x="260" y="0" width="240" height="170" rx="3"></rect>
        <filter x="-6.2%" y="-8.8%" width="112.5%" height="117.6%" filterUnits="objectBoundingBox" id="filter-7">
            <feOffset dx="0" dy="0" in="SourceAlpha" result="shadowOffsetOuter1"></feOffset>
            <feGaussianBlur stdDeviation="5" in="shadowOffsetOuter1" result="shadowBlurOuter1"></feGaussianBlur>
            <feColorMatrix values="0 0 0 0 0   0 0 0 0 0   0 0 0 0 0  0 0 0 0.1 0" type="matrix" in="shadowBlurOuter1"></feColorMatrix>
        </filter>
        <polygon id="path-8" points="129.531988 0.00680627805 129.531988 167.002217 0.0386501058 167.002217 0.0386501058 0.00680627805 129.531988 0.00680627805"></polygon>
        <rect id="path-10" x="0" y="0.4" width="2.4" height="2.4" rx="0.6"></rect>
        <rect id="path-11" x="0" y="4.8" width="71" height="6" rx="1"></rect>
        <rect id="path-12" x="0" y="4.8" width="71" height="6" rx="1"></rect>
        <polygon id="path-13" points="0 5.97799167 38.3809488 5.97799167 38.3809488 0.111019444 0 0.111019444"></polygon>
    </defs>
    <g id="iPhone-SE-//-HOME" stroke="none" stroke-width="1" fill="none" fill-rule="evenodd" transform="translate(0.000000, -3731.000000)">
        <g id="COLATERAL-//-SWOOP" transform="translate(-219.000000, 3360.000000)">
            <g id="co.lateral-screens" transform="translate(0.000000, 381.000000)">
                <g id="Rectangle-6-Copy">
                    <use fill="black" fill-opacity="1" filter="url(#filter-2)" xlink:href="#path-1"></use>
                    <use fill="#FFFFFF" fill-rule="evenodd" xlink:href="#path-1"></use>
                </g>
                <g id="Rectangle-6-Copy-2">
                    <use fill="black" fill-opacity="1" filter="url(#filter-4)" xlink:href="#path-3"></use>
                    <use fill="#FFFFFF" fill-rule="evenodd" xlink:href="#path-3"></use>
                </g>
                <mask id="mask-6" fill="white">
                    <use xlink:href="#path-5"></use>
                </mask>
                <g id="Rectangle-6">
                    <use fill="black" fill-opacity="1" filter="url(#filter-7)" xlink:href="#path-5"></use>
                    <use fill="#FFFFFF" fill-rule="evenodd" xlink:href="#path-5"></use>
                </g>
                <g id="login-screen" mask="url(#mask-6)">
                    <g transform="translate(66.000000, -42.000000)">
                        <rect id="White-Background" fill="#FFFFFF" fill-rule="evenodd" x="192.8" y="42" width="240.2" height="170"></rect>
                        <g id="co.lateral-background-icon" opacity="0.1" stroke-width="1" fill="none" fill-rule="evenodd" transform="translate(0.600000, 0.400000)">
                            <g id="Group-15" transform="translate(129.543741, 80.540984)">
                                <mask id="mask-9" fill="white">
                                    <use xlink:href="#path-8"></use>
                                </mask>
                                <g id="Clip-14"></g>
                                <path d="M128.625271,33.6892746 C119.773977,24.4319937 109.789287,16.0113766 98.6577066,8.64333662 C93.9487108,5.51259437 89.1182795,2.62475454 84.2203841,0.00680627805 C82.6282308,58.2494078 52.0399969,113.793094 0.0386501058,145.491859 C16.2165471,155.39688 34.1754969,162.73793 53.3892794,167.002217 C54.0774135,166.691842 54.7790404,166.394961 55.4671744,166.057597 C107.077229,141.591926 135.047855,87.4246869 128.625271,33.6892746" id="Fill-13" fill="#2BBEC7" mask="url(#mask-9)"></path>
                            </g>
                            <path d="M52.5221699,25.4480764 C48.8656143,37.7146485 46.5178628,50.5884765 45.6003507,63.9076256 C45.195566,69.9936806 45.1011162,76.0122627 45.3170014,81.9903611 C96.333372,53.678735 159.857591,51.695032 213.761426,80.5464411 C214.260661,62.2073087 211.899417,43.5712956 206.407837,25.3266252 C223.098461,37.5931972 237.063535,54.0700778 246.562483,74.0960325 C252.742197,87.118301 256.547174,100.653363 258.166313,114.228909 C253.835116,77.8340308 234.149085,43.4903281 201.199606,21.6291107 C143.760651,-16.493074 67.0269565,-2.7960767 26.1302045,51.5870753 C33.6457079,41.6415708 42.5374795,32.8431056 52.5221699,25.4480764 L201.199606,57.1237509" id="Fill-36" fill="#B2B3B4"></path>
                            <path d="M206.411885,25.3293242 C211.903464,43.5604999 214.264709,62.1830185 213.765474,80.5491401 C218.66337,83.1670883 223.493801,86.027939 228.202797,89.1586812 C239.307392,96.5537104 249.319068,104.974327 258.170361,114.231608 C256.551222,100.656062 252.746245,87.1209999 246.566531,74.0852369 C237.05409,54.0727767 223.089016,37.5958962 206.411885,25.3293242" id="Fill-42" fill="#404041"></path>
                        </g>
                        <text id="Forgotten-your-passw" fill="none" font-family="Gotham-Light, Gotham" font-size="2.4" font-weight="300">
                            <tspan x="291.0604" y="170.6" fill="#404041">Forgotten your password?</tspan>
                            <tspan x="322.2532" y="170.6" font-family="Gotham-Medium, Gotham" font-weight="400" fill="#404041"> Click here</tspan>
                        </text>
                        <g id="Login-button" stroke-width="1" fill="none" fill-rule="evenodd" transform="translate(291.000000, 157.000000)">
                            <rect id="Background" fill="#3AD1FF" x="0" y="0" width="44" height="10.2" rx="5"></rect>
                            <text id="Log-in" font-family="Gotham-Medium, Gotham" font-size="3.6" font-weight="400" fill="#FFFFFF">
                                <tspan x="16.3426" y="6.2">Log in</tspan>
                            </text>
                        </g>
                        <g id="Remember-Me" stroke-width="1" fill="none" fill-rule="evenodd" transform="translate(278.200000, 143.400000)">
                            <g id="Rectangle-Copy">
                                <use fill="#FFFFFF" fill-rule="evenodd" xlink:href="#path-10"></use>
                                <rect stroke="#979797" stroke-width="0.5" x="0.25" y="0.65" width="1.9" height="1.9" rx="0.6"></rect>
                            </g>
                            <text font-family="Gotham-Book, Gotham" font-size="2.8" font-weight="300" fill="#9B9B9B">
                                <tspan x="4.2" y="3">Remember Me</tspan>
                            </text>
                        </g>
                        <g id="Password" stroke-width="1" fill="none" fill-rule="evenodd" transform="translate(278.000000, 129.000000)">
                            <g id="Text-Field">
                                <use fill="#FFFFFF" fill-rule="evenodd" xlink:href="#path-11"></use>
                                <rect stroke="#979797" stroke-width="0.5" x="0.25" y="5.05" width="70.5" height="5.5" rx="1"></rect>
                            </g>
                            <text id="Show" font-family="Gotham-Book, Gotham" font-size="2.8" font-weight="300" fill="#9B9B9B">
                                <tspan x="74.4" y="9.4">Show</tspan>
                            </text>
                            <g id="Password-Dots" transform="translate(2.200000, 7.200000)" fill="#404041">
                                <circle id="Oval-6" cx="0.6" cy="0.6" r="1"></circle>
                                <circle id="Oval-6-Copy-5" cx="10.6" cy="0.6" r="1"></circle>
                                <circle id="Oval-6-Copy-2" cx="4.6" cy="0.6" r="1"></circle>
                                <circle id="Oval-6-Copy-6" cx="14.6" cy="0.6" r="1"></circle>
                                <circle id="Oval-6-Copy-4" cx="8.6" cy="0.6" r="1"></circle>
                                <circle id="Oval-6-Copy-7" cx="18.6" cy="0.6" r="1"></circle>
                                <circle id="Oval-6-Copy" cx="2.6" cy="0.6" r="1"></circle>
                                <circle id="Oval-6-Copy-8" cx="12.6" cy="0.6" r="1"></circle>
                                <circle id="Oval-6-Copy-3" cx="6.6" cy="0.6" r="1"></circle>
                                <circle id="Oval-6-Copy-9" cx="16.6" cy="0.6" r="1"></circle>
                            </g>
                            <text font-family="Gotham-Book, Gotham" font-size="2.8" font-weight="300" fill="#9B9B9B">
                                <tspan x="2" y="3">Password</tspan>
                            </text>
                        </g>
                        <g id="Username" stroke-width="1" fill="none" fill-rule="evenodd" transform="translate(277.600000, 114.200000)">
                            <g id="Text-Field">
                                <use fill="#FFFFFF" fill-rule="evenodd" xlink:href="#path-12"></use>
                                <rect stroke="#979797" stroke-width="0.5" x="0.25" y="5.05" width="70.5" height="5.5" rx="1"></rect>
                            </g>
                            <text id="phil.norcross@email." font-family="Gotham-Book, Gotham" font-size="3.2" font-weight="300" fill="#4A4A4A">
                                <tspan x="2" y="8.8">phil.norcross@email.com</tspan>
                            </text>
                            <text font-family="Gotham-Book, Gotham" font-size="2.8" font-weight="300" fill="#9B9B9B">
                                <tspan x="2" y="3">Username</tspan>
                            </text>
                        </g>
                        <g id="co.lateral-logo" stroke-width="1" fill="none" fill-rule="evenodd" transform="translate(293.800000, 97.600000)">
                            <path d="M9.35813953,5.97484444 C8.27817674,5.97484444 7.46314419,5.06765 7.46314419,3.99117778 C7.46314419,2.90706667 8.27817674,1.99284444 9.35813953,1.99284444 C10.0588651,1.99284444 10.4949581,2.29534444 10.8384744,2.67117778 L10.4735256,3.06931667 C10.180614,2.75245556 9.85138605,2.49426111 9.35099535,2.49426111 C8.60026047,2.49426111 8.02813023,3.15059444 8.02813023,3.97651111 C8.02813023,4.80976111 8.61425116,5.46609444 9.38671628,5.46609444 C9.85882791,5.46609444 10.2234791,5.22256667 10.5166884,4.89837222 L10.8670512,5.23753889 C10.4949581,5.66501111 10.0517209,5.97484444 9.35813953,5.97484444 Z" id="Fill-1" fill="#404041"></path>
                            <path d="M13.3633786,2.49438333 C12.5626344,2.49438333 12.0119367,3.15041111 12.0119367,3.97663333 C12.0119367,4.80255 12.5980577,5.46621667 13.377667,5.46621667 C14.1784112,5.46621667 14.736253,4.80957778 14.736253,3.99099444 C14.736253,3.15805 14.1426902,2.49438333 13.3633786,2.49438333 M13.3633786,5.97496667 C12.2548391,5.97496667 11.4469507,5.07510556 11.4469507,3.99099444 C11.4469507,2.90718889 12.2619833,1.99266111 13.377667,1.99266111 C14.4859088,1.99266111 15.3015367,2.89252222 15.3015367,3.97663333 C15.3015367,5.06043889 14.4787647,5.97496667 13.3633786,5.97496667" id="Fill-3" fill="#404041"></path>
                            <mask id="mask-14" fill="white">
                                <use xlink:href="#path-13"></use>
                            </mask>
                            <g id="Clip-6"></g>
                            <polygon id="Fill-5" fill="#F05A2C" mask="url(#mask-14)" points="16.0812651 5.886325 16.7391256 5.886325 16.7391256 5.11235278 16.0812651 5.11235278"></polygon>
                            <polygon id="Fill-7" fill="#404041" mask="url(#mask-14)" points="17.9479814 5.886325 18.4986791 5.886325 18.4986791 0.503352778 17.9479814 0.503352778"></polygon>
                            <path d="M20.0575702,4.75085 C20.0575702,5.2376 20.4865191,5.51779444 20.9875051,5.51779444 C21.6665005,5.51779444 22.2243423,5.09001667 22.2243423,4.48532222 L22.2243423,4.11682222 C21.9525656,4.03554444 21.5882121,3.95457222 21.137533,3.95457222 C20.4439516,3.95457222 20.0575702,4.2641 20.0575702,4.75085 M19.9932726,2.80385 L19.8286586,2.33940556 C20.2364726,2.14751667 20.6368447,2.02223889 21.173254,2.02223889 C22.1817749,2.02223889 22.7464633,2.55329444 22.7464633,3.55612778 L22.7464633,5.88629444 L22.2174958,5.88629444 L22.2174958,5.31123889 C21.9600074,5.65773889 21.5307609,5.96726667 20.8800447,5.96726667 C20.1936074,5.96726667 19.500026,5.56943333 19.500026,4.77285 C19.500026,3.9616 20.1433005,3.53412778 21.0803795,3.53412778 C21.5521935,3.53412778 21.8882679,3.60043333 22.2174958,3.69637778 L22.2174958,3.56346111 C22.2174958,2.87779444 21.8096819,2.52396111 21.1161005,2.52396111 C20.6800074,2.52396111 20.3364912,2.64190556 19.9932726,2.80385" id="Fill-8" fill="#404041" mask="url(#mask-14)"></path>
                            <path d="M24.63488,4.80245833 C24.63488,5.26690278 24.8852242,5.43648611 25.2570195,5.43648611 C25.443066,5.43648611 25.6002381,5.39951389 25.7934288,5.303875 L25.7934288,5.79031944 C25.6002381,5.89359722 25.3927591,5.952875 25.1281265,5.952875 C24.5345637,5.952875 24.0838847,5.650375 24.0838847,4.87609722 L24.0838847,2.57526389 L23.5692056,2.57526389 L23.5692056,2.07384722 L24.0838847,2.07384722 L24.0838847,0.923736111 L24.63488,0.923736111 L24.63488,2.07384722 L25.8074195,2.07384722 L25.8074195,2.57526389 L24.63488,2.57526389 L24.63488,4.80245833 Z" id="Fill-9" fill="#404041" mask="url(#mask-14)"></path>
                            <path d="M29.3907051,3.77001667 C29.3335516,3.07671111 28.9471702,2.47201667 28.2107237,2.47201667 C27.5671516,2.47201667 27.0807516,3.02507222 27.0093098,3.77001667 L29.3907051,3.77001667 Z M28.3107423,5.48082222 C28.8185749,5.48082222 29.1757842,5.26662778 29.4764353,4.94243333 L29.819654,5.2596 C29.4478586,5.68707222 28.9974772,5.97490556 28.296454,5.97490556 C27.2810865,5.97490556 26.4514679,5.17098889 26.4514679,3.9836 C26.4514679,2.87779444 27.2022028,1.99290556 28.2250121,1.99290556 C29.3189656,1.99290556 29.9482493,2.89246111 29.9482493,4.01354444 C29.9482493,4.06487778 29.9482493,4.12385 29.9414028,4.19015556 L27.0093098,4.19015556 C27.0878958,5.01607222 27.660026,5.48082222 28.3107423,5.48082222 L28.3107423,5.48082222 Z" id="Fill-10" fill="#404041" mask="url(#mask-14)"></path>
                            <path d="M31.4648112,5.88623333 L30.9141135,5.88623333 L30.9141135,2.07381667 L31.4648112,2.07381667 L31.4648112,3.06931667 C31.7365879,2.43528889 32.2729972,1.97817778 32.9737228,2.00781667 L32.9737228,2.61984444 L32.9308577,2.61984444 C32.1226716,2.61984444 31.4648112,3.2169 31.4648112,4.36731667 L31.4648112,5.88623333 Z" id="Fill-11" fill="#404041" mask="url(#mask-14)"></path>
                            <path d="M33.9180353,4.75085 C33.9180353,5.2376 34.3469842,5.51779444 34.8479702,5.51779444 C35.5269656,5.51779444 36.0848074,5.09001667 36.0848074,4.48532222 L36.0848074,4.11682222 C35.8130307,4.03554444 35.4486772,3.95457222 34.9979981,3.95457222 C34.3044167,3.95457222 33.9180353,4.2641 33.9180353,4.75085 M33.8537377,2.80385 L33.6891237,2.33940556 C34.0969377,2.14751667 34.4973098,2.02223889 35.0337191,2.02223889 C36.04224,2.02223889 36.6069284,2.55329444 36.6069284,3.55612778 L36.6069284,5.88629444 L36.0779609,5.88629444 L36.0779609,5.31123889 C35.8204726,5.65773889 35.391226,5.96726667 34.7405098,5.96726667 C34.0540726,5.96726667 33.3604912,5.56943333 33.3604912,4.77285 C33.3604912,3.9616 34.0037656,3.53412778 34.9408447,3.53412778 C35.4126586,3.53412778 35.748733,3.60043333 36.0779609,3.69637778 L36.0779609,3.56346111 C36.0779609,2.87779444 35.670147,2.52396111 34.9765656,2.52396111 C34.5404726,2.52396111 34.1969563,2.64190556 33.8537377,2.80385" id="Fill-12" fill="#404041" mask="url(#mask-14)"></path>
                            <polygon id="Fill-13" fill="#404041" mask="url(#mask-14)" points="37.8302512 5.886325 38.3809488 5.886325 38.3809488 0.503352778 37.8302512 0.503352778"></polygon>
                            <path d="M5.03450791,2.13049722 C4.93061953,2.05960833 4.82405209,1.99421944 4.71599628,1.93494167 C4.6808707,3.25371944 4.00604279,4.51138611 2.85880558,5.22913611 C3.21571721,5.45341389 3.61192186,5.61963611 4.03581023,5.71619167 C4.05099163,5.70916389 4.0664707,5.70244167 4.08165209,5.69480278 C5.22025674,5.14083056 5.83733581,3.91433056 5.69564279,2.69760833 C5.50036837,2.48799722 5.2800893,2.29733056 5.03450791,2.13049722 Z" id="Fill-18" fill="#2BBEC7" mask="url(#mask-14)"></path>
                            <path d="M1.15872744,0.687327778 C1.07805767,0.965077778 1.02626233,1.25657778 1.00602047,1.55816111 C0.997090233,1.69596667 0.995006512,1.83224444 0.999769302,1.96760556 C2.12527628,1.32655 3.52672744,1.28163333 4.71593674,1.93491111 C4.7269507,1.51966111 4.67485767,1.09768889 4.55370419,0.684577778 C4.92192744,0.962327778 5.23002047,1.33541111 5.43958326,1.78885556 C5.57591814,2.08371667 5.65986233,2.39018889 5.69558326,2.69757778 L5.69558326,2.69788333 C5.60002977,1.87349444 5.16572279,1.09585556 4.43880186,0.600855556 C3.17160186,-0.262338889 1.47872744,0.0478 0.576476279,1.27918889 C0.74228093,1.05399444 0.938448372,0.854772222 1.15872744,0.687327778" id="Fill-28" fill="#B2B3B4" mask="url(#mask-14)"></path>
                            <path d="M4.55379349,0.684638889 C4.67494698,1.09744444 4.72704,1.51911111 4.71602605,1.93497222 C4.82408186,1.99425 4.9306493,2.05902778 5.03453767,2.12991667 C5.27952372,2.29736111 5.50039814,2.48802778 5.69567256,2.69763889 C5.65995163,2.39025 5.57600744,2.08377778 5.43967256,1.78861111 C5.22981209,1.33547222 4.92171907,0.962388889 4.55379349,0.684638889" id="Fill-31" fill="#404041" mask="url(#mask-14)"></path>
                            <path d="M2.4973693,5.42970278 C2.62239256,5.36889722 2.74265302,5.301675 2.85844837,5.22925833 C1.77104372,4.54756389 1.04501581,3.33573056 0.999769302,1.96714722 C0.636606512,2.17431389 0.30231814,2.44320278 0.0129786047,2.77045278 C0.0105972093,2.79611944 0.00851348837,2.82178611 0.00672744186,2.84745278 C-0.0900167442,4.31778611 0.887248372,5.60845278 2.25089488,5.91064722 C2.05562047,5.86664722 1.86451349,5.802175 1.68263442,5.71784167 C1.95798326,5.65398056 2.23124837,5.55895278 2.4973693,5.42970278" id="Fill-42" fill="#F05A2C" mask="url(#mask-14)"></path>
                            <path d="M2.4973693,5.42970278 C2.23124837,5.55895278 1.95798326,5.65398056 1.68263442,5.71784167 C1.86451349,5.802175 2.05562047,5.86664722 2.25089488,5.91064722 C2.25893209,5.91248056 2.2669693,5.91400833 2.27470884,5.91584167 C2.28869953,5.91889722 2.30239256,5.92134167 2.31578791,5.92378611 C2.33245767,5.92745278 2.34882977,5.93081389 2.36549953,5.93325833 C2.36996465,5.93448056 2.37502512,5.93539722 2.37978791,5.93631389 C2.47355535,5.95250833 2.56851349,5.96381389 2.66525767,5.97084167 C2.90726698,5.98795278 3.14451349,5.972675 3.37253209,5.92989722 C3.37550884,5.92928611 3.37818791,5.92898056 3.38116465,5.92836944 C3.40408558,5.92378611 3.42700651,5.91920278 3.44992744,5.91400833 C3.4561786,5.91278611 3.46242977,5.91156389 3.46868093,5.91034167 C3.48594605,5.906675 3.50380651,5.90209167 3.52077395,5.89750833 C3.53208558,5.89475833 3.54309953,5.89261944 3.55381581,5.88986944 L3.56244837,5.88711944 C3.72229953,5.84525833 3.88036465,5.78873056 4.0357507,5.71600833 C3.61156465,5.61975833 3.21565767,5.45323056 2.85844837,5.22925833 C2.74265302,5.301675 2.62239256,5.36889722 2.4973693,5.42970278" id="Fill-48" fill="#404041" mask="url(#mask-14)"></path>
                            <path d="M0.999709767,1.96711667 C0.994946977,1.83236667 0.997030698,1.69578333 1.00596093,1.55797778 C1.02590512,1.2567 1.07829581,0.965505556 1.15866791,0.68745 C0.938686512,0.854588889 0.742221395,1.05411667 0.576416744,1.27900556 C0.572844651,1.28389444 0.569570233,1.28817222 0.566295814,1.29275556 C0.559746977,1.30161667 0.553793488,1.31078333 0.547244651,1.31964444 C0.523430698,1.35325556 0.499914419,1.38747778 0.477588837,1.42231111 C0.34304,1.63008889 0.237365581,1.84947778 0.160863256,2.07528333 C0.159970233,2.07772778 0.159077209,2.08047778 0.157886512,2.08353333 C0.149849302,2.10675556 0.142109767,2.13089444 0.134965581,2.15503333 C0.13288186,2.16053333 0.131095814,2.16695 0.129309767,2.17306111 C0.123058605,2.19353333 0.117105116,2.21400556 0.111449302,2.23447778 C0.109067907,2.24272778 0.106388837,2.25158889 0.104305116,2.26045 C0.0995423256,2.27817222 0.0947795349,2.29558889 0.0903144186,2.31331111 C0.0876353488,2.32461667 0.0852539535,2.33531111 0.0822772093,2.34600556 C0.0787051163,2.36158889 0.0754306977,2.37656111 0.0718586047,2.39214444 C0.0688818605,2.40528333 0.0659051163,2.41842222 0.0632260465,2.43156111 C0.0608446512,2.44378333 0.0584632558,2.45600556 0.0560818605,2.46822778 C0.0531051163,2.48381111 0.0498306977,2.50031111 0.0468539535,2.51650556 C0.0456632558,2.52292222 0.0447702326,2.52995 0.0435795349,2.53636667 C0.0319702326,2.60511667 0.0227423256,2.67417222 0.0155981395,2.74445 C0.0150027907,2.75117222 0.013812093,2.7582 0.0135144186,2.76522778 C0.0135144186,2.76675556 0.0132167442,2.76858889 0.0132167442,2.77042222 C0.30196093,2.44286667 0.636844651,2.17428333 0.999709767,1.96711667" id="Fill-49" fill="#404041" mask="url(#mask-14)"></path>
                        </g>
                    </g>
                </g>
            </g>
        </g>
    </g>
</svg>