<?xml version="1.0" encoding="UTF-8"?>
<svg width="222px" height="54px" viewBox="0 0 222 54" version="1.1" xmlns="http://www.w3.org/2000/svg" xmlns:xlink="http://www.w3.org/1999/xlink">
    <!-- Generator: Sketch 48.2 (47327) - http://www.bohemiancoding.com/sketch -->
    <title>mothercare-logo</title>
    <desc>Created with Sketch.</desc>
    <defs>
        <filter x="-7.5%" y="-10.0%" width="115.0%" height="120.0%" filterUnits="objectBoundingBox" id="filter-1">
            <feOffset dx="0" dy="0" in="SourceAlpha" result="shadowOffsetOuter1"></feOffset>
            <feGaussianBlur stdDeviation="6" in="shadowOffsetOuter1" result="shadowBlurOuter1"></feGaussianBlur>
            <feColorMatrix values="0 0 0 0 0   0 0 0 0 0   0 0 0 0 0  0 0 0 0.15 0" type="matrix" in="shadowBlurOuter1" result="shadowMatrixOuter1"></feColorMatrix>
            <feMerge>
                <feMergeNode in="shadowMatrixOuter1"></feMergeNode>
                <feMergeNode in="SourceGraphic"></feMergeNode>
            </feMerge>
        </filter>
    </defs>
    <g id="iPhone-SE-//-HOME" stroke="none" stroke-width="1" fill="none" fill-rule="evenodd" transform="translate(-49.000000, -4904.000000)">
        <g id="CLIENTS-//-SWOOP" transform="translate(0.000000, 4440.000000)" fill="#00457C">
            <g id="Mothercare" filter="url(#filter-1)" transform="translate(40.000000, 401.000000)">
                <path d="M64.0008411,104.916929 C57.9582156,104.916929 53.5485831,100.272641 53.5485831,94.2595577 C53.5485831,88.2459214 57.9190459,83.5640418 64.0008411,83.5640418 C70.111324,83.5640418 74.4464789,88.2072236 74.4464789,94.2595577 C74.4464789,97.3045209 73.3828267,99.8928501 71.4453027,101.87086 C69.4675056,103.851081 66.886163,104.916929 64.0008411,104.916929 Z M58.2224736,94.2595577 C58.2224736,98.1796437 60.7304418,100.806118 64.0008411,100.806118 C67.2657236,100.806118 69.7317635,98.2564865 69.7317635,94.2595577 C69.7317635,90.300774 67.2657236,87.6748526 64.0008411,87.6748526 C60.7304418,87.6748526 58.2224736,90.3394717 58.2224736,94.2595577 Z M77.9535518,99.3593735 L77.9535518,87.7129975 L75.5614379,87.7129975 L75.5614379,83.715516 L77.9535518,83.715516 L77.9535518,79.1099263 L82.2081604,79.1099263 L82.2081604,83.715516 L85.2832626,83.715516 L85.2832626,87.7129975 L82.2081604,87.7129975 L82.2081604,98.9403317 C82.2081604,99.8541523 82.4371104,100.044877 83.0814806,100.044877 L86.691719,100.044877 L86.691719,104.422703 L82.9661781,104.422703 C79.4712422,104.422703 77.9535518,102.93726 77.9535518,99.3593735 Z M101.73677,92.8515111 C101.73677,88.9684644 100.638913,87.4841278 98.0912233,87.4841278 C95.1656282,87.4841278 93.7229672,89.1586364 93.7229672,93.0035381 L93.7229672,104.422703 L89.1632758,104.422703 L89.1632758,75.0002211 L93.7229672,75.0002211 L93.7229672,85.2004054 C95.125355,83.9825307 96.7638648,83.3738698 98.6616674,83.3738698 C103.335558,83.3738698 106.295358,86.7986241 106.295358,92.5469042 L106.295358,104.422703 L101.73677,104.422703 L101.73677,92.8515111 Z M120.472053,100.767973 C122.754933,100.767973 124.801139,99.8154545 126.853966,97.4189558 L130.159673,100.120614 C127.233527,103.547027 124.198146,104.916929 120.397024,104.916929 C114.285989,104.916929 109.652923,100.53855 109.652923,94.372887 C109.652923,87.9042752 113.941737,83.5640418 120.093044,83.5640418 C126.359103,83.5640418 130.728462,88.1696314 130.728462,95.0970885 L130.728462,95.9340663 L114.206546,95.9340663 C114.666101,98.8275553 117.097937,100.767973 120.472053,100.767973 Z M114.245716,92.0902703 L125.714733,92.0902703 C125.106222,89.4250983 122.904992,87.6748526 120.058288,87.6748526 C117.171863,87.6748526 114.815057,89.501941 114.245716,92.0902703 Z M137.995833,93.079828 L137.995833,104.422703 L133.740121,104.422703 L133.740121,84.057715 L137.839705,84.057715 L137.839705,85.5437101 C138.944182,84.3241769 140.34657,83.715516 142.059557,83.715516 C142.438566,83.715516 142.853986,83.715516 143.69255,83.9067936 L143.69255,88.4736855 C142.473874,88.2072236 141.979011,88.1314865 141.599451,88.1314865 C139.248162,88.1314865 137.995833,89.6152703 137.995833,93.079828 Z M144.583525,94.2595577 C144.583525,88.1314865 148.837581,83.5640418 154.954685,83.5640418 C157.764977,83.5640418 160.082062,84.4010197 162.358321,86.5321622 L159.473551,89.92043 C157.990065,88.2459214 156.702428,87.6748526 154.954685,87.6748526 C151.648977,87.6748526 149.21659,90.3394717 149.21659,94.2595577 C149.21659,98.2183415 151.648977,100.767973 154.954685,100.767973 C156.817179,100.767973 158.219567,100.120614 159.58775,98.3322236 L162.549205,101.756978 C160.041237,104.079398 157.805802,104.916929 154.954685,104.916929 C148.877855,104.916929 144.583525,100.388182 144.583525,94.2595577 Z M179.790521,102.214165 C178.157528,103.889779 175.995467,104.688059 173.374403,104.688059 C167.481285,104.688059 163.077721,100.044877 163.077721,94.182715 C163.077721,87.9413145 167.181719,83.6779238 173.374403,83.6779238 C176.030775,83.6779238 178.312552,84.5906388 180.059744,86.304398 L180.059744,84.057715 L184.314353,84.057715 L184.314353,104.422703 L179.790521,104.422703 L179.790521,102.214165 Z M167.710787,94.22086 C167.710787,98.064656 170.292129,100.654644 173.867611,100.654644 C177.398407,100.654644 179.979749,98.0281695 179.979749,94.22086 C179.979749,90.4163145 177.398407,87.7887346 173.867611,87.7887346 C170.292129,87.7887346 167.710787,90.4163145 167.710787,94.22086 Z M192.317121,93.079828 L192.317121,104.422703 L188.056996,104.422703 L188.056996,84.057715 L192.160994,84.057715 L192.160994,85.5437101 C193.264919,84.3241769 194.66841,83.715516 196.375329,83.715516 C196.75489,83.715516 197.174172,83.715516 198.007219,83.9067936 L198.007219,88.4736855 C196.795715,88.2072236 196.300852,88.1314865 195.921291,88.1314865 C193.565037,88.1314865 192.317121,89.6152703 192.317121,93.079828 Z M209.109916,100.767973 C211.386175,100.767973 213.43845,99.8154545 215.490725,97.4189558 L218.795881,100.120614 C215.870286,103.547027 212.828836,104.916929 209.034334,104.916929 C202.917783,104.916929 198.284717,100.53855 198.284717,94.372887 C198.284717,87.9042752 202.57353,83.5640418 208.729803,83.5640418 C214.995862,83.5640418 219.365773,88.1696314 219.365773,95.0970885 L219.365773,95.9340663 L202.842754,95.9340663 C203.297343,98.8275553 205.728627,100.767973 209.109916,100.767973 Z M202.87751,92.0902703 L214.351492,92.0902703 C213.74243,89.4250983 211.541199,87.6748526 208.690082,87.6748526 C205.803657,87.6748526 203.446299,89.501941 202.87751,92.0902703 Z M45.7273194,93.0411302 C45.7273194,89.2354791 44.473887,87.7500369 42.1573541,87.7500369 C39.2709288,87.7500369 37.8646792,89.349914 37.8646792,93.1931572 L37.8646792,104.422703 L33.4594601,104.422703 L33.4594601,93.0411302 C33.4594601,89.2736241 32.1674096,87.7500369 29.8503251,87.7500369 C26.9638998,87.7500369 25.5570984,89.349914 25.5570984,93.1931572 L25.5570984,104.422703 L21.0001655,104.422703 L21.0001655,84.057715 L25.5195837,84.057715 L25.5195837,85.5050123 C26.9638998,84.2865848 28.5588263,83.6779238 30.4582839,83.6779238 C32.7753685,83.6779238 34.5986933,84.5906388 36.0799724,86.49457 C37.8646792,84.6287838 39.9914318,83.6779238 42.5755327,83.6779238 C47.2097018,83.6779238 50.2483927,87.0667445 50.2483927,92.6989312 L50.2483927,104.422703 L45.7273194,104.422703 L45.7273194,93.0411302 Z" id="mothercare-logo"></path>
            </g>
        </g>
    </g>
</svg>