<?xml version="1.0" encoding="UTF-8"?>
<svg width="199px" height="57px" viewBox="0 0 199 57" version="1.1" xmlns="http://www.w3.org/2000/svg" xmlns:xlink="http://www.w3.org/1999/xlink">
    <!-- Generator: Sketch 48.2 (47327) - http://www.bohemiancoding.com/sketch -->
    <title>Paddypower</title>
    <desc>Created with Sketch.</desc>
    <defs>
        <filter x="-10.2%" y="-54.5%" width="120.5%" height="209.1%" filterUnits="objectBoundingBox" id="filter-1">
            <feOffset dx="0" dy="0" in="SourceAlpha" result="shadowOffsetOuter1"></feOffset>
            <feGaussianBlur stdDeviation="6" in="shadowOffsetOuter1" result="shadowBlurOuter1"></feGaussianBlur>
            <feColorMatrix values="0 0 0 0 0   0 0 0 0 0   0 0 0 0 0  0 0 0 0.15 0" type="matrix" in="shadowBlurOuter1" result="shadowMatrixOuter1"></feColorMatrix>
            <feMerge>
                <feMergeNode in="shadowMatrixOuter1"></feMergeNode>
                <feMergeNode in="SourceGraphic"></feMergeNode>
            </feMerge>
        </filter>
    </defs>
    <g id="Page-1" stroke="none" stroke-width="1" fill="none" fill-rule="evenodd">
        <g id="Paddypower" filter="url(#filter-1)" transform="translate(12.000000, 12.000000)">
            <path d="M173.61204,13.3481258 C172.255345,13.3858887 171.473878,14.241167 171.499021,15.660167 C171.524164,17.0764454 172.329754,17.8582392 173.732658,17.8276206 C175.194002,17.7956412 176.050558,16.8855897 175.97411,15.4461773 C175.903438,14.1129093 174.998635,13.3093423 173.61204,13.3481258" id="Fill-1" fill="#5FBB35"></path>
            <path d="M127.672336,11.1122777 C126.786549,13.2875938 126.01871,15.1726245 125.251879,17.0579869 C124.512267,18.8769984 123.773999,20.6960098 123.035059,22.5150213 C122.870066,22.5219882 122.704737,22.5292868 122.539744,22.5365854 C120.077283,16.5510656 117.615158,10.5662094 115.170507,4.62282246 C115.31769,4.47021526 115.378176,4.34779775 115.452104,4.33917212 C119.566511,3.85547365 119.563822,3.85746418 121.07833,7.68491909 C121.644884,9.11776799 122.228912,10.5443135 122.968524,12.3789175 C124.379533,9.12705712 125.639999,6.22188051 127.080579,2.90068339 C129.084353,5.91168979 130.807874,8.50136761 132.785773,11.4738904 C133.304947,8.94193795 133.910817,6.88174076 134.102357,4.78405529 C134.27407,2.90201041 135.214295,2.36158188 136.884723,2.4186437 C137.429771,2.43755372 137.975827,2.42162949 138.691244,2.42162949 C137.341057,8.83444941 136.016073,15.1308234 134.690753,21.4268656 C134.519375,21.485918 134.347662,21.5446386 134.176284,21.6036909 C132.060611,18.190266 129.944601,14.7771728 127.672336,11.1122777" id="Fill-4" fill="#004833"></path>
            <path d="M100.194925,14.3354034 C100.160265,17.6532938 102.362795,20.0778017 105.43314,20.1025519 C108.45183,20.1266241 110.63903,17.9130019 110.704016,14.7676853 C110.772001,11.4772575 108.536145,8.91543662 105.557114,8.87000465 C102.517429,8.82355554 100.228584,11.1568604 100.194925,14.3354034 M105.290837,24.1463367 C99.8919893,24.140912 95.7342098,19.9835473 95.705216,14.5615462 C95.6758889,9.05817439 100.04329,4.82520269 105.74574,4.82927122 C111.207908,4.83333976 115.194724,8.92391274 115.170396,14.4984839 C115.145735,20.0564418 110.952296,24.1514224 105.290837,24.1463367" id="Fill-6" fill="#004833"></path>
            <path d="M34.9074796,25.317033 C35.7514283,25.2147351 36.3663149,25.1954085 36.9538356,25.060122 C39.6718368,24.4353383 41.3232464,21.7102817 40.8066741,18.7526389 C40.285372,15.768672 38.1650269,14.0679274 35.2659382,14.4457966 C34.8040976,14.5057758 34.0375165,15.1605492 34.0584632,15.5017644 C34.2530647,18.694659 34.5892252,21.8792232 34.9074796,25.317033 M30.8671345,29.7804878 C30.2826544,23.2934003 29.7471625,17.3481252 29.1981567,11.2565674 C32.5104356,10.6834324 35.698048,10.0649799 38.9532304,10.797393 C42.7192416,11.6444331 45.1007445,14.5574246 45.3845383,18.5680362 C45.7173203,23.270075 43.6577882,27.0274409 39.4951414,28.3223259 C36.8203849,29.1543712 33.9229855,29.2906574 30.8671345,29.7804878" id="Fill-8" fill="#004833"></path>
            <path d="M51.766668,13.8615235 C52.0970325,17.4540217 52.4138714,20.9015102 52.7354442,24.398449 C55.1815619,24.5845559 56.858407,23.6931138 57.9942253,21.8256964 C59.1232807,19.9699733 58.9515047,17.0413789 57.5969087,15.3737674 C56.1215961,13.5574709 54.1755901,13.2430605 51.766668,13.8615235 M48.6801098,28.9756098 C48.1100027,22.5373799 47.5821634,16.5752763 47.0414747,10.4701678 C50.3728475,9.83533271 53.6305055,9.24927971 56.9189344,10.0394823 C60.8437461,10.9823794 63.0961086,13.9935024 63.2540208,18.2398807 C63.421401,22.759238 61.153484,26.483381 57.0345789,27.6621694 C54.4335923,28.4069312 51.6513616,28.5322276 48.6801098,28.9756098" id="Fill-10" fill="#004833"></path>
            <path d="M158.513278,8.41951287 C158.671097,8.58237578 158.829253,8.74523869 158.987072,8.9081016 C159.757579,8.33058772 160.830206,7.89828495 161.207687,7.13259613 C161.539545,6.45949605 161.388147,5.17657595 160.909284,4.59806291 C160.413524,3.99923364 159.26655,3.92429672 158.054691,3.49732279 C158.241235,5.50130261 158.377425,6.96040774 158.513278,8.41951287 M153.591496,0.582776114 C156.108485,0.473534735 158.392633,0.273369891 160.673739,0.305009924 C162.802095,0.334318587 164.52019,1.28751623 165.264676,3.35977191 C166.060528,5.57623953 165.973002,7.73408982 164.198132,9.55222607 C163.928117,9.82866005 163.552664,10.0048451 163.116381,10.3015953 C165.217026,12.8920814 167.134845,15.2570907 169.270636,17.8908737 C167.626212,18.0330873 166.26228,18.2469073 164.90443,18.2162664 C164.427594,18.2049426 163.858501,17.6750553 163.514476,17.2410873 C162.067072,15.41629 160.68827,13.5382042 159.284123,11.6797685 C159.137794,11.7154052 158.99079,11.7507088 158.844123,11.7863455 C159.011066,14.039782 159.178009,16.2928854 159.361174,18.7641386 C157.980344,18.8660528 156.681634,18.9619721 155.228823,19.0692151 C154.680344,12.8744296 154.149438,6.88280639 153.591496,0.582776114" id="Fill-12" fill="#004833"></path>
            <path d="M18.4939815,25.2920585 C19.5789383,25.1873782 20.4369891,25.1046636 21.5039797,25.0016994 C20.8495455,23.6161445 20.3301902,22.5164868 19.6022278,20.975799 C19.1620567,22.6898098 18.8612898,23.8615425 18.4939815,25.2920585 M12.1658986,32.195122 C14.4519269,25.3157403 16.6421356,18.7246583 18.832677,12.1339196 C19.0076808,12.11367 19.18335,12.0934204 19.3586864,12.0731707 C22.5899347,18.1854691 25.8211829,24.2981107 29.1981567,30.6860099 C27.627448,30.8243252 26.324901,31.0566811 25.0366603,30.9904408 C24.56954,30.9660726 23.9457148,30.3125931 23.7291227,29.796056 C23.3019272,28.7787697 22.7127035,28.415306 21.6796489,28.6167726 C21.0298726,28.7434186 20.3561414,28.8312814 19.6983801,28.8027946 C18.1379853,28.734495 17.0616788,29.1772411 16.8058273,30.9983347 C16.7545905,31.3638576 16.0895096,31.8234212 15.647675,31.9078518 C14.6272634,32.1031406 13.5702539,32.0949035 12.1658986,32.195122" id="Fill-15" fill="#004833"></path>
            <path d="M85.7438295,10.4674508 C85.9112354,12.2726188 86.0702709,13.9846278 86.2279114,15.6829872 C88.713539,15.6222462 89.9038642,14.4732858 89.6527555,12.5527781 C89.4211774,10.7807105 88.0829771,10.010187 85.7438295,10.4674508 M87.043666,25.4141735 C85.5778188,25.5322431 84.3187875,25.6339331 82.8069037,25.7560976 C82.2380726,19.5001156 81.6807508,13.3686867 81.1059908,7.04684511 C84.2825162,6.48618519 87.3645271,5.9767115 90.3903874,7.1468289 C92.7773153,8.06954615 93.9585727,9.96377819 94.0729666,12.4626903 C94.1922433,15.0629512 93.2505856,17.1861564 90.8204111,18.3982465 C89.5997436,19.0070215 88.2144604,19.2991243 86.6286391,19.82566 C86.7534959,21.5086635 86.8902107,23.3459082 87.043666,25.4141735" id="Fill-17" fill="#004833"></path>
            <path d="M4.6109662,17.6831096 C4.78463003,19.4564578 4.95620572,21.2090233 5.13300177,23.0157601 C6.72068596,22.9925925 7.97252726,22.5200403 8.31045829,21.2015278 C8.53006125,20.3443244 8.28818477,19.1678842 7.8117403,18.3958559 C7.17172469,17.3591031 5.96373438,17.2040842 4.6109662,17.6831096 M1.66390138,33 C1.09453458,26.5985708 0.553357707,20.5126306 0,14.2866624 C2.89764545,13.751762 5.62580335,13.3538233 8.37275453,14.0720208 C11.1217939,14.7908997 12.7620296,16.8385121 12.9593591,19.6247641 C13.1511201,22.3377653 11.7663338,24.759808 9.26995967,25.8268833 C8.11556501,26.3205589 6.8637237,26.5955045 5.50712726,27.0159294 C5.5575907,27.8346337 5.60526995,28.7221595 5.66861027,29.6093446 C5.73299465,30.512202 5.81234406,31.4147187 5.90561442,32.5724204 C4.53440098,32.7107449 3.19416165,32.8456625 1.66390138,33" id="Fill-19" fill="#004833"></path>
            <path d="M145.713779,4.96427202 C145.849828,6.21759603 145.967385,7.30007289 146.103104,8.54705687 C147.680881,8.43860897 149.1411,8.33783585 150.799119,8.2233816 C150.912053,9.37059351 151.017723,10.4457293 151.143205,11.7187408 C149.544625,11.9146143 148.050393,12.0974742 146.379496,12.3020236 C146.491109,13.5359938 146.594137,14.6751973 146.714336,16.004268 C148.535152,15.8958201 150.264168,15.7927112 152.20089,15.6769222 C152.29236,16.8448226 152.379867,17.9623365 152.479263,19.2346806 C149.195255,19.5336631 146.090226,19.8159613 142.726306,20.1219512 C142.194327,13.9988161 141.668621,7.95309607 141.124424,1.69381712 C144.36121,1.39717041 147.459966,1.11287008 150.817941,0.804878049 C150.920639,1.97544797 151.019043,3.09696607 151.132308,4.38833026 C149.319417,4.58120068 147.648189,4.75872155 145.713779,4.96427202" id="Fill-21" fill="#004833"></path>
            <path d="M74.8400462,26.236302 C73.3653874,26.3464233 72.026467,26.4461684 70.4885547,26.5609756 C70.323754,24.7297497 70.304607,23.0019508 69.9750056,21.3333964 C69.7042127,19.9637426 69.2901594,18.5251374 68.5434275,17.3606639 C66.7042923,14.491152 64.6371031,11.761551 62.4516129,8.67982987 C64.1372303,8.53958428 65.5633379,8.35448687 66.9904712,8.34745786 C67.364521,8.34544957 67.8339637,8.83346406 68.1003118,9.20566716 C69.2392148,10.7955635 70.3182835,12.4266298 71.6175423,14.3331665 C72.357778,12.7569935 73.0986974,11.4659977 73.5780556,10.087976 C74.2427291,8.17775734 75.332397,7.08457809 77.5274606,7.35703612 C78.0700722,7.42431383 78.6376432,7.29946513 79.483871,7.24390244 C78.2929976,9.77635627 77.3643695,12.2281438 76.0374159,14.4519904 C74.3887247,17.2153976 74.0775864,20.0457478 74.6301134,23.0993529 C74.8058552,24.0706959 74.7692708,25.0791922 74.8400462,26.236302" id="Fill-23" fill="#004833"></path>
        </g>
    </g>
</svg>