<?xml version="1.0" encoding="UTF-8"?>
<svg width="139px" height="58px" viewBox="0 0 139 58" version="1.1" xmlns="http://www.w3.org/2000/svg" xmlns:xlink="http://www.w3.org/1999/xlink">
    <!-- Generator: Sketch 48.2 (47327) - http://www.bohemiancoding.com/sketch -->
    <title>tesco-logo</title>
    <desc>Created with Sketch.</desc>
    <defs>
        <filter x="-15.4%" y="-52.9%" width="130.8%" height="205.9%" filterUnits="objectBoundingBox" id="filter-1">
            <feOffset dx="0" dy="0" in="SourceAlpha" result="shadowOffsetOuter1"></feOffset>
            <feGaussianBlur stdDeviation="6" in="shadowOffsetOuter1" result="shadowBlurOuter1"></feGaussianBlur>
            <feColorMatrix values="0 0 0 0 0   0 0 0 0 0   0 0 0 0 0  0 0 0 0.15 0" type="matrix" in="shadowBlurOuter1" result="shadowMatrixOuter1"></feColorMatrix>
            <feMerge>
                <feMergeNode in="shadowMatrixOuter1"></feMergeNode>
                <feMergeNode in="SourceGraphic"></feMergeNode>
            </feMerge>
        </filter>
    </defs>
    <g id="Page-1" stroke="none" stroke-width="1" fill="none" fill-rule="evenodd">
        <g id="tesco-logo" filter="url(#filter-1)" transform="translate(11.000000, 12.000000)">
            <path d="M8.93397221,27.5247211 L23.1118409,27.5247211 C23.2774934,27.5247211 23.2774934,27.6070429 23.1118409,27.6893647 C21.5368166,28.4309194 19.2150308,30.738564 19.2150308,30.738564 C17.6400065,32.3046539 16.3962873,33.2931741 13.6597076,33.2931741 L0.062285351,33.2931741 C-0.0205409136,33.2931741 -0.0205409136,33.1285305 0.062285351,33.1285305 C1.55448333,32.3046539 3.79344292,29.9970093 3.79344292,29.9970093 C4.70519444,28.9255088 6.61218636,27.5247211 8.93397221,27.5247211" id="Fill-1" fill="#00539F"></path>
            <path d="M102.128429,27.5247211 L116.389786,27.5247211 C116.472612,27.5247211 116.472612,27.6070429 116.389786,27.6893647 C114.731936,28.4309194 112.492976,30.738564 112.492976,30.738564 C110.835126,32.3046539 109.591406,33.2931741 106.937653,33.2931741 L93.3395681,33.2931741 C93.2567418,33.2931741 93.2567418,33.1285305 93.3395681,33.1285305 C94.8317661,32.3046539 97.0707256,29.9970093 97.0707256,29.9970093 C97.9831398,28.9255088 99.8073054,27.5247211 102.128429,27.5247211" id="Fill-4" fill="#00539F"></path>
            <path d="M32.2324041,27.5247211 L46.4109354,27.5247211 C46.5765879,27.5247211 46.5765879,27.6070429 46.4109354,27.6893647 C44.8359111,28.4309194 42.5141253,30.738564 42.5141253,30.738564 C40.9384384,32.3046539 39.6947192,33.2931741 36.9588021,33.2931741 L23.4435435,33.2931741 C23.277891,33.2931741 23.277891,33.1285305 23.3607172,33.1285305 C24.8535778,32.3046539 27.0918748,29.9970093 27.0918748,29.9970093 C28.0042889,28.9255088 29.9112809,27.5247211 32.2324041,27.5247211" id="Fill-7" fill="#00539F"></path>
            <path d="M55.5311673,27.5247211 L69.7096986,27.5247211 C69.8753511,27.5247211 69.8753511,27.6070429 69.7096986,27.6893647 C68.1340117,28.4309194 65.8122259,30.738564 65.8122259,30.738564 C64.2372016,32.3046539 62.9934824,33.2931741 60.3403915,33.2931741 L46.7423067,33.2931741 C46.6594804,33.2931741 46.6594804,33.1285305 46.6594804,33.1285305 C48.2351673,32.3046539 50.390638,29.9970093 50.390638,29.9970093 C51.3030521,28.9255088 53.2100441,27.5247211 55.5311673,27.5247211" id="Fill-10" fill="#00539F"></path>
            <path d="M78.8302618,27.5247211 L93.0909568,27.5247211 C93.173783,27.5247211 93.173783,27.6070429 93.0081305,27.6893647 C91.4331062,28.4309194 89.1113204,30.738564 89.1113204,30.738564 C87.5362961,32.3046539 86.292577,33.2931741 83.6388234,33.2931741 L70.0407386,33.2931741 C69.9579123,33.2931741 69.9579123,33.1285305 70.0407386,33.1285305 C71.5335992,32.3046539 73.7718962,29.9970093 73.7718962,29.9970093 C74.601484,28.9255088 76.508476,27.5247211 78.8302618,27.5247211" id="Fill-13" fill="#00539F"></path>
            <path d="M82.7270056,0.000263429752 C73.7718299,0.000263429752 67.803038,4.61489411 67.803038,11.6201498 C67.803038,18.0471772 73.2748723,22.3325207 81.4004602,22.3325207 C84.0535511,22.3325207 86.375337,22.0032335 89.1112541,21.2610201 L89.1112541,15.9048347 C87.2042622,18.0471772 84.8824764,18.8710537 82.395038,18.8710537 C77.5864764,18.8710537 74.2694501,15.7395325 74.2694501,11.1255604 C74.2694501,6.59259298 77.6693026,3.2964282 82.4778642,3.2964282 C85.0487915,3.2964282 87.1214359,4.28560692 88.7799491,6.01568182 L88.7799491,0.576516012 C87.0386097,0.247228822 84.8824764,0.000263429752 82.7270056,0.000263429752" id="Fill-16" fill="#EF1C2F"></path>
            <path d="M15.8985346,3.7909517 C19.2148983,3.7909517 23.1951972,4.45018466 24.8537104,5.85097237 L24.8537104,0.741752324 L1.30587202,0.741752324 L1.30587202,5.85097237 C2.96372253,4.45018466 6.52922757,3.8732735 10.3432114,3.8732735 L10.3432114,17.8824677 C10.3432114,19.9424884 10.1775589,20.5193995 9.34863362,21.5909001 L16.893775,21.5909001 C16.0641872,20.5193995 15.8985346,19.9424884 15.8985346,17.8824677 L15.8985346,3.7909517 Z" id="Fill-18" fill="#EF1C2F"></path>
            <path d="M39.9433306,8.81771823 C38.6167851,9.31230759 36.1293467,9.39462939 34.8856275,9.39462939 L32.8958094,9.39462939 L32.8958094,3.87314179 L35.5489003,3.87314179 C37.9535124,3.87314179 42.015975,4.36773115 43.5916619,5.76851885 L43.5916619,0.74162061 L26.4287346,0.74162061 C27.2576599,1.73014075 27.4233124,2.39003228 27.4233124,4.36773115 L27.4233124,17.8829946 C27.4233124,19.9430152 27.2576599,20.5199264 26.5115609,21.5914269 L44.7525548,21.5914269 L44.7525548,16.4822069 C42.2651164,18.3775839 37.4558922,18.3775839 35.5489003,18.3775839 L32.8958094,18.3775839 L32.8958094,12.5261506 L34.8028013,12.5261506 C36.1293467,12.5261506 38.5339588,12.6907942 39.9433306,13.1853835 L39.9433306,8.81771823 Z" id="Fill-20" fill="#EF1C2F"></path>
            <path d="M65.3982271,1.40105114 C62.6616473,0.494194215 59.0968049,0.000263429752 56.3602251,0.000263429752 C51.3860109,0.000263429752 46.5767867,1.56569473 46.5767867,6.84021694 C46.5767867,15.9048347 61.5007544,11.1255604 61.5007544,16.7287113 C61.5007544,18.5417665 58.8476635,19.2833213 56.6921928,19.2833213 C52.8775463,19.2833213 50.225118,18.6240883 46.9080918,16.4817459 L46.9080918,21.0963765 C49.3955301,21.9209117 52.79472,22.4148425 56.4430513,22.4148425 C61.5835806,22.4148425 66.3928049,20.931733 66.3928049,15.5748889 C66.3928049,6.01568182 51.5516635,10.3010253 51.5516635,5.68639463 C51.5516635,3.79101756 53.955613,3.13178461 56.02892,3.13178461 C59.5109362,3.13178461 63.32492,4.20262655 65.3982271,6.26330579 L65.3982271,1.40105114 Z" id="Fill-22" fill="#EF1C2F"></path>
            <path d="M103.123603,18.9542317 C98.8119988,18.9542317 96.0760816,15.4927647 96.0760816,11.2074212 C96.0760816,6.92207774 98.8119988,3.46126937 103.123603,3.46126937 C107.352381,3.46126937 110.171124,6.92207774 110.171124,11.2074212 C110.171124,15.4927647 107.352381,18.9542317 103.123603,18.9542317 M103.704049,0.329748192 C95.6612877,0.329748192 89.9403119,4.94503745 89.9403119,11.4543866 C89.9403119,17.8827311 95.0808412,22.0857528 102.625983,22.0857528 C110.75157,22.0857528 116.38972,17.6357658 116.38972,11.0427776 C116.38972,4.61509168 111.249191,0.329748192 103.704049,0.329748192" id="Fill-24" fill="#EF1C2F"></path>
        </g>
    </g>
</svg>