<?xml version="1.0" encoding="UTF-8"?>
<svg width="264px" height="204px" viewBox="0 0 264 204" version="1.1" xmlns="http://www.w3.org/2000/svg" xmlns:xlink="http://www.w3.org/1999/xlink">
    <!-- Generator: Sketch 49 (51002) - http://www.bohemiancoding.com/sketch -->
    <title>colart-logo-bg</title>
    <desc>Created with Sketch.</desc>
    <defs>
        <filter x="-7.5%" y="-10.0%" width="115.0%" height="120.0%" filterUnits="objectBoundingBox" id="filter-1">
            <feOffset dx="0" dy="0" in="SourceAlpha" result="shadowOffsetOuter1"></feOffset>
            <feGaussianBlur stdDeviation="6" in="shadowOffsetOuter1" result="shadowBlurOuter1"></feGaussianBlur>
            <feColorMatrix values="0 0 0 0 0   0 0 0 0 0   0 0 0 0 0  0 0 0 0.15 0" type="matrix" in="shadowBlurOuter1" result="shadowMatrixOuter1"></feColorMatrix>
            <feMerge>
                <feMergeNode in="shadowMatrixOuter1"></feMergeNode>
                <feMergeNode in="SourceGraphic"></feMergeNode>
            </feMerge>
        </filter>
        <polygon id="path-2" points="0.0141262136 0.00936802974 97 0.00936802974 97 126 0.0141262136 126"></polygon>
    </defs>
    <g id="Page-1" stroke="none" stroke-width="1" fill="none" fill-rule="evenodd">
        <g id="colart-logo-bg" filter="url(#filter-1)" transform="translate(12.000000, 12.000000)">
            <rect id="Path" fill="#F9F9F9" x="0" y="0" width="240" height="180" rx="3"></rect>
            <g id="colart_black.eps" transform="translate(72.000000, 27.000000)">
                <g id="Group-3">
                    <mask id="mask-3" fill="white">
                        <use xlink:href="#path-2"></use>
                    </mask>
                    <g id="Clip-2"></g>
                    <polygon id="Fill-1" fill="#1B1A18" mask="url(#mask-3)" points="0.0141262136 126 97 126 97 0.00936802974 0.0141262136 0.00936802974"></polygon>
                </g>
                <path d="M16.6720683,60.5259085 C18.6295054,60.5259085 20.4283263,61.5935701 21.1692375,63.4951407 L24,63.4951407 C23.1002386,60.0832758 20.0051156,58 16.5663241,58 C12.2542072,58 9,61.30754 9,65.4998849 C9,69.4324536 11.9896127,73 16.6985043,73 C20.2961461,73 23.1269086,70.6827415 24,67.6094146 L21.1692375,67.6094146 C20.5874105,69.0158445 19.0791522,70.4480678 16.6720683,70.4740915 C13.9206139,70.4740915 11.7514544,68.4168394 11.7514544,65.4998849 C11.7514544,64.0676616 12.3068453,62.7397633 13.1535006,61.9063148 C14.1590062,60.9685413 15.216916,60.4998849 16.6720683,60.5259085" id="Fill-4" fill="#FFFFFE"></path>
                <path d="M33.5002287,58 C28.7671302,58 26,61.7042078 26,65.4868506 L26,65.5129187 C26,69.3213989 28.7671302,73 33.5002287,73 C38.2328698,73 41,69.3213989 41,65.5129187 C41,61.7042078 38.2328698,58 33.5002287,58 M33.5002287,70.4695488 C30.8106303,70.4695488 28.6898271,68.3561871 28.6898271,65.5389868 L28.6898271,65.5129187 C28.6898271,62.6694196 30.8106303,60.5565193 33.5002287,60.5565193 C36.1898271,60.5565193 38.3106303,62.6694196 38.3106303,65.5129187 C38.3106303,68.3561871 36.1898271,70.4695488 33.5002287,70.4695488" id="Fill-5" fill="#FFFFFE"></path>
                <polygon id="Fill-6" fill="#FFFFFE" points="45 73 48 73 48 54 45 54"></polygon>
                <path d="M62.333414,60.9166795 C61.6921635,59.562548 59.923056,58 57.153752,58 C53.1026273,58 50,61.1766819 50,65.5 C50,69.4585316 52.666586,73 57.153752,73 C59.3589007,73 61.3588402,72.0099641 62.333414,70.1093438 L62.333414,72.583167 L65,72.583167 L65,58.416833 L62.333414,58.416833 L62.333414,60.9166795 Z M61.8717499,67.6615439 C61.1794806,69.2761384 59.6666012,70.4739 57.5385476,70.4739 C54.1538427,70.4739 52.6922089,67.6615439 52.666586,65.5520466 L52.666586,65.5260233 C52.666586,62.8700372 54.5642611,60.5261 57.4870752,60.5261 C59.7178468,60.5261 61.2817451,61.8021617 61.9488451,63.4427795 C62.2565455,64.0935917 62.3846596,64.822704 62.35881,65.5520466 C62.333414,66.2809285 62.1794504,67.0102711 61.8717499,67.6615439 Z" id="Fill-7" fill="#FFFFFE"></path>
                <path d="M71.6380055,60.5714962 L71.6380055,58.4287406 L69,58.4287406 L69,73 L71.7999048,73 L71.7999048,65.1249112 C71.7999048,62.2322148 73.1731914,60.7856297 75.811435,60.7856297 L76,60.7856297 L76,58 C74.0072106,58.0270036 72.472739,58.8572444 71.6380055,60.5714962" id="Fill-8" fill="#FFFFFE"></path>
                <polyline id="Fill-9" fill="#FFFFFE" points="83.2638917 59.0321231 83.2638917 54 80.5535935 54 80.5535935 59.0321231 78 59.0321231 78 61.1117737 80.5535935 61.1117737 80.5535935 73 83.2638917 73 83.2638917 61.1117737 86 61.1117737 86 59.0321231 83.2638917 59.0321231"></polyline>
            </g>
        </g>
    </g>
</svg>