<?xml version="1.0" encoding="UTF-8"?>
<svg width="727px" height="480px" viewBox="0 0 727 480" version="1.1" xmlns="http://www.w3.org/2000/svg" xmlns:xlink="http://www.w3.org/1999/xlink">
    <!-- Generator: Sketch 48.2 (47327) - http://www.bohemiancoding.com/sketch -->
    <title>OUTLINE // LAPTOP</title>
    <desc>Created with Sketch.</desc>
    <defs>
        <polygon id="path-1" points="0 478.935698 869 478.935698 869 0 0 0"></polygon>
        <polygon id="path-3" points="120 415.077605 746 415.077605 746 50.886918 120 50.886918"></polygon>
    </defs>
    <g id="Wireframes-//-HOMEPAGE" stroke="none" stroke-width="1" fill="none" fill-rule="evenodd" transform="translate(-713.000000, -2778.000000)">
        <g id="PRODUCT" transform="translate(0.000000, 2500.000000)">
            <g id="OUTLINE-//-LAPTOP" transform="translate(713.000000, 278.381375)">
                <path d="M124.272894,0.997782705 C107.390535,0.997782705 93,14.8478348 93,32.0021887 L93,440.022173 L776,440.022173 L776,32.0021887 C776,14.8465841 761.660753,0.997782705 744.727106,0.997782705 L124.272894,0.997782705 Z" id="Fill-1" fill="#FFFFFF"></path>
                <path d="M744.727106,0.997782705 L124.272894,0.997782705 C107.390535,0.997782705 93,14.8478348 93,32.0021887 L93,440.022173 L776,440.022173 L776,32.0021887 C776,14.8465841 761.660753,0.997782705 744.727106,0.997782705 Z" id="Stroke-3" stroke="#8492A5" stroke-width="2"></path>
                <path d="M436.5,18.9578714 C439.537375,18.9578714 442,21.415036 442,24.4456763 C442,27.4763165 439.537375,29.9334812 436.5,29.9334812 C433.462625,29.9334812 431,27.4763165 431,24.4456763 C431,21.415036 433.462625,18.9578714 436.5,18.9578714 Z" id="Stroke-5" stroke="#8492A5" stroke-width="2"></path>
                <path d="M65.2486682,477.937916 C26.8570574,477.937916 1,464.741701 1,459.131176 L1,442.071215 C1,440.38467 2.67110676,439.02439 4.75184763,439.02439 L864.241889,439.02439 C866.323882,439.02439 868,440.38467 868,442.071215 L868,459.801276 C867.989978,464.237243 847.968015,477.937916 803.747574,477.937916 L65.2486682,477.937916 Z" id="Fill-7" fill="#FFFFFF"></path>
                <path d="M803.747574,477.937916 L65.2486682,477.937916 C26.8570574,477.937916 1,464.741701 1,459.131176 L1,442.071215 C1,440.38467 2.67110676,439.02439 4.75184763,439.02439 L864.241889,439.02439 C866.323882,439.02439 868,440.38467 868,442.071215 L868,459.801276 C867.989978,464.237243 847.968015,477.937916 803.747574,477.937916 Z" id="Stroke-9" stroke="#8492A5" stroke-width="2"></path>
                <path d="M2,456.984479 L865,456.984479" id="Stroke-11" stroke="#8492A5" stroke-linecap="square"></path>
                <mask id="mask-2" fill="white">
                    <use xlink:href="#path-1"></use>
                </mask>
                <g id="Clip-14"></g>
                <polygon id="Fill-13" fill="#000000" mask="url(#mask-2)" points="120 415.077605 746 415.077605 746 50.886918 120 50.886918"></polygon>
                <mask id="mask-4" fill="white">
                    <use xlink:href="#path-3"></use>
                </mask>
                <use id="Stroke-15" stroke="#8492A5" xlink:href="#path-3"></use>
                <g id="Group-18" mask="url(#mask-4)">
                    <g transform="translate(341.000000, 439.024390)">
                        <path d="M188.247886,0.136659874 L188.247886,3.80508624 C188.247886,6.4206374 182.810032,7.21088798 178.693678,7.21088798 L9.80771485,7.21088798 C5.47675849,7.21088798 0,6.42182575 0,3.80508624 L0,0.136659874" id="Fill-16" stroke="none" fill="#FFFFFF" fill-rule="evenodd"></path>
                        <path d="M188.247886,0.136659874 L188.247886,3.80508624 C188.247886,6.4206374 182.810032,7.21088798 178.693678,7.21088798 L9.80771485,7.21088798 C5.47675849,7.21088798 0,6.42182575 0,3.80508624 L0,0.136659874" id="Stroke-17" stroke="#8492A5" stroke-width="1" fill="none"></path>
                    </g>
                </g>
            </g>
        </g>
    </g>
</svg>