<?xml version="1.0" encoding="UTF-8"?>
<svg width="210px" height="32px" viewBox="0 0 210 32" version="1.1" xmlns="http://www.w3.org/2000/svg" xmlns:xlink="http://www.w3.org/1999/xlink">
    <!-- Generator: Sketch 48.2 (47327) - http://www.bohemiancoding.com/sketch -->
    <title>LOGO // COLATERAL@2x</title>
    <desc>Created with Sketch.</desc>
    <defs></defs>
    <g id="iPhone-SE-//-HOME" stroke="none" stroke-width="1" fill="none" fill-rule="evenodd" transform="translate(-40.000000, -3420.000000)">
        <g id="COLATERAL-//-SWOOP" transform="translate(-220.000000, 3360.000000)">
            <g id="LOGO-//-COLATERAL" transform="translate(260.000000, 60.000000)">
                <g id="Icon">
                    <path d="M51.3111162,31.0382038 C45.408481,31.0382038 40.9509905,26.2510455 40.9509905,20.5706282 C40.9509905,14.8499015 45.408481,10.0256584 51.3111162,10.0256584 C55.1420518,10.0256584 57.5278426,11.6219153 59.4042524,13.6051436 L57.4106687,15.707688 C55.8076646,14.0340368 54.0093707,12.6715751 51.2736856,12.6715751 C47.1660895,12.6715751 44.0381973,16.1349689 44.0381973,20.4932339 C44.0381973,24.8901961 47.2442054,28.3535899 51.4673481,28.3535899 C54.0484287,28.3535899 56.040385,27.0685225 57.6466439,25.3561742 L59.5588569,27.1475291 C57.5278426,29.4048621 55.1029938,31.0382038 51.3111162,31.0382038 Z" id="Fill-1" fill="#4A4A4A"></path>
                    <path d="M73.2081516,12.6722201 C68.8287771,12.6722201 65.8180588,16.1340015 65.8180588,20.4938789 C65.8180588,24.8537563 69.0256943,28.3542348 73.2846401,28.3542348 C77.6640147,28.3542348 80.7137909,24.8892287 80.7137909,20.5696608 C80.7137909,16.174311 77.4687248,12.6722201 73.2081516,12.6722201 M73.2081516,31.0388487 C67.1460297,31.0388487 62.730852,26.2903875 62.730852,20.5696608 C62.730852,14.8505464 67.1883425,10.024691 73.2846401,10.024691 C79.3451346,10.024691 83.8026251,14.7731521 83.8026251,20.4938789 C83.8026251,26.2129933 79.3077041,31.0388487 73.2081516,31.0388487" id="Fill-3" fill="#4A4A4A"></path>
                    <polygon id="Fill-5" fill="#F05A2C" points="88.0662904 30.5710971 91.6628782 30.5710971 91.6628782 26.4869367 88.0662904 26.4869367"></polygon>
                    <polygon id="Fill-7" fill="#4A4A4A" points="98.2701843 30.5710971 101.28253 30.5710971 101.28253 2.16578616 98.2701843 2.16578616"></polygon>
                    <path d="M109.805955,24.5793291 C109.805955,27.1478516 112.15106,28.6280171 114.888373,28.6280171 C118.603762,28.6280171 121.651911,26.3690717 121.651911,23.1781703 L121.651911,21.2336392 C120.167708,20.8047459 118.172497,20.377465 115.710217,20.377465 C111.91834,20.377465 109.805955,22.0108067 109.805955,24.5793291 M109.454433,14.3052393 L108.554472,11.8544206 C110.784031,10.8418455 112.972905,10.1807694 115.905507,10.1807694 C121.417563,10.1807694 124.506397,12.9830871 124.506397,18.2749206 L124.506397,30.5709358 L121.61448,30.5709358 L121.61448,27.5364354 C120.206766,29.3648751 117.860033,30.9998291 114.304131,30.9998291 C110.549684,30.9998291 106.757806,28.8988971 106.757806,24.6970329 C106.757806,20.4161621 110.276278,18.1588292 115.396126,18.1588292 C117.977207,18.1588292 119.814559,18.5087158 121.61448,19.0150033 L121.61448,18.3152301 C121.61448,14.6954354 119.386549,12.8282985 115.593044,12.8282985 C113.207253,12.8282985 111.330843,13.4506775 109.454433,14.3052393" id="Fill-8" fill="#4A4A4A"></path>
                    <path d="M134.830557,24.8532726 C134.830557,27.3024789 136.197586,28.1989626 138.231855,28.1989626 C139.248989,28.1989626 140.106637,28.0038645 141.16283,27.497577 L141.16283,30.0644871 C140.106637,30.6110841 138.975584,30.9222736 137.528811,30.9222736 C134.283745,30.9222736 131.819839,29.3260167 131.819839,25.240244 L131.819839,13.0990173 L129.00441,13.0990173 L129.00441,10.4531005 L131.819839,10.4531005 L131.819839,4.38409954 L134.830557,4.38409954 L134.830557,10.4531005 L141.240946,10.4531005 L141.240946,13.0990173 L134.830557,13.0990173 L134.830557,24.8532726 Z" id="Fill-9" fill="#4A4A4A"></path>
                    <path d="M160.83112,19.4035871 C160.518656,15.7467076 158.406271,12.5541938 154.378418,12.5541938 C150.859946,12.5541938 148.202377,15.4726029 147.811798,19.4035871 L160.83112,19.4035871 Z M154.926857,28.4313066 C157.703228,28.4313066 159.657753,27.3010278 161.299816,25.5902918 L163.176225,27.263943 C161.141956,29.5196636 158.679677,31.0385262 154.848741,31.0385262 C149.296,31.0385262 144.762021,26.7963526 144.762021,20.5306412 C144.762021,14.6954354 148.866363,10.0259809 154.458162,10.0259809 C160.44054,10.0259809 163.879269,14.7728297 163.879269,20.6886545 C163.879269,20.9595344 163.879269,21.2723363 163.841838,21.6206105 L147.811798,21.6206105 C148.241435,25.980488 151.369327,28.4313066 154.926857,28.4313066 L154.926857,28.4313066 Z" id="Fill-10" fill="#4A4A4A"></path>
                    <path d="M172.170624,30.5706134 L169.159906,30.5706134 L169.159906,10.4529393 L172.170624,10.4529393 L172.170624,15.707688 C173.656454,12.3603857 176.589057,9.9498765 180.419992,10.104665 L180.419992,13.3326512 L180.185644,13.3326512 C175.767212,13.3326512 172.170624,16.4848555 172.170624,22.5554689 L172.170624,30.5706134 Z" id="Fill-11" fill="#4A4A4A"></path>
                    <path d="M185.582479,24.5793291 C185.582479,27.1478516 187.927584,28.6280171 190.664897,28.6280171 C194.380286,28.6280171 197.428435,26.3690717 197.428435,23.1781703 L197.428435,21.2336392 C195.944232,20.8047459 193.950648,20.377465 191.486742,20.377465 C187.694864,20.377465 185.582479,22.0108067 185.582479,24.5793291 M185.230957,14.3052393 L184.330997,11.8544206 C186.562183,10.8418455 188.749429,10.1807694 191.682031,10.1807694 C197.194087,10.1807694 200.282921,12.9830871 200.282921,18.2749206 L200.282921,30.5709358 L197.391004,30.5709358 L197.391004,27.5364354 C195.98329,29.3648751 193.636557,30.9998291 190.080655,30.9998291 C186.326208,30.9998291 182.53433,28.8988971 182.53433,24.6970329 C182.53433,20.4161621 186.052802,18.1588292 191.174278,18.1588292 C193.753731,18.1588292 195.591083,18.5087158 197.391004,19.0150033 L197.391004,18.3152301 C197.391004,14.6954354 195.163073,12.8282985 191.369568,12.8282985 C188.983777,12.8282985 187.107367,13.4506775 185.230957,14.3052393" id="Fill-12" fill="#4A4A4A"></path>
                    <polygon id="Fill-13" fill="#4A4A4A" points="206.970133 30.5710971 209.980852 30.5710971 209.980852 2.16578616 206.970133 2.16578616"></polygon>
                    <path d="M19.0108286,30.7178237 C18.887145,30.8030606 18.7602066,30.8882975 18.6316408,30.9628798 C18.7602066,30.8882975 18.8855176,30.8030606 19.0108286,30.7178237" id="Fill-14" fill="#F27361"></path>
                    <path d="M12.806739,30.7896843 C12.688614,30.7630478 12.566114,30.7364113 12.456739,30.6991201 C12.566114,30.7364113 12.688614,30.7630478 12.806739,30.7896843" id="Fill-15" fill="#F27361"></path>
                    <path d="M19.4620538,30.6304327 C19.3447243,30.7103423 19.2293834,30.7795973 19.1120538,30.8488522 C19.2293834,30.7795973 19.3447243,30.7156696 19.4620538,30.6304327" id="Fill-16" fill="#F27361"></path>
                    <path d="M13.1593999,30.9271365 C13.0420346,30.8791908 12.928861,30.8259177 12.8093999,30.7726447 C12.928861,30.8259177 13.0420346,30.8791908 13.1593999,30.9271365" id="Fill-17" fill="#F27361"></path>
                    <path d="M31.2878868,13.7452594 C30.2203023,12.6391663 29.0143876,11.6330407 27.67177,10.7526809 C27.1038021,10.3786085 26.5211874,10.0335591 25.9336905,9.7207572 C25.740028,16.6797923 22.052305,23.3147389 15.7786191,27.1038336 C17.72989,28.2857087 19.8959798,29.1644562 22.2134191,29.6723561 C22.2980447,29.6368837 22.3794155,29.6014113 22.4640411,29.5594894 C28.6889045,26.6378556 32.0625364,20.1657594 31.2878868,13.7452594" id="Fill-18" fill="#2BBEC7"></path>
                    <path d="M14.71966,31.0964922 C14.1923774,31.0482102 13.6699771,30.9604248 13.1589687,30.8484984 C14.9344788,31.2567006 16.7702032,31.2523113 18.5880261,30.8002164 C17.3381712,31.10966 16.044376,31.2150025 14.71966,31.0964922" id="Fill-19" fill="#F27361"></path>
                    <path d="M19.728695,30.5752893 C19.680461,30.5912712 19.6268677,30.6072531 19.5786338,30.623235 C19.6268677,30.6072531 19.680461,30.5912712 19.728695,30.5752893" id="Fill-20" fill="#F27361"></path>
                    <path d="M0.600693174,12.0674866 C0.643567796,11.9518017 0.697161074,11.8295061 0.740035696,11.7204318 C0.697161074,11.8295061 0.643567796,11.9518017 0.600693174,12.0674866" id="Fill-21" fill="#34383D"></path>
                    <path d="M0.718192557,11.6485901 C0.755707852,11.5287735 0.809301129,11.4213518 0.846816424,11.3015352 C0.809301129,11.4213518 0.755707852,11.5287735 0.718192557,11.6485901" id="Fill-22" fill="#34383D"></path>
                    <path d="M0.495724888,12.4807398 C0.53859951,12.364151 0.597552116,12.2475623 0.651145393,12.1336849 C0.597552116,12.2475623 0.53859951,12.364151 0.495724888,12.4807398" id="Fill-23" fill="#34383D"></path>
                    <path d="M0.235012959,13.9917925 C0.320651257,13.6225573 0.436076789,13.2565469 0.585012959,12.8937612 C0.436076789,13.2597716 0.320651257,13.6241697 0.235012959,13.9917925" id="Fill-24" fill="#34383D"></path>
                    <path d="M0.219227031,14.1971646 L0.219227031,14.1971646 C0.224586359,14.1598735 0.229945686,14.1279096 0.229945686,14.1012731 C0.229945686,14.1332369 0.224586359,14.1652008 0.219227031,14.1971646" id="Fill-25" fill="#34383D"></path>
                    <path d="M3.14027473,6.67987771 C3.25282061,6.56419276 3.37072582,6.44451867 3.4832717,6.33282286 C3.37072582,6.44451867 3.25282061,6.56419276 3.14027473,6.67987771" id="Fill-26" fill="#34383D"></path>
                    <path d="M0.406705272,12.8827063 C0.460298549,12.7655476 0.513891827,12.6505995 0.572844433,12.5356514 C0.513891827,12.6505995 0.460298549,12.7655476 0.406705272,12.8827063" id="Fill-27" fill="#34383D"></path>
                    <path d="M6.48412491,3.13660058 C6.04309537,4.60225464 5.75992511,6.14046584 5.64926087,7.7318856 C5.60043841,8.4590693 5.59067392,9.17980347 5.61345773,9.89247575 C11.7683423,6.5113134 19.4302135,6.27268106 25.933365,9.72156339 C25.9919519,7.52872563 25.7087817,5.30202787 25.0431688,3.12208916 C27.0579089,4.58774322 28.7422838,6.55807244 29.8863567,8.95084541 C30.6300855,10.5067928 31.0922714,12.1223983 31.2859339,13.7460656 L31.2891887,13.7460656 C30.765161,9.39586249 28.3907621,5.29235359 24.4166139,2.68029684 C17.4887071,-1.87467866 8.23359634,-0.238112239 3.30090061,6.25978201 C4.20899834,5.07145743 5.2798376,4.02018521 6.48412491,3.13660058" id="Fill-28" fill="#B2B3B4"></path>
                    <path d="M0.854895441,11.200181 C0.887051408,11.0936349 0.924566702,10.9764341 0.962081997,10.8805426 C0.924566702,10.9764341 0.887051408,11.0936349 0.854895441,11.200181" id="Fill-29" fill="#34383D"></path>
                    <path d="M1.0122665,10.5990274 C1.02834448,10.5510817 1.04978179,10.5031359 1.06050045,10.4605175 C1.04978179,10.5031359 1.02834448,10.5510817 1.0122665,10.5990274" id="Fill-30" fill="#34383D"></path>
                    <path d="M25.043657,3.12241163 C25.7076425,5.30073797 25.9924402,7.52743572 25.9338532,9.72188587 C26.5213501,10.0330753 27.1039648,10.3749001 27.6719327,10.7489724 C29.0129229,11.632557 30.2204651,12.6386826 31.2864221,13.7447757 C31.0927597,12.1227207 30.6305737,10.5071153 29.8868449,8.94794313 C28.7411446,6.55678254 27.0567698,4.58806569 25.043657,3.12241163" id="Fill-31" fill="#4A4A4A"></path>
                    <path d="M22.2179759,29.6762258 C22.2163485,29.6762258 22.2147211,29.673001 22.2114662,29.673001 C21.3635829,30.0551353 20.4977979,30.3550381 19.6255033,30.5759342 C20.5205817,30.3502009 21.3896215,30.0486857 22.2179759,29.6762258" id="Fill-32" fill="#7FC9C3"></path>
                    <path d="M18.7324025,30.7926382 C18.6895278,30.8032928 18.6412939,30.8086201 18.5877006,30.8139474 C18.6412939,30.8086201 18.6948872,30.8032928 18.7324025,30.7926382" id="Fill-33" fill="#7FC9C3"></path>
                    <path d="M12.936444,30.8656855 C12.8214805,30.8283943 12.7014075,30.7804486 12.586444,30.7271755 C12.7014075,30.7804486 12.8214805,30.8283943 12.936444,30.8656855" id="Fill-34" fill="#7FC9C3"></path>
                    <path d="M19.3439206,30.6965403 C19.2313747,30.7285041 19.1241882,30.7498134 19.0116423,30.7657953 C19.1241882,30.7498134 19.2313747,30.7285041 19.3439206,30.6965403" id="Fill-35" fill="#7FC9C3"></path>
                    <path d="M19.7483162,30.5894782 C19.6316495,30.637424 19.5149828,30.6853697 19.3983162,30.7226609 C19.5149828,30.6853697 19.6316495,30.637424 19.7483162,30.5894782" id="Fill-36" fill="#7FC9C3"></path>
                    <path d="M13.3382632,30.8649244 C13.252514,30.8542698 13.1721241,30.8329606 13.0810155,30.822306 C13.1721241,30.8329606 13.252514,30.8542698 13.3382632,30.8649244" id="Fill-37" fill="#7FC9C3"></path>
                    <path d="M0.387664513,13.135715 C0.403742496,13.0238416 0.430539135,12.9066409 0.451976446,12.7894402 C0.430539135,12.9066409 0.403742496,13.0238416 0.387664513,13.135715" id="Fill-38" fill="#7FC9C3"></path>
                    <path d="M0.22231912,14.339331 C0.233037775,14.2219448 0.249115759,14.1045586 0.265193742,13.9922762 C0.249115759,14.1045586 0.233037775,14.2219448 0.22231912,14.339331" id="Fill-39" fill="#7FC9C3"></path>
                    <path d="M0.886630039,10.8803814 C0.995720948,10.7562281 1.11844822,10.6304624 1.23663004,10.5030843 C1.11844822,10.6272376 0.995720948,10.7562281 0.886630039,10.8803814" id="Fill-40" fill="#7FC9C3"></path>
                    <path d="M3.14027473,6.47309998 C2.2533334,7.67754837 1.53727067,9.01904912 1.02626227,10.4637422 C1.44939024,9.26896813 2.02386784,8.11450354 2.76108696,7.01324752 C2.88314311,6.83266088 3.0100815,6.64884948 3.14027473,6.47309998" id="Fill-41" fill="#7FC9C3"></path>
                    <path d="M13.8042389,28.1615554 C14.4877533,27.8406916 15.1419742,27.4859678 15.7782936,27.1038336 C9.83171815,23.5066123 5.86407969,17.1119104 5.61183032,9.89005718 C3.6296385,10.9816389 1.80205114,12.4021463 0.218576065,14.1306184 C0.207184158,14.2660584 0.197419666,14.399886 0.186027759,14.535326 C-0.342882209,22.294102 4.99829476,29.1047981 12.4551116,30.6994426 C11.3875272,30.4656474 10.3427266,30.1270474 9.34837581,29.6836427 C10.8553624,29.3450428 12.3477022,28.8435924 13.8042389,28.1615554" id="Fill-42" fill="#F05A2C"></path>
                    <path d="M3.24524301,6.49934954 C3.30955495,6.41943995 3.36314822,6.33953036 3.42210083,6.25962077 C3.36314822,6.33953036 3.30955495,6.41943995 3.24524301,6.49934954" id="Fill-43" fill="#7FC9C3"></path>
                    <path d="M0.543408156,12.2364641 C0.602360761,12.1215453 0.655954039,12.0066265 0.730984628,11.8894093 C0.655954039,12.0066265 0.602360761,12.1215453 0.543408156,12.2364641" id="Fill-44" fill="#7FC9C3"></path>
                    <path d="M0.456015955,12.6888981 C0.504249905,12.572241 0.547124527,12.4585004 0.584639821,12.3418433 C0.547124527,12.4585004 0.504249905,12.572241 0.456015955,12.6888981" id="Fill-45" fill="#7FC9C3"></path>
                    <path d="M0.75790149,11.3245016 C0.859728718,11.20709 0.961555946,11.091405 1.07946116,10.9774467 C0.961555946,11.091405 0.859728718,11.20709 0.75790149,11.3245016" id="Fill-46" fill="#7FC9C3"></path>
                    <path d="M0.643494196,11.7845138 C0.723884112,11.6655236 0.804274029,11.5524828 0.890023273,11.4374589 C0.804274029,11.5524828 0.723884112,11.6655236 0.643494196,11.7845138" id="Fill-47" fill="#7FC9C3"></path>
                    <path d="M13.8042389,28.1615554 C12.3477022,28.8435924 10.8553624,29.3450428 9.34837581,29.6836427 C10.3427266,30.1270474 11.3875272,30.4656474 12.4551116,30.6994426 C12.4974244,30.7107293 12.542992,30.7171788 12.5869322,30.7268531 C12.6617933,30.7429769 12.7366544,30.7574883 12.8098881,30.768775 C12.9010234,30.7897359 12.9905312,30.8042473 13.0816665,30.8187588 C13.1077051,30.8252083 13.1337438,30.8316578 13.1597824,30.8348826 C13.6707908,30.9203387 14.1915637,30.9816092 14.7204737,31.0170816 C16.0451897,31.1073749 17.3389849,31.0267559 18.5872124,30.7994102 C18.6034865,30.7977978 18.6197607,30.7961854 18.6311526,30.7929607 C18.7597184,30.768775 18.8866568,30.7445892 19.0103404,30.7171788 C19.0461435,30.7107293 19.0770644,30.7042797 19.1128675,30.6978302 C19.2072576,30.6784816 19.3032751,30.6542959 19.3992926,30.6301102 C19.459507,30.6172112 19.5197213,30.6043121 19.5783083,30.5898007 C19.5945824,30.5849636 19.6092292,30.5801264 19.6255033,30.5752893 C20.4977979,30.3543931 21.3652103,30.0561027 22.2114662,29.6723561 C19.8940269,29.1644562 17.7295645,28.2857087 15.7782936,27.1038336 C15.1419742,27.4859678 14.4877533,27.8406916 13.8042389,28.1615554" id="Fill-48" fill="#4A4A4A"></path>
                    <path d="M5.61394596,9.88989594 C5.59116215,9.17883605 5.60092664,8.45810187 5.6497491,7.73091817 C5.7571585,6.14111079 6.04521101,4.6028996 6.48461314,3.13724553 C5.27869841,4.02083016 4.20785915,5.07049 3.29976142,6.25881458 C3.28185986,6.28461268 3.26395829,6.30718601 3.2444293,6.33137172 C3.21025358,6.37813076 3.17445045,6.42650218 3.14027473,6.47326122 C3.0100815,6.6506231 2.88314311,6.83282212 2.75945955,7.01502114 C2.02386784,8.11144002 1.44939024,9.26912936 1.02788969,10.4606787 C1.02300744,10.4735778 1.01649778,10.4880892 1.01161553,10.504213 C0.969302736,10.6283663 0.926989938,10.7557444 0.886304556,10.8815101 C0.874912649,10.9105329 0.863520742,10.9443929 0.857011081,10.9766405 C0.82283536,11.08467 0.790287054,11.1926995 0.759366164,11.3007291 C0.744719426,11.3442633 0.730072689,11.3910224 0.720308197,11.4377814 C0.692642137,11.5312995 0.666603493,11.6232052 0.645447094,11.7167233 C0.629172941,11.7763814 0.612898788,11.8328147 0.599879466,11.889248 C0.580350483,11.9730918 0.560821499,12.0504861 0.542919931,12.1327175 C0.526645778,12.2020499 0.510371625,12.2713822 0.495724888,12.3407146 C0.48107815,12.4052098 0.469686243,12.4697051 0.456666921,12.5342003 C0.438765353,12.6180441 0.4224912,12.7035003 0.406217047,12.7889564 C0.399707386,12.8244288 0.393197725,12.8599012 0.388315479,12.8937612 C0.323218868,13.2565469 0.272768994,13.6209449 0.235338442,13.9917925 C0.232083612,14.0272648 0.22557395,14.0643496 0.22231912,14.1014343 C0.22231912,14.1094962 0.220691705,14.1191705 0.220691705,14.1304572 C1.80253936,12.4003727 3.63012673,10.9814777 5.61394596,9.88989594" id="Fill-49" fill="#4A4A4A"></path>
                </g>
            </g>
        </g>
    </g>
</svg>