<svg id="Layer_1" data-name="Layer 1" xmlns="http://www.w3.org/2000/svg" viewBox="0 0 24 24"><defs><style>.cls-1{fill:#238dc2;}</style></defs><title>compliance-icon</title><g id="Page-1"><g id="survey-reporter-icon"><g id="Group-5"><path class="cls-1" d="M15.74,17.8H7.4a1,1,0,0,1-1-1V8.37a1,1,0,0,1,1-1H8a.23.23,0,0,1,.23.23v.77a.76.76,0,0,0,1.51,0V7.59A.23.23,0,0,1,10,7.36h.79a.23.23,0,0,1,.24.23v.77a.76.76,0,0,0,1.51,0V7.59a.23.23,0,0,1,.23-.23h.79a.23.23,0,0,1,.23.23v.77a.76.76,0,0,0,1.51,0V7.59a.23.23,0,0,1,.23-.23h.6a1,1,0,0,1,1,1V15a.21.21,0,0,1-.08.16l-.29.28a.23.23,0,0,1-.31,0,.88.88,0,0,0-.58-.21.9.9,0,0,0-.92.88.84.84,0,0,0,.27.61l.69.67a.23.23,0,0,1,.06.25A.25.25,0,0,1,15.74,17.8ZM7.4,7.82a.55.55,0,0,0-.55.55v8.41a.55.55,0,0,0,.55.55h7.76l-.27-.26a1.33,1.33,0,0,1-.41-.95A1.39,1.39,0,0,1,16.57,15l.08-.08V8.37a.55.55,0,0,0-.55-.55h-.37v.54a1.22,1.22,0,0,1-2.43,0V7.82H13v.54a1.22,1.22,0,0,1-2.44,0V7.82h-.32v.54a1.22,1.22,0,0,1-2.44,0V7.82Zm4,8.15H9a.71.71,0,1,1,0-1.42h2.37a.71.71,0,1,1,0,1.42ZM9,15a.25.25,0,1,0,0,.5h2.37a.25.25,0,1,0,0-.5Zm3.95-1H9a.71.71,0,1,1,0-1.42h3.95a.71.71,0,1,1,0,1.42ZM9,13.1a.25.25,0,1,0,0,.49h3.95a.25.25,0,1,0,0-.49Zm6.13-1.16H8.79a.71.71,0,1,1,0-1.42h6.33a.71.71,0,1,1,0,1.42ZM8.79,11a.25.25,0,1,0,0,.49h6.33a.25.25,0,1,0,0-.49Zm5.72-2a.63.63,0,0,1-.62-.63V6.83a.63.63,0,1,1,1.25,0V8.34A.63.63,0,0,1,14.51,9Zm0-2.3a.16.16,0,0,0-.16.16V8.34a.17.17,0,1,0,.33,0V6.83A.17.17,0,0,0,14.51,6.67ZM11.75,9a.63.63,0,0,1-.63-.63V6.83a.64.64,0,0,1,.63-.63.63.63,0,0,1,.63.63V8.34A.63.63,0,0,1,11.75,9Zm0-2.3a.16.16,0,0,0-.16.16V8.34a.16.16,0,1,0,.32,0V6.83A.16.16,0,0,0,11.75,6.67ZM9,9a.63.63,0,0,1-.63-.63V6.83a.63.63,0,1,1,1.25,0V8.34A.63.63,0,0,1,9,9Zm0-2.3a.17.17,0,0,0-.17.16V8.34A.18.18,0,0,0,9,8.51a.17.17,0,0,0,.16-.17V6.83A.16.16,0,0,0,9,6.67Z"/><path class="cls-1" d="M16.59,17.59a.82.82,0,0,1-.55-.22l-.73-.71a.73.73,0,0,1-.24-.54.78.78,0,0,1,.79-.77.8.8,0,0,1,.55.22l.18.18.93-.88a.74.74,0,0,1,.55-.22.77.77,0,0,1,.78.76.74.74,0,0,1-.23.54h0l-1.47,1.42A.82.82,0,0,1,16.59,17.59Zm-.73-1.77a.31.31,0,0,0-.32.3.27.27,0,0,0,.09.2l.73.71a.34.34,0,0,0,.46,0l1.48-1.41a.29.29,0,0,0,.09-.21.31.31,0,0,0-.32-.3.32.32,0,0,0-.23.09l-1.09,1a.22.22,0,0,1-.32,0l-.34-.33A.33.33,0,0,0,15.86,15.82Zm2.6,0Z"/></g></g></g><path class="cls-1" d="M12,23A11,11,0,1,1,23,12,11,11,0,0,1,12,23ZM12,1.63A10.37,10.37,0,1,0,22.37,12,10.38,10.38,0,0,0,12,1.63Z"/></svg>