<svg id="Layer_1" data-name="Layer 1" xmlns="http://www.w3.org/2000/svg" viewBox="0 0 24 24"><defs><style>.cls-1{fill:#238dc2;}</style></defs><title>correct-icon</title><path class="cls-1" d="M10.56,17.16a.29.29,0,0,1-.22-.09l-4-4L6,12.73a1.7,1.7,0,1,1,2.4-2.39l2.08,2.08,0,.05.05-.06,5-5a1.65,1.65,0,0,1,1.76-.47,1.62,1.62,0,0,1,1.17,1.36A1.75,1.75,0,0,1,18,9.86q-3.28,3.27-6.56,6.56l-.22.21-.24.26-.14.17a.33.33,0,0,1-.23.1ZM7.11,10.39a1,1,0,0,0-.73.31,1.08,1.08,0,0,0,.07,1.6c.12.11.23.23.35.35l3.74,3.75.2-.21L11,16l6.56-6.56a1.14,1.14,0,0,0,.42-1,1,1,0,0,0-.75-.87,1,1,0,0,0-1.13.32l-5,5-.19.19-.13.12a.31.31,0,0,1-.24.08.27.27,0,0,1-.22-.12.76.76,0,0,1-.08-.11.61.61,0,0,0-.12-.15L8,10.78A1.26,1.26,0,0,0,7.11,10.39Z"/><path class="cls-1" d="M12,23A11,11,0,1,1,23,12,11,11,0,0,1,12,23ZM12,1.63A10.37,10.37,0,1,0,22.37,12,10.38,10.38,0,0,0,12,1.63Z"/></svg>