<?xml version="1.0" encoding="UTF-8"?>
<svg width="24px" height="25px" viewBox="0 0 24 25" version="1.1" xmlns="http://www.w3.org/2000/svg" xmlns:xlink="http://www.w3.org/1999/xlink">
    <!-- Generator: Sketch 48.2 (47327) - http://www.bohemiancoding.com/sketch -->
    <title>facebook-logo</title>
    <desc>Created with Sketch.</desc>
    <defs>
        <polygon id="path-1" points="0 0.212798507 23.7918844 0.212798507 23.7918844 24.0046318 0 24.0046318"></polygon>
    </defs>
    <g id="iPhone-SE-//-HOME" stroke="none" stroke-width="1" fill="none" fill-rule="evenodd" transform="translate(-115.000000, -6103.000000)">
        <g id="FOOTER-//-SWOOP" transform="translate(0.000000, 6080.000000)">
            <g id="facebook-logo" transform="translate(115.000000, 23.000000)">
                <g id="Group-3" transform="translate(0.000000, 0.042519)">
                    <mask id="mask-2" fill="white">
                        <use xlink:href="#path-1"></use>
                    </mask>
                    <g id="Clip-2"></g>
                    <path d="M11.8958017,1.11629199 C5.84254862,1.11629199 0.903467946,6.05537267 0.903467946,12.1086258 C0.903467946,18.1621343 5.84254862,23.1012149 11.8958017,23.1012149 C17.9493102,23.1012149 22.8883909,18.1621343 22.8883909,12.1086258 C22.8883909,6.05537267 17.9493102,1.11629199 11.8958017,1.11629199 M11.8958017,24.0047084 C5.33053494,24.0047084 -2.55361258e-05,18.6741479 -2.55361258e-05,12.1086258 C-2.55361258e-05,5.54335898 5.33053494,0.212798507 11.8958017,0.212798507 C18.4613239,0.212798507 23.7918844,5.54335898 23.7918844,12.1086258 C23.7918844,18.6741479 18.4613239,24.0047084 11.8958017,24.0047084" id="Fill-1" fill="#FFFFFF" mask="url(#mask-2)"></path>
                </g>
                <path d="M14.7185932,10.3445918 L12.6493429,10.3445918 L12.6493429,8.83434293 C12.6493429,8.37110461 13.128414,8.26384987 13.3521168,8.26384987 L14.6889705,8.26384987 L14.6889705,6.22575448 L13.1570153,6.21758269 C11.0668248,6.21758269 10.5895412,7.73728018 10.5895412,8.71151071 L10.5895412,10.3445918 L9.07290811,10.3445918 L9.07290811,12.4444863 L10.5895412,12.4444863 L10.5895412,18.11341 L12.6493429,18.11341 L12.6493429,12.4444863 L14.3991273,12.4444863 L14.7185932,10.3445918 Z" id="Fill-4" fill="#FFFFFF"></path>
            </g>
        </g>
    </g>
</svg>