<?xml version="1.0" encoding="UTF-8"?>
<svg width="24px" height="25px" viewBox="0 0 24 25" version="1.1" xmlns="http://www.w3.org/2000/svg" xmlns:xlink="http://www.w3.org/1999/xlink">
    <!-- Generator: Sketch 48.2 (47327) - http://www.bohemiancoding.com/sketch -->
    <title>linkedin-logo</title>
    <desc>Created with Sketch.</desc>
    <defs></defs>
    <g id="iPhone-SE-//-HOME" stroke="none" stroke-width="1" fill="none" fill-rule="evenodd" transform="translate(-181.000000, -6103.000000)">
        <g id="FOOTER-//-SWOOP" transform="translate(0.000000, 6080.000000)" fill="#FFFFFF">
            <g id="linkedin-logo" transform="translate(181.000000, 23.000000)">
                <polygon id="Fill-1" points="6.83646806 17.210938 9.00480135 17.210938 9.00480135 10.3443364 6.83646806 10.3443364"></polygon>
                <g id="Group-8" transform="translate(0.000000, 0.042519)">
                    <path d="M14.9073871,10.2113916 C13.6726808,10.2113916 12.8897212,10.8740727 12.7393092,11.3556975 L12.7393092,10.2716586 L10.2997746,10.2716586 C10.3299081,10.8439392 10.2997746,17.1382601 10.2997746,17.1382601 L12.7393092,17.1382601 L12.7393092,13.4338857 C12.7393092,13.2229514 12.7393092,13.0122725 12.7993208,12.8616051 C12.9801216,12.4399918 13.3113344,12.0183786 13.9740155,12.0183786 C14.8169867,12.0183786 15.2087218,12.6509262 15.2087218,13.5842977 L15.2087218,17.1382601 L17.6783899,17.1382601 L17.6783899,13.3133519 C17.648001,11.2052855 16.4434282,10.2113916 14.9073871,10.2113916" id="Fill-2"></path>
                    <path d="M7.86031668,7.0492155 C7.04696826,7.0492155 6.53520994,7.56122919 6.53520994,8.25378835 C6.53520994,8.91646941 7.04696826,9.4284831 7.83018321,9.4284831 L7.86031668,9.4284831 C8.67366511,9.4284831 9.18542343,8.91646941 9.18542343,8.22391025 C9.15528996,7.56122919 8.67366511,7.0492155 7.86031668,7.0492155" id="Fill-4"></path>
                    <path d="M11.8958528,1.11639414 C5.8425997,1.11639414 0.903519019,6.05547482 0.903519019,12.1087279 C0.903519019,18.1622364 5.8425997,23.1010617 11.8958528,23.1010617 C17.9491059,23.1010617 22.888442,18.1622364 22.888442,12.1087279 C22.888442,6.05547482 17.9493613,1.11639414 11.8958528,1.11639414 M11.8958528,24.0045552 C5.33058601,24.0045552 2.55368423e-05,18.6739947 2.55368423e-05,12.1087279 C2.55368423e-05,5.54346113 5.33058601,0.212900655 11.8958528,0.212900655 C18.4611196,0.212900655 23.7916801,5.54346113 23.7916801,12.1087279 C23.7916801,18.6739947 18.461375,24.0045552 11.8958528,24.0045552" id="Fill-6"></path>
                </g>
            </g>
        </g>
    </g>
</svg>