<?xml version="1.0" encoding="UTF-8"?>
<svg width="264px" height="204px" viewBox="0 0 264 204" version="1.1" xmlns="http://www.w3.org/2000/svg" xmlns:xlink="http://www.w3.org/1999/xlink">
    <!-- Generator: Sketch 48.2 (47327) - http://www.bohemiancoding.com/sketch -->
    <title>Paddypower</title>
    <desc>Created with Sketch.</desc>
    <defs>
        <filter x="-7.5%" y="-10.0%" width="115.0%" height="120.0%" filterUnits="objectBoundingBox" id="filter-1">
            <feOffset dx="0" dy="0" in="SourceAlpha" result="shadowOffsetOuter1"></feOffset>
            <feGaussianBlur stdDeviation="6" in="shadowOffsetOuter1" result="shadowBlurOuter1"></feGaussianBlur>
            <feColorMatrix values="0 0 0 0 0   0 0 0 0 0   0 0 0 0 0  0 0 0 0.15 0" type="matrix" in="shadowBlurOuter1" result="shadowMatrixOuter1"></feColorMatrix>
            <feMerge>
                <feMergeNode in="shadowMatrixOuter1"></feMergeNode>
                <feMergeNode in="SourceGraphic"></feMergeNode>
            </feMerge>
        </filter>
    </defs>
    <g id="iPhone-SE-//-COLATERAL" stroke="none" stroke-width="1" fill="none" fill-rule="evenodd" transform="translate(-28.000000, -3568.000000)">
        <g id="CLIENTS-//-SWOOP" transform="translate(0.000000, 2740.000000)">
            <g id="Paddypower" filter="url(#filter-1)" transform="translate(40.000000, 840.000000)">
                <rect id="Rectangle-Copy-6" fill="#F9F9F9" x="0" y="0" width="240" height="180" rx="3"></rect>
                <path d="M206.61204,87.3481258 C205.255345,87.3858887 204.473878,88.241167 204.499021,89.660167 C204.524164,91.0764454 205.329754,91.8582392 206.732658,91.8276206 C208.194002,91.7956412 209.050558,90.8855897 208.97411,89.4461773 C208.903438,88.1129093 207.998635,87.3093423 206.61204,87.3481258" id="Fill-1" fill="#5FBB35"></path>
                <path d="M160.672336,85.1122777 C159.786549,87.2875938 159.01871,89.1726245 158.251879,91.0579869 C157.512267,92.8769984 156.773999,94.6960098 156.035059,96.5150213 C155.870066,96.5219882 155.704737,96.5292868 155.539744,96.5365854 C153.077283,90.5510656 150.615158,84.5662094 148.170507,78.6228225 C148.31769,78.4702153 148.378176,78.3477977 148.452104,78.3391721 C152.566511,77.8554737 152.563822,77.8574642 154.07833,81.6849191 C154.644884,83.117768 155.228912,84.5443135 155.968524,86.3789175 C157.379533,83.1270571 158.639999,80.2218805 160.080579,76.9006834 C162.084353,79.9116898 163.807874,82.5013676 165.785773,85.4738904 C166.304947,82.941938 166.910817,80.8817408 167.102357,78.7840553 C167.27407,76.9020104 168.214295,76.3615819 169.884723,76.4186437 C170.429771,76.4375537 170.975827,76.4216295 171.691244,76.4216295 C170.341057,82.8344494 169.016073,89.1308234 167.690753,95.4268656 C167.519375,95.485918 167.347662,95.5446386 167.176284,95.6036909 C165.060611,92.190266 162.944601,88.7771728 160.672336,85.1122777" id="Fill-4" fill="#004833"></path>
                <path d="M133.194925,88.3354034 C133.160265,91.6532938 135.362795,94.0778017 138.43314,94.1025519 C141.45183,94.1266241 143.63903,91.9130019 143.704016,88.7676853 C143.772001,85.4772575 141.536145,82.9154366 138.557114,82.8700046 C135.517429,82.8235555 133.228584,85.1568604 133.194925,88.3354034 M138.290837,98.1463367 C132.891989,98.140912 128.73421,93.9835473 128.705216,88.5615462 C128.675889,83.0581744 133.04329,78.8252027 138.74574,78.8292712 C144.207908,78.8333398 148.194724,82.9239127 148.170396,88.4984839 C148.145735,94.0564418 143.952296,98.1514224 138.290837,98.1463367" id="Fill-6" fill="#004833"></path>
                <path d="M67.9074796,99.317033 C68.7514283,99.2147351 69.3663149,99.1954085 69.9538356,99.060122 C72.6718368,98.4353383 74.3232464,95.7102817 73.8066741,92.7526389 C73.285372,89.768672 71.1650269,88.0679274 68.2659382,88.4457966 C67.8040976,88.5057758 67.0375165,89.1605492 67.0584632,89.5017644 C67.2530647,92.694659 67.5892252,95.8792232 67.9074796,99.317033 M63.8671345,103.780488 C63.2826544,97.2934003 62.7471625,91.3481252 62.1981567,85.2565674 C65.5104356,84.6834324 68.698048,84.0649799 71.9532304,84.797393 C75.7192416,85.6444331 78.1007445,88.5574246 78.3845383,92.5680362 C78.7173203,97.270075 76.6577882,101.027441 72.4951414,102.322326 C69.8203849,103.154371 66.9229855,103.290657 63.8671345,103.780488" id="Fill-8" fill="#004833"></path>
                <path d="M84.766668,87.8615235 C85.0970325,91.4540217 85.4138714,94.9015102 85.7354442,98.398449 C88.1815619,98.5845559 89.858407,97.6931138 90.9942253,95.8256964 C92.1232807,93.9699733 91.9515047,91.0413789 90.5969087,89.3737674 C89.1215961,87.5574709 87.1755901,87.2430605 84.766668,87.8615235 M81.6801098,102.97561 C81.1100027,96.5373799 80.5821634,90.5752763 80.0414747,84.4701678 C83.3728475,83.8353327 86.6305055,83.2492797 89.9189344,84.0394823 C93.8437461,84.9823794 96.0961086,87.9935024 96.2540208,92.2398807 C96.421401,96.759238 94.153484,100.483381 90.0345789,101.662169 C87.4335923,102.406931 84.6513616,102.532228 81.6801098,102.97561" id="Fill-10" fill="#004833"></path>
                <path d="M191.513278,82.4195129 C191.671097,82.5823758 191.829253,82.7452387 191.987072,82.9081016 C192.757579,82.3305877 193.830206,81.8982849 194.207687,81.1325961 C194.539545,80.459496 194.388147,79.1765759 193.909284,78.5980629 C193.413524,77.9992336 192.26655,77.9242967 191.054691,77.4973228 C191.241235,79.5013026 191.377425,80.9604077 191.513278,82.4195129 M186.591496,74.5827761 C189.108485,74.4735347 191.392633,74.2733699 193.673739,74.3050099 C195.802095,74.3343186 197.52019,75.2875162 198.264676,77.3597719 C199.060528,79.5762395 198.973002,81.7340898 197.198132,83.5522261 C196.928117,83.8286601 196.552664,84.0048451 196.116381,84.3015953 C198.217026,86.8920814 200.134845,89.2570907 202.270636,91.8908737 C200.626212,92.0330873 199.26228,92.2469073 197.90443,92.2162664 C197.427594,92.2049426 196.858501,91.6750553 196.514476,91.2410873 C195.067072,89.41629 193.68827,87.5382042 192.284123,85.6797685 C192.137794,85.7154052 191.99079,85.7507088 191.844123,85.7863455 C192.011066,88.039782 192.178009,90.2928854 192.361174,92.7641386 C190.980344,92.8660528 189.681634,92.9619721 188.228823,93.0692151 C187.680344,86.8744296 187.149438,80.8828064 186.591496,74.5827761" id="Fill-12" fill="#004833"></path>
                <path d="M51.4939815,99.2920585 C52.5789383,99.1873782 53.4369891,99.1046636 54.5039797,99.0016994 C53.8495455,97.6161445 53.3301902,96.5164868 52.6022278,94.975799 C52.1620567,96.6898098 51.8612898,97.8615425 51.4939815,99.2920585 M45.1658986,106.195122 C47.4519269,99.3157403 49.6421356,92.7246583 51.832677,86.1339196 C52.0076808,86.11367 52.18335,86.0934204 52.3586864,86.0731707 C55.5899347,92.1854691 58.8211829,98.2981107 62.1981567,104.68601 C60.627448,104.824325 59.324901,105.056681 58.0366603,104.990441 C57.56954,104.966073 56.9457148,104.312593 56.7291227,103.796056 C56.3019272,102.77877 55.7127035,102.415306 54.6796489,102.616773 C54.0298726,102.743419 53.3561414,102.831281 52.6983801,102.802795 C51.1379853,102.734495 50.0616788,103.177241 49.8058273,104.998335 C49.7545905,105.363858 49.0895096,105.823421 48.647675,105.907852 C47.6272634,106.103141 46.5702539,106.094903 45.1658986,106.195122" id="Fill-15" fill="#004833"></path>
                <path d="M118.74383,84.4674508 C118.911235,86.2726188 119.070271,87.9846278 119.227911,89.6829872 C121.713539,89.6222462 122.903864,88.4732858 122.652755,86.5527781 C122.421177,84.7807105 121.082977,84.010187 118.74383,84.4674508 M120.043666,99.4141735 C118.577819,99.5322431 117.318787,99.6339331 115.806904,99.7560976 C115.238073,93.5001156 114.680751,87.3686867 114.105991,81.0468451 C117.282516,80.4861852 120.364527,79.9767115 123.390387,81.1468289 C125.777315,82.0695461 126.958573,83.9637782 127.072967,86.4626903 C127.192243,89.0629512 126.250586,91.1861564 123.820411,92.3982465 C122.599744,93.0070215 121.21446,93.2991243 119.628639,93.82566 C119.753496,95.5086635 119.890211,97.3459082 120.043666,99.4141735" id="Fill-17" fill="#004833"></path>
                <path d="M37.6109662,91.6831096 C37.78463,93.4564578 37.9562057,95.2090233 38.1330018,97.0157601 C39.720686,96.9925925 40.9725273,96.5200403 41.3104583,95.2015278 C41.5300613,94.3443244 41.2881848,93.1678842 40.8117403,92.3958559 C40.1717247,91.3591031 38.9637344,91.2040842 37.6109662,91.6831096 M34.6639014,107 C34.0945346,100.598571 33.5533577,94.5126306 33,88.2866624 C35.8976454,87.751762 38.6258034,87.3538233 41.3727545,88.0720208 C44.1217939,88.7908997 45.7620296,90.8385121 45.9593591,93.6247641 C46.1511201,96.3377653 44.7663338,98.759808 42.2699597,99.8268833 C41.115565,100.320559 39.8637237,100.595504 38.5071273,101.015929 C38.5575907,101.834634 38.60527,102.72216 38.6686103,103.609345 C38.7329947,104.512202 38.8123441,105.414719 38.9056144,106.57242 C37.534401,106.710745 36.1941617,106.845662 34.6639014,107" id="Fill-19" fill="#004833"></path>
                <path d="M178.713779,78.964272 C178.849828,80.217596 178.967385,81.3000729 179.103104,82.5470569 C180.680881,82.438609 182.1411,82.3378358 183.799119,82.2233816 C183.912053,83.3705935 184.017723,84.4457293 184.143205,85.7187408 C182.544625,85.9146143 181.050393,86.0974742 179.379496,86.3020236 C179.491109,87.5359938 179.594137,88.6751973 179.714336,90.004268 C181.535152,89.8958201 183.264168,89.7927112 185.20089,89.6769222 C185.29236,90.8448226 185.379867,91.9623365 185.479263,93.2346806 C182.195255,93.5336631 179.090226,93.8159613 175.726306,94.1219512 C175.194327,87.9988161 174.668621,81.9530961 174.124424,75.6938171 C177.36121,75.3971704 180.459966,75.1128701 183.817941,74.804878 C183.920639,75.975448 184.019043,77.0969661 184.132308,78.3883303 C182.319417,78.5812007 180.648189,78.7587215 178.713779,78.964272" id="Fill-21" fill="#004833"></path>
                <path d="M107.840046,100.236302 C106.365387,100.346423 105.026467,100.446168 103.488555,100.560976 C103.323754,98.7297497 103.304607,97.0019508 102.975006,95.3333964 C102.704213,93.9637426 102.290159,92.5251374 101.543427,91.3606639 C99.7042923,88.491152 97.6371031,85.761551 95.4516129,82.6798299 C97.1372303,82.5395843 98.5633379,82.3544869 99.9904712,82.3474579 C100.364521,82.3454496 100.833964,82.8334641 101.100312,83.2056672 C102.239215,84.7955635 103.318283,86.4266298 104.617542,88.3331665 C105.357778,86.7569935 106.098697,85.4659977 106.578056,84.087976 C107.242729,82.1777573 108.332397,81.0845781 110.527461,81.3570361 C111.070072,81.4243138 111.637643,81.2994651 112.483871,81.2439024 C111.292998,83.7763563 110.364369,86.2281438 109.037416,88.4519904 C107.388725,91.2153976 107.077586,94.0457478 107.630113,97.0993529 C107.805855,98.0706959 107.769271,99.0791922 107.840046,100.236302" id="Fill-23" fill="#004833"></path>
            </g>
        </g>
    </g>
</svg>