<svg id="Layer_1" data-name="Layer 1" xmlns="http://www.w3.org/2000/svg" viewBox="0 0 24 24"><defs><style>.cls-1{fill:#238dc2;}</style></defs><title>quality-icon</title><path class="cls-1" d="M15,14.39c.23.77.46,1.51.69,2.25.14.47.29.95.44,1.42a.28.28,0,0,1-.43.35l-1.07-.57-.55,1c-.07.14-.15.26-.32.24s-.22-.15-.27-.29c-.35-1.15-.7-2.3-1.06-3.45a.34.34,0,0,0-.34-.23s-.09.08-.12.13L10.6,18.13c-.06.12-.12.24-.17.36a.28.28,0,0,1-.29.22c-.15,0-.22-.11-.27-.25-.13-.37-.27-.73-.41-1.12l-.93.34-.22.08A.3.3,0,0,1,8,17.7a.29.29,0,0,1,0-.34l1-2.25.32-.7-.53,0a.88.88,0,0,1-.91-.92c0-.15,0-.31,0-.47a.57.57,0,0,0-.28-.5c-.17-.11-.35-.23-.52-.36a.81.81,0,0,1-.27-1A3.42,3.42,0,0,1,7,10.64.77.77,0,0,0,7,9.8a2.11,2.11,0,0,1-.2-.43.8.8,0,0,1,.27-1A4.1,4.1,0,0,1,7.52,8a.62.62,0,0,0,.31-.54c0-.17,0-.33,0-.5a.87.87,0,0,1,.87-.86l.52,0a.58.58,0,0,0,.49-.27c.12-.18.24-.37.37-.53a.8.8,0,0,1,1-.28,6.36,6.36,0,0,1,.59.28.6.6,0,0,0,.54,0c.2-.1.39-.2.59-.28a.8.8,0,0,1,1,.27,4.1,4.1,0,0,1,.35.5.63.63,0,0,0,.57.31l.46,0a.86.86,0,0,1,.88.87c0,.17,0,.34,0,.51a.61.61,0,0,0,.28.5,6.3,6.3,0,0,1,.53.37.8.8,0,0,1,.28,1c-.08.2-.18.39-.28.59a.59.59,0,0,0,0,.55c.1.2.2.39.28.59a.8.8,0,0,1-.28,1,4.46,4.46,0,0,1-.5.35.63.63,0,0,0-.31.56c0,.16,0,.31,0,.47a.87.87,0,0,1-.88.88Zm-1.7.65a1.55,1.55,0,0,0,.23-.21c.14-.17.26-.36.39-.54a.94.94,0,0,1,.68-.41l.68-.06c.25,0,.34-.11.36-.37a2.73,2.73,0,0,0,0-.41,1.15,1.15,0,0,1,.6-1.06l.42-.29a.32.32,0,0,0,.11-.41c-.08-.16-.15-.32-.23-.47a1.18,1.18,0,0,1,0-1.18c.07-.13.14-.27.2-.41s.09-.34-.13-.5L16,8.34a.9.9,0,0,1-.38-.66c0-.22,0-.45-.07-.68s-.1-.34-.37-.37-.27,0-.41,0A1.16,1.16,0,0,1,13.76,6c-.09-.15-.19-.29-.29-.43a.31.31,0,0,0-.42-.11l-.55.26a1.09,1.09,0,0,1-1,0c-.17-.08-.33-.17-.51-.24s-.32-.08-.48.13-.24.36-.37.53a.94.94,0,0,1-.68.41l-.7.07c-.23,0-.32.1-.34.34s0,.32,0,.48a1.1,1.1,0,0,1-.53,1l-.47.32c-.17.14-.2.23-.11.43s.15.33.23.49a1.13,1.13,0,0,1,0,1.1c-.08.16-.16.32-.23.48s-.08.32.13.47l.5.35a1,1,0,0,1,.45.73l.06.66c0,.25.11.33.35.36l.52,0a1.11,1.11,0,0,1,.9.5c.08.13.16.25.25.37.23.33.31.35.67.18h0a1.49,1.49,0,0,1,1.77,0A2.08,2.08,0,0,0,13.25,15Zm1.15-.56L14,15a1,1,0,0,1-1,.53l.8,2.58c.14-.27.26-.5.39-.73a.29.29,0,0,1,.45-.13l.72.38Zm-3.17,1-.19.07a.76.76,0,0,1-.79-.17,3.17,3.17,0,0,1-.36-.46l-.13-.17L8.7,17l.74-.27c.26-.1.37,0,.47.22s.17.46.27.74Z"/><path class="cls-1" d="M7.89,10.22A4.11,4.11,0,1,1,12,14.33,4.12,4.12,0,0,1,7.89,10.22Zm7.67,0A3.56,3.56,0,1,0,12,13.78,3.56,3.56,0,0,0,15.56,10.23Z"/><path class="cls-1" d="M12,8.86h1.55c.24,0,.36.09.37.27s-.13.27-.36.27H10.4c-.13,0-.25,0-.28-.17a.32.32,0,0,1,0-.27.39.39,0,0,1,.26-.11Z"/><path class="cls-1" d="M12,10h1.57c.22,0,.34.1.35.27s-.13.28-.36.28H10.4c-.13,0-.25,0-.28-.16a.31.31,0,0,1,0-.27.35.35,0,0,1,.26-.11Z"/><path class="cls-1" d="M12,11.59h-.52a.27.27,0,1,1,0-.54c.34,0,.69,0,1,0a.27.27,0,1,1,0,.54Z"/><path class="cls-1" d="M12,23A11,11,0,1,1,23,12,11,11,0,0,1,12,23ZM12,1.63A10.37,10.37,0,1,0,22.37,12,10.38,10.38,0,0,0,12,1.63Z"/></svg>