<?xml version="1.0" encoding="UTF-8"?>
<svg width="264px" height="204px" viewBox="0 0 264 204" version="1.1" xmlns="http://www.w3.org/2000/svg" xmlns:xlink="http://www.w3.org/1999/xlink">
    <!-- Generator: Sketch 49 (51002) - http://www.bohemiancoding.com/sketch -->
    <title>smp-logo</title>
    <desc>Created with Sketch.</desc>
    <defs>
        <filter x="-7.5%" y="-10.0%" width="115.0%" height="120.0%" filterUnits="objectBoundingBox" id="filter-1">
            <feOffset dx="0" dy="0" in="SourceAlpha" result="shadowOffsetOuter1"></feOffset>
            <feGaussianBlur stdDeviation="6" in="shadowOffsetOuter1" result="shadowBlurOuter1"></feGaussianBlur>
            <feColorMatrix values="0 0 0 0 0   0 0 0 0 0   0 0 0 0 0  0 0 0 0.15 0" type="matrix" in="shadowBlurOuter1" result="shadowMatrixOuter1"></feColorMatrix>
            <feMerge>
                <feMergeNode in="shadowMatrixOuter1"></feMergeNode>
                <feMergeNode in="SourceGraphic"></feMergeNode>
            </feMerge>
        </filter>
        <polygon id="path-2" points="0.0202083333 0.194736842 9.89354167 0.194736842 9.89354167 3.98736842 0.0202083333 3.98736842"></polygon>
        <polygon id="path-4" points="0.159957447 0.194736842 20.8460745 0.194736842 20.8460745 3.98736842 0.159957447 3.98736842"></polygon>
    </defs>
    <g id="Page-1" stroke="none" stroke-width="1" fill="none" fill-rule="evenodd">
        <g id="smp-logo" filter="url(#filter-1)" transform="translate(12.000000, 12.000000)">
            <rect id="Path" fill="#F9F9F9" x="0" y="0" width="240" height="180" rx="3"></rect>
            <g id="SMPFullLogo_Blk" transform="translate(20.000000, 49.000000)">
                <path d="M69,21.4998894 C69,33.3729627 59.3737945,43 47.4992259,43 C35.6248785,43 26,33.3729627 26,21.4998894 C26,9.62681616 35.6248785,0 47.4992259,0 C59.3737945,0 69,9.62681616 69,21.4998894" id="Fill-1" fill="#060300"></path>
                <path d="M40,28.3673407 L42.0917183,25.1190597 C43.9592113,26.4820273 45.9215775,27.1982053 47.531493,27.1982053 C48.9469296,27.1982053 49.5912113,26.6785895 49.5912113,25.8975733 L49.5912113,25.8327351 C49.5912113,24.7621082 47.9170704,24.4026542 46.0189296,23.8182002 C43.604507,23.1042973 40.8696338,21.9665571 40.8696338,18.5888271 L40.8696338,18.5242164 C40.8696338,14.981092 43.7016338,13 47.1767887,13 C49.3658592,13 51.7469296,13.7475733 53.6132958,15.0147624 L51.7469296,18.4259353 C50.0407887,17.4174166 48.336,16.8017947 47.0807887,16.8017947 C45.8895775,16.8017947 45.2784225,17.321638 45.2784225,18.0043731 L45.2784225,18.0689838 C45.2784225,19.0440597 46.9194366,19.4967897 48.7855775,20.1483569 C51.2,20.9603134 54,22.1294489 54,25.3131193 L54,25.37773 C54,29.2441355 51.136,31 47.4021408,31 C44.9890704,31 42.2850704,30.1880435 40,28.3673407" id="Fill-2" fill="#FFFFFE"></path>
                <path d="M120,21.4998894 C120,33.3729627 110.374286,43 98.4988942,43 C86.624829,43 77,33.3729627 77,21.4998894 C77,9.62681616 86.624829,0 98.4988942,0 C110.374286,0 120,9.62681616 120,21.4998894" id="Fill-3" fill="#060300"></path>
                <polyline id="Fill-4" fill="#FFFFFE" points="91 14 95.030871 14 99.5006887 21.1886436 103.967752 14 108 14 108 31 104.284564 31 104.284564 19.9026534 99.5006887 27.1638377 99.4040378 27.1638377 94.6672248 19.9751941 94.6672248 31 91 31 91 14"></polyline>
                <path d="M172,21.4998894 C172,33.3729627 162.374164,43 150.498894,43 C138.624951,43 129,33.3729627 129,21.4998894 C129,9.62681616 138.624951,0 150.498894,0 C162.374164,0 172,9.62681616 172,21.4998894" id="Fill-5" fill="#060300"></path>
                <path d="M151.97405,22.5742495 C153.922251,22.5742495 155.05938,21.4555871 155.05938,19.9981056 L155.05938,19.9509169 C155.05938,18.2742653 153.84638,17.3770095 151.90074,17.3770095 L148.891281,17.3770095 L148.891281,22.5742495 L151.97405,22.5742495 Z M145,14 L152.228892,14 C156.449023,14 159,16.404386 159,19.8780093 L159,19.9274344 C159,23.8599732 155.81669,25.8993738 151.849073,25.8993738 L148.891281,25.8993738 L148.891281,31 L145,31 L145,14 Z" id="Fill-6" fill="#FFFFFE"></path>
                <polygon id="Fill-7" fill="#1A1919" points="0 65 1 65 1 60 0 60"></polygon>
                <polyline id="Fill-8" fill="#1A1919" points="6 60 6.74738266 60 9.20653208 63.4567874 9.20653208 60 10 60 10 65 9.32455042 65 6.79366829 61.4434745 6.79366829 65 6 65 6 60"></polyline>
                <polyline id="Fill-9" fill="#1A1919" points="15 60 15.7471823 60 18.2063317 63.4567874 18.2063317 60 19 60 19 65 18.3245504 65 15.7936683 61.4434745 15.7936683 65 15 65 15 60"></polyline>
                <path d="M27.9422226,63.0167145 L27.9422226,63.0005065 C27.9422226,61.8730373 27.1311681,60.9365187 25.9914837,60.9365187 C24.8528012,60.9365187 24.0577774,61.8568293 24.0577774,62.9840452 L24.0577774,63.0005065 C24.0577774,64.1277224 24.8688319,65.0556306 26.0085163,65.0556306 C27.1474493,65.0556306 27.9422226,64.1439304 27.9422226,63.0167145 Z M23,63.0167145 L23,63.0005065 C23,61.3678035 24.2463889,60 26.0085163,60 C27.7708942,60 29,61.3505825 29,62.9840452 L29,63.0005065 C29,64.6329563 27.7538616,66 25.9914837,66 C24.2293563,66 23,64.6494175 23,63.0167145 Z" id="Fill-10" fill="#1A1919"></path>
                <polyline id="Fill-11" fill="#1A1919" points="32 60 32.9855194 60 34.5146134 63.8154986 36.0361793 60 37 60 34.8983261 65 34.1089806 65 32 60"></polyline>
                <path d="M42.9781489,63.0286482 L41.9835489,61.0427773 L40.9972372,63.0286482 L42.9781489,63.0286482 Z M41.5317092,60 L42.4682908,60 L45,65 L43.9318096,65 L43.3486123,63.8011962 L40.6277785,63.8011962 L40.0357905,65 L39,65 L41.5317092,60 Z" id="Fill-12" fill="#1A1919"></path>
                <polyline id="Fill-13" fill="#1A1919" points="48.5635523 60.8147097 47 60.8147097 47 60 51 60 51 60.8147097 49.4362326 60.8147097 49.4362326 65 48.5635523 65 48.5635523 60.8147097"></polyline>
                <polygon id="Fill-14" fill="#1A1919" points="56 65 57 65 57 60 56 60"></polygon>
                <path d="M64.9424731,63.0167145 L64.9424731,63.0005065 C64.9424731,61.8730373 64.1311681,60.9365187 62.9917342,60.9365187 C61.8528012,60.9365187 61.0577774,61.8568293 61.0577774,62.9840452 L61.0577774,63.0005065 C61.0577774,64.1277224 61.8690824,65.0556306 63.0087668,65.0556306 C64.1474493,65.0556306 64.9424731,64.1439304 64.9424731,63.0167145 Z M60,63.0167145 L60,63.0005065 C60,61.3678035 61.2463889,60 63.0087668,60 C64.7708942,60 66,61.3505825 66,62.9840452 L66,63.0005065 C66,64.6329563 64.7538616,66 62.9917342,66 C61.2293563,66 60,64.6494175 60,63.0167145 Z" id="Fill-15" fill="#1A1919"></path>
                <polyline id="Fill-16" fill="#1A1919" points="69 60 69.7472197 60 72.2064923 63.4567874 72.2064923 60 73 60 73 65 72.3245166 65 69.7935077 61.4434745 69.7935077 65 69 65 69 60"></polyline>
                <path d="M85,65.0669722 L85.5460081,64.3333333 C86.0405954,64.8171632 86.5428507,65.0919277 87.1772666,65.0919277 C87.7381597,65.0919277 88.0926928,64.7922078 88.0926928,64.3585434 L88.0926928,64.3419913 C88.0926928,63.924879 87.8854308,63.7002801 86.9262517,63.4504711 C85.8263419,63.1502419 85.2065855,62.7835498 85.2065855,61.7081742 L85.2065855,61.6918768 C85.2065855,60.6918768 85.9445196,60 86.9706811,60 C87.7235002,60 88.3209292,60.258467 88.845512,60.7336389 L88.3579161,61.5087853 C87.8930988,61.1168831 87.428507,60.9088363 86.9560217,60.9088363 C86.424673,60.9088363 86.1143437,61.2167049 86.1143437,61.5999491 L86.1143437,61.6172651 C86.1143437,62.0667176 86.3509247,62.2668704 87.3470907,62.5339954 C88.4391069,62.8337153 89,63.2752737 89,64.2424242 L89,64.2587217 C89,65.3503947 88.240415,66 87.1551646,66 C86.3655841,66 85.6197564,65.6921314 85,65.0669722" id="Fill-17" fill="#1A1919"></path>
                <polyline id="Fill-18" fill="#1A1919" points="92 60 95.9619759 60 95.9619759 60.7856831 92.939173 60.7856831 92.939173 62.0855522 95.6185922 62.0855522 95.6185922 62.8712353 92.939173 62.8712353 92.939173 64.2143169 96 64.2143169 96 65 92 65 92 60"></polyline>
                <path d="M102.036674,62.4788302 C102.628589,62.4788302 103.004982,62.150371 103.004982,61.6433872 L103.004982,61.6285465 C103.004982,61.093409 102.641738,60.8005238 102.03051,60.8005238 L100.826956,60.8005238 L100.826956,62.4788302 L102.036674,62.4788302 Z M100,60 L102.097488,60 C102.689404,60 103.153321,60.185945 103.455545,60.5002182 C103.704556,60.7717154 103.845293,61.1431689 103.845293,61.5787866 L103.845293,61.5927543 C103.845293,62.4142296 103.381376,62.9070275 102.729262,63.1075949 L104,65 L103.018337,65 L101.862448,63.2568747 L100.826956,63.2568747 L100.826956,65 L100,65 L100,60 Z" id="Fill-19" fill="#1A1919"></path>
                <polyline id="Fill-20" fill="#1A1919" points="106 60 106.985519 60 108.514613 63.8154986 110.036401 60 111 60 108.898548 65 108.108981 65 106 60"></polyline>
                <polygon id="Fill-21" fill="#1A1919" points="115 65 116 65 116 60 115 60"></polygon>
                <path d="M120,63.0167145 L120,63.0005065 C120,61.3505825 121.164351,60 122.820274,60 C123.828487,60 124.437521,60.3735438 124.961085,60.9038494 L124.343934,61.6577748 C123.906556,61.22649 123.437425,60.9365187 122.812157,60.9365187 C121.773385,60.9365187 121.008213,61.8482188 121.008213,62.9840452 L121.008213,63.0005065 C121.008213,64.1353199 121.765745,65.0556306 122.812157,65.0556306 C123.484697,65.0556306 123.913957,64.7737633 124.382849,64.309556 L125,64.9728178 C124.429404,65.6023974 123.804851,66 122.781359,66 C121.187986,66 120,64.6820868 120,63.0167145" id="Fill-22" fill="#1A1919"></path>
                <polyline id="Fill-23" fill="#1A1919" points="128 60 131.961974 60 131.961974 60.7856831 128.938995 60.7856831 128.938995 62.0855522 131.618803 62.0855522 131.618803 62.8712353 128.938995 62.8712353 128.938995 64.2143169 132 64.2143169 132 65 128 65 128 60"></polyline>
                <path d="M142.777215,60.8005238 L142.777215,64.2001309 L143.64924,64.2001309 C144.577649,64.2001309 145.184745,63.4925797 145.184745,62.5144042 L145.184745,62.5004365 C145.184745,61.5216063 144.577649,60.8005238 143.64924,60.8005238 L142.777215,60.8005238 Z M142,60 L143.64924,60 C145.039343,60 146,61.0785683 146,62.4862505 L146,62.5004365 C146,63.9072457 145.039343,65 143.64924,65 L142,65 L142,60 Z" id="Fill-24" fill="#1A1919"></path>
                <polyline id="Fill-25" fill="#1A1919" points="151 60 154.961743 60 154.961743 60.7856831 151.93894 60.7856831 151.93894 62.0855522 154.618592 62.0855522 154.618592 62.8712353 151.93894 62.8712353 151.93894 64.2143169 155 64.2143169 155 65 151 65 151 60"></polyline>
                <polyline id="Fill-26" fill="#1A1919" points="159 60 160.002116 60 160.002116 64.2001309 163 64.2001309 163 65 159 65 159 60"></polyline>
                <polygon id="Fill-27" fill="#1A1919" points="166 65 167 65 167 60 166 60"></polygon>
                <polyline id="Fill-28" fill="#1A1919" points="170 60 170.985563 60 172.514725 63.8154986 174.036358 60 175 60 172.898454 65 172.109074 65 170 60"></polyline>
                <polyline id="Fill-29" fill="#1A1919" points="178 60 181.96174 60 181.96174 60.7856831 178.938995 60.7856831 178.938995 62.0855522 181.61857 62.0855522 181.61857 62.8712353 178.938995 62.8712353 178.938995 64.2143169 182 64.2143169 182 65 178 65 178 60"></polyline>
                <path d="M188.036775,62.4788302 C188.628659,62.4788302 189.005033,62.150371 189.005033,61.6433872 L189.005033,61.6285465 C189.005033,61.093409 188.642013,60.8005238 188.030406,60.8005238 L186.827119,60.8005238 L186.827119,62.4788302 L188.036775,62.4788302 Z M186,60 L188.097586,60 C188.689471,60 189.153364,60.185945 189.455778,60.5002182 C189.704571,60.7717154 189.8453,61.1431689 189.8453,61.5787866 L189.8453,61.5927543 C189.8453,62.4142296 189.381407,62.9070275 188.729327,63.1075949 L190,65 L189.018387,65 L187.862558,63.2568747 L186.827119,63.2568747 L186.827119,65 L186,65 L186,60 Z" id="Fill-30" fill="#1A1919"></path>
                <polygon id="Fill-35" fill="#1A1919" points="77 86 78 86 78 82 77 82"></polygon>
                <g id="Group-39" transform="translate(82.000000, 82.000000)">
                    <mask id="mask-3" fill="white">
                        <use xlink:href="#path-2"></use>
                    </mask>
                    <g id="Clip-37"></g>
                    <polyline id="Fill-36" fill="#1A1919" mask="url(#mask-3)" points="0.0202083333 0.257684211 0.613333333 0.257684211 2.56354167 2.80189474 2.56354167 0.257684211 3.19333333 0.257684211 3.19333333 3.93705263 2.6575 3.93705263 0.649791667 1.31936842 0.649791667 3.93705263 0.0202083333 3.93705263 0.0202083333 0.257684211"></polyline>
                    <path d="M6.565,2.10778947 L6.565,2.09726316 C6.565,1.052 7.34,0.194736842 8.44208333,0.194736842 C9.11291667,0.194736842 9.51916667,0.430947368 9.86729167,0.767578947 L9.45666667,1.24610526 C9.165,0.972842105 8.85333333,0.789052632 8.436875,0.789052632 C7.74541667,0.789052632 7.23583333,1.36694737 7.23583333,2.08715789 L7.23583333,2.09726316 C7.23583333,2.81747368 7.74041667,3.40063158 8.436875,3.40063158 C8.88416667,3.40063158 9.17,3.22210526 9.4825,2.928 L9.89354167,3.34884211 C9.51395833,3.748 9.0975,4.00021053 8.41645833,4.00021053 C7.35541667,4.00021053 6.565,3.16442105 6.565,2.10778947" id="Fill-38" fill="#1A1919" mask="url(#mask-3)"></path>
                </g>
                <polyline id="Fill-40" fill="#1A1919" points="96 82 98.9711098 82 98.9711098 82.6289409 96.7043718 82.6289409 96.7043718 83.6689363 98.7136197 83.6689363 98.7136197 84.2971906 96.7043718 84.2971906 96.7043718 85.3717457 99 85.3717457 99 86 96 86 96 82"></polyline>
                <g id="Group-46" transform="translate(106.000000, 82.000000)">
                    <mask id="mask-5" fill="white">
                        <use xlink:href="#path-4"></use>
                    </mask>
                    <g id="Clip-42"></g>
                    <polyline id="Fill-41" fill="#1A1919" mask="url(#mask-5)" points="1.008 0.888842105 0.305170213 1.07263158 0.159957447 0.547368421 1.21397872 0.231789474 1.68804255 0.231789474 1.68804255 3.93705263 1.008 3.93705263 1.008 0.888842105"></polyline>
                    <path d="M7.61428723,1.44021053 L7.61428723,1.42989474 C7.61428723,1.04610526 7.29593617,0.752 6.79975532,0.752 C6.31452128,0.752 6.02454255,1.05705263 6.02454255,1.43494737 L6.02454255,1.44610526 C6.02454255,1.82926316 6.3366383,2.10252632 6.82187234,2.10252632 C7.3185,2.10252632 7.61428723,1.79810526 7.61428723,1.44021053 Z M7.64198936,2.24989474 C7.42484043,2.49684211 7.12346809,2.64421053 6.72201064,2.64421053 C5.89094681,2.64421053 5.33891489,2.18694737 5.33891489,1.47726316 L5.33891489,1.46673684 C5.33891489,0.746526316 5.92959574,0.194736842 6.79439362,0.194736842 C7.28476596,0.194736842 7.60334043,0.326526316 7.88170213,0.583789474 C8.16609574,0.857052632 8.35040426,1.26168421 8.35040426,1.98694737 L8.35040426,1.99747368 C8.35040426,3.17978947 7.73135106,4.00021053 6.67710638,4.00021053 C6.13624468,4.00021053 5.75712766,3.81642105 5.42782979,3.55852632 L5.8011383,3.06421053 C6.09692553,3.29621053 6.35964894,3.41178947 6.6936383,3.41178947 C7.38552128,3.41178947 7.63618085,2.73894737 7.64198936,2.24989474 Z" id="Fill-43" fill="#1A1919" mask="url(#mask-5)"></path>
                    <path d="M11.6701915,3.42736842 L13.0139681,2.35010526 C13.5492447,1.91894737 13.7442766,1.68757895 13.7442766,1.35642105 C13.7442766,0.994105263 13.4715,0.783578947 13.1145,0.783578947 C12.7575,0.783578947 12.5124255,0.967368421 12.2166383,1.33557895 L11.7260426,0.972842105 C12.0995745,0.483578947 12.4675213,0.205052632 13.164766,0.205052632 C13.9290319,0.205052632 14.4526915,0.646736842 14.4526915,1.30378947 L14.4526915,1.31431579 C14.4526915,1.89284211 14.1296489,2.20778947 13.437766,2.73894737 L12.6348511,3.36947368 L14.4920106,3.36947368 L14.4920106,3.93705263 L11.6701915,3.93705263 L11.6701915,3.42736842" id="Fill-44" fill="#1A1919" mask="url(#mask-5)"></path>
                    <path d="M20.0534362,1.27221053 L20.0534362,1.26168421 C20.0534362,0.977894737 19.7750745,0.746526316 19.3568617,0.746526316 C18.9386489,0.746526316 18.659617,0.977894737 18.659617,1.25642105 L18.659617,1.26673684 C18.659617,1.58778947 18.9551809,1.81368421 19.3568617,1.81368421 C19.7578723,1.81368421 20.0534362,1.58778947 20.0534362,1.27221053 Z M20.1763085,2.896 L20.1763085,2.88589474 C20.1763085,2.54926316 19.8195319,2.32863158 19.3568617,2.32863158 C18.8939681,2.32863158 18.5425532,2.54926316 18.5425532,2.88589474 L18.5425532,2.896 C18.5425532,3.196 18.8434787,3.448 19.3568617,3.448 C19.8695745,3.448 20.1763085,3.20147368 20.1763085,2.896 Z M17.8678723,2.93305263 L17.8678723,2.92273684 C17.8678723,2.48126316 18.1297021,2.20252632 18.5700319,2.02905263 C18.2414043,1.86631579 18.0014681,1.61936842 18.0014681,1.20905263 L18.0014681,1.19873684 C18.0014681,0.636210526 18.5753936,0.205052632 19.3568617,0.205052632 C20.1376596,0.205052632 20.7118085,0.631157895 20.7118085,1.19873684 L20.7118085,1.20905263 C20.7118085,1.61936842 20.4718723,1.86631579 20.1432447,2.02905263 C20.5726277,2.21284211 20.8460745,2.476 20.8460745,2.91242105 L20.8460745,2.92273684 C20.8460745,3.57978947 20.2100426,3.98968421 19.3568617,3.98968421 C18.503234,3.98968421 17.8678723,3.56884211 17.8678723,2.93305263 Z" id="Fill-45" fill="#1A1919" mask="url(#mask-5)"></path>
                </g>
            </g>
        </g>
    </g>
</svg>