<svg id="Layer_1" data-name="Layer 1" xmlns="http://www.w3.org/2000/svg" viewBox="0 0 24 24"><defs><style>.cls-1{fill:#238dc2;}</style></defs><title>stock-icon</title><path class="cls-1" d="M18.32,8.57a.17.17,0,0,0-.13-.19l-6-2.74-.12-.07H12L11,6,5.8,8.43a.2.2,0,0,0-.12.2v6.73a.18.18,0,0,0,.12.19l5.82,2.8.12.08h0l1.12-.52,5.3-2.42a.2.2,0,0,0,.13-.2Zm-8-1.65L12,6.19a.2.2,0,0,1,.17,0L17,8.4a.18.18,0,0,1,.08,0l-.84.4a4.11,4.11,0,0,1-.87.38c-.16,0-.33-.12-.49-.19L10.32,7l-.09,0Zm1.51,10.92-.72-.34-4.8-2.28c-.08,0-.11-.07-.11-.16q0-3.11,0-6.2V8.75l.11,0,5.4,2.47c.07,0,.11.06.11.15v6.43Zm.13-7L6.92,8.53l0,0L7,8.45c.6-.27,1.57-.74,2.17-1a.25.25,0,0,1,.17,0l4.86,2.28.1,0-.78.4-1.33.63A.25.25,0,0,1,12,10.82Zm5.69,4.32-5.17,2.44-.09,0V11.43a.17.17,0,0,1,.12-.18l2.06-1,.13-.06v1.51l.13-.06c.49-.27.26-.17.75-.43A.17.17,0,0,0,15.7,11V9.79a.16.16,0,0,1,.11-.17l1.82-.88.13-.07V9c0,2,0,4,0,6A.16.16,0,0,1,17.68,15.14Z"/><path class="cls-1" d="M12,23A11,11,0,1,1,23,12,11,11,0,0,1,12,23ZM12,1.63A10.37,10.37,0,1,0,22.37,12,10.38,10.38,0,0,0,12,1.63Z"/></svg>