<?xml version="1.0" encoding="UTF-8"?>
<svg width="82px" height="27px" viewBox="0 0 82 27" version="1.1" xmlns="http://www.w3.org/2000/svg" xmlns:xlink="http://www.w3.org/1999/xlink">
    <!-- Generator: Sketch 48.2 (47327) - http://www.bohemiancoding.com/sketch -->
    <title>LOGO // SWOOP</title>
    <desc>Created with Sketch.</desc>
    <defs></defs>
    <g id="iPhone-SE-//-HOME" stroke="none" stroke-width="1" fill="none" fill-rule="evenodd" transform="translate(-9.000000, -6.000000)">
        <g id="NAVIGATION-//-SWOOP">
            <g id="LOGO-//-SWOOP" transform="translate(9.000000, 6.000000)">
                <path d="M35.3654616,15.8020615 C35.5806322,15.7052565 35.789364,15.6569732 35.9918913,15.6569732 C36.1559033,15.6569732 36.3145302,15.6798631 36.4663671,15.724689 C36.6178528,15.7699919 36.7507247,15.8183944 36.8646317,15.8696581 C36.9785387,15.9212795 37.0923286,15.992095 37.2063526,16.0821046 C37.3702475,15.8889714 37.5100264,15.7279079 37.6239334,15.5990333 C37.7378404,15.470397 37.8544399,15.3318657 37.9746685,15.1836777 C38.0947801,15.035609 38.2056433,14.9033962 38.3067898,14.7873971 C38.0536893,14.4912596 37.7246117,14.2627187 37.3202596,14.1012975 C36.915205,13.9404724 36.5165892,13.8600003 36.1246462,13.8600003 C35.8210894,13.8600003 35.4983335,13.9082836 35.1570809,14.0049694 C34.8154771,14.1012975 34.495882,14.2559233 34.1985298,14.4686082 C33.9011776,14.6812931 33.6580278,14.9613362 33.4681439,15.3093335 C33.278377,15.6569732 33.183435,16.0887808 33.183435,16.604041 C33.183435,17.0033021 33.2561341,17.3384239 33.4017664,17.6086911 C33.5466964,17.8794351 33.7338878,18.1048764 33.9612334,18.285134 C34.1890473,18.4658685 34.4293875,18.6136988 34.6826051,18.7295787 C34.9357057,18.8454586 35.1760459,18.9552584 35.4033915,19.0581435 C35.6312055,19.1615055 35.8178115,19.2708284 35.9634438,19.3864699 C36.1084908,19.502469 36.1816582,19.650657 36.1816582,19.831153 C36.1816582,20.0502757 36.0835554,20.2404284 35.8874669,20.4011343 C35.6912612,20.562317 35.4287952,20.6426699 35.1000689,20.6426699 C34.8976587,20.6426699 34.7042627,20.6106003 34.5212857,20.5462226 C34.3377234,20.4817256 34.1795648,20.4107909 34.0465758,20.3335377 C33.9141722,20.2561652 33.8098647,20.1885686 33.7338878,20.1306286 C33.6580278,20.0725695 33.6199808,20.0502757 33.6199808,20.0629128 C33.442389,20.2561652 33.2877424,20.4237857 33.1549875,20.5655359 C33.0219985,20.7072861 32.8828049,20.8552356 32.7372896,21.0098614 C32.5917744,21.1644871 32.4625315,21.293481 32.3486246,21.3962469 C32.6012569,21.7314879 32.9587819,21.9889988 33.4207314,22.1692564 C33.8822126,22.349514 34.3724926,22.4400005 34.891337,22.4400005 C35.3591399,22.4400005 35.7830424,22.3688273 36.1626932,22.2273156 C36.5418758,22.0856846 36.8709534,21.8892133 37.1493406,21.6379018 C37.4272595,21.3865902 37.6428984,21.0903335 37.7947353,20.7488932 C37.946104,20.4079297 38.022081,20.0372809 38.022081,19.6379006 C38.022081,19.2643906 37.9492648,18.951801 37.8042178,18.7004895 C37.6582343,18.4494164 37.474789,18.233751 37.253765,18.0531358 C37.0322728,17.8729974 36.7919326,17.7218289 36.5323933,17.5990344 C36.2729711,17.4769552 36.0326309,17.3577372 35.8116069,17.2417381 C35.5901147,17.125739 35.4065524,17.0000832 35.2611542,16.8647708 C35.1155218,16.7294583 35.043291,16.5652951 35.043291,16.3720428 C35.043291,16.0887808 35.150291,15.8987473 35.3654616,15.8020615" id="Fill-1" fill="#060300"></path>
                <path d="M59.2360549,18.9482076 C59.0730296,19.2754185 58.852185,19.5638199 58.5741496,19.8140051 C58.2956114,20.063953 57.9763483,20.2629855 57.6166117,20.410272 C57.2566237,20.5579145 56.8864545,20.6314984 56.5059784,20.6314984 C56.13958,20.6314984 55.8032225,20.5675279 55.4976601,20.4392308 C55.1918463,20.3110524 54.93719,20.1346884 54.7338169,19.9101389 C54.5300667,19.6859454 54.377097,19.4229423 54.275159,19.1214858 C54.1733468,18.8201479 54.1428031,18.4961414 54.183528,18.1498224 C54.2243786,17.803622 54.3329783,17.4799716 54.5095786,17.178515 C54.6858017,16.8771771 54.9066463,16.6141741 55.1714838,16.3896245 C55.4364471,16.165431 55.7388671,15.9857439 56.0784927,15.8510379 C56.4176154,15.7163319 56.7709416,15.6489196 57.1378428,15.6489196 C57.4638933,15.6489196 57.7692044,15.7067186 58.0545301,15.8221978 C58.3398557,15.937677 58.5873475,16.0980187 58.7983879,16.3031041 C59.0084228,16.5083082 59.1749675,16.7488801 59.2971422,17.0244636 C59.4195683,17.3002845 59.4806556,17.5918903 59.4806556,17.8998745 C59.4806556,18.2719479 59.3992058,18.6213527 59.2360549,18.9482076 M60.3569951,14.975627 C60.0032918,14.6294267 59.5790741,14.3570476 59.0832108,14.1580151 C58.5873475,13.9594572 58.0408294,13.8600003 57.4434052,13.8600003 C56.7913041,13.8600003 56.1701237,13.9723938 55.5791099,14.1964686 C54.9880961,14.4208994 54.4586724,14.7256792 53.9898333,15.110333 C53.521497,15.4949868 53.1309654,15.9472904 52.8184898,16.4666502 C52.5058885,16.9860101 52.3157133,17.540975 52.2478384,18.1305956 C52.1662629,18.772081 52.2137753,19.3587345 52.3903756,19.8909121 C52.5671015,20.4232085 52.8388522,20.8787165 53.2056277,21.2566054 C53.5720261,21.6352064 54.0205027,21.9270496 54.5504292,22.1320163 C55.0798528,22.3371017 55.6640791,22.4400005 56.3021025,22.4400005 C57.0087549,22.4400005 57.6774477,22.311466 58.309312,22.0551093 C58.9410507,21.7987525 59.4907112,21.4557566 59.9596759,21.026003 C60.4278866,20.596368 60.7981815,20.0929118 61.0699322,19.5156343 C61.3416829,18.9385942 61.4774325,18.3296282 61.4774325,17.6882615 C61.4774325,17.1495562 61.3785113,16.6494231 61.1819256,16.1875062 C60.9849629,15.726064 60.7099442,15.3220647 60.3569951,14.975627" id="Fill-3" fill="#060300"></path>
                <path d="M69.16634,18.9482076 C69.0033155,19.2754185 68.7824718,19.5638199 68.5044376,19.8140051 C68.2259007,20.063953 67.906639,20.2629855 67.5469039,20.410272 C67.1869175,20.5579145 66.8167499,20.6314984 66.4361497,20.6314984 C66.0698786,20.6314984 65.7335226,20.5675279 65.4279615,20.4392308 C65.122149,20.3110524 64.8674938,20.1346884 64.6641216,19.9101389 C64.4603723,19.6859454 64.3074032,19.4229423 64.2054657,19.1214858 C64.1036539,18.8201479 64.0731104,18.4961414 64.1138351,18.1498224 C64.1545598,17.803622 64.2632848,17.4799716 64.4398843,17.178515 C64.6161067,16.8771771 64.8369503,16.6141741 65.1017867,16.3896245 C65.3667487,16.165431 65.6691675,15.9857439 66.0087916,15.8510379 C66.3479128,15.7163319 66.7012375,15.6489196 67.0681371,15.6489196 C67.3940605,15.6489196 67.6993702,15.7067186 67.9846947,15.8221978 C68.2701448,15.937677 68.5176355,16.0980187 68.728675,16.3031041 C68.938709,16.5083082 69.105253,16.7488801 69.2274271,17.0244636 C69.3498527,17.3002845 69.410814,17.5918903 69.410814,17.8998745 C69.410814,18.2719479 69.3294903,18.6213527 69.16634,18.9482076 M70.2872754,14.975627 C69.9335737,14.6294267 69.5093578,14.3570476 69.0133709,14.1580151 C68.5176355,13.9594572 67.9711198,13.8600003 67.3736982,13.8600003 C66.7215999,13.8600003 66.1004222,13.9723938 65.509411,14.1964686 C64.9183997,14.4208994 64.3889784,14.7256792 63.9201413,15.110333 C63.451807,15.4949868 63.0612771,15.9472904 62.7488028,16.4666502 C62.4362029,16.9860101 62.2460285,17.540975 62.1780283,18.1305956 C62.0965788,18.772081 62.144091,19.3587345 62.3206905,19.8909121 C62.4974157,20.4232085 62.7691652,20.8787165 63.135939,21.2566054 C63.5023358,21.6352064 63.9506848,21.9270496 64.480609,22.1320163 C65.0100304,22.3371017 65.5943798,22.4400005 66.2324004,22.4400005 C66.9389241,22.4400005 67.6077396,22.311466 68.2394756,22.0551093 C68.8713372,21.7987525 69.4209952,21.4557566 69.889958,21.026003 C70.3581666,20.596368 70.7284599,20.0929118 71.0002094,19.5156343 C71.2718332,18.9385942 71.407708,18.3296282 71.407708,17.6882615 C71.407708,17.1495562 71.3086614,16.6494231 71.1122024,16.1875062 C70.9151148,15.726064 70.6400973,15.3220647 70.2872754,14.975627" id="Fill-5" fill="#060300"></path>
                <path d="M79.7370372,19.003314 C79.6069236,19.3495218 79.4246924,19.6566845 79.1905843,19.9243187 C78.9568373,20.1921945 78.6706116,20.4012006 78.3322682,20.5513368 C77.9940452,20.7015939 77.6167039,20.7765411 77.2008461,20.7765411 C76.4981607,20.7765411 75.9450879,20.5611283 75.5422294,20.12994 C75.1390098,19.6989935 74.9377611,19.1570767 74.9377611,18.5037061 C74.9377611,18.1116838 75.0120257,17.74275 75.1616382,17.396784 C75.3112508,17.050697 75.5129809,16.7534467 75.7668287,16.5051538 C76.0204358,16.2571026 76.323031,16.061031 76.6738923,15.9174225 C77.0251146,15.7735722 77.4084741,15.7017679 77.8248134,15.7017679 C78.5008983,15.7017679 79.0214728,15.907631 79.3856945,16.3189945 C79.7499161,16.730479 79.9321473,17.2565601 79.9321473,17.8963918 C79.9321473,18.2881724 79.8666692,18.6575897 79.7370372,19.003314 M81.7365249,16.0742072 C81.5612748,15.6037321 81.3076677,15.2054239 80.975824,14.878799 C80.6439803,14.5525368 80.2472604,14.3007383 79.7857846,14.1243706 C79.3238273,13.9482446 78.8067434,13.8600003 78.2347734,13.8600003 C77.8834307,13.8600003 77.5548368,13.9024301 77.2495935,13.9874106 C76.9437485,14.0722702 76.6672722,14.1768336 76.4200445,14.3007383 C76.1729371,14.4251265 75.9585687,14.5623283 75.7765782,14.7123436 C75.594347,14.8626007 75.4447345,15.0030663 75.3276203,15.1334987 C75.3536189,14.9767139 75.3602389,14.8071156 75.3469989,14.6240993 C75.3341199,14.4412039 75.34074,14.2585503 75.3664979,14.075534 L73.5721105,14.075534 L72.0697263,26.4000006 L73.9423504,26.4000006 L74.5084225,21.7955816 C74.5209404,21.7301841 74.5245513,21.6749408 74.518172,21.6290054 C74.5111909,21.5834326 74.5148018,21.5343543 74.5279215,21.4818912 C74.6710344,21.7562948 74.9698983,22.0143791 75.4252355,22.2559026 C75.8805728,22.4974261 76.4265441,22.6185505 77.0641125,22.6185505 C77.7663164,22.6185505 78.420134,22.4941623 79.0246023,22.2461111 C79.6295521,21.99806 80.1497655,21.6552369 80.5856038,21.2175209 C81.021442,20.7799258 81.3661647,20.2573503 81.6200125,19.650036 C81.8732584,19.04248 82.0000018,18.3799223 82.0000018,17.6610334 C82.0000018,17.0733021 81.9122564,16.5443197 81.7365249,16.0742072" id="Fill-7" fill="#060300"></path>
                <path d="M50.3264511,13.8600003 C49.7589365,14.8731688 49.3093844,15.6874532 48.9776748,16.3033603 C48.8754167,16.4929969 48.7828689,16.6678122 48.6949964,16.8354068 L47.4925943,18.9326833 L47.4069996,18.6495585 C47.3628835,18.4310395 47.2932329,18.1510817 47.1943315,17.8023379 C47.0858396,17.4193911 46.9349099,16.9193941 46.7419022,16.3033603 C46.6039197,15.8636619 46.4252976,15.3209745 46.2075945,14.6790985 L45.9600411,13.8600003 L45.9868944,14.0336755 C45.9669942,13.9756571 45.9476934,13.9192855 45.9271938,13.8600003 L44.0443496,13.8600003 C44.3513638,14.7625791 44.6468694,15.6576839 44.9357815,16.5489884 L44.74661,15.9665242 L43.046224,18.9326833 L43.0446655,18.9274895 C43.032198,18.8566766 43.0203298,18.784977 43.0073827,18.7160643 C42.9648251,18.4903246 42.88966,18.1857914 42.7809283,17.8023379 C42.6721966,17.4193911 42.5213869,16.9193941 42.328499,16.3033603 C42.1351317,15.6874532 41.8636022,14.8731688 41.5135509,13.8600003 L39.6308266,13.8600003 C40.1618975,15.4205432 40.6656356,16.9639847 41.1427603,18.4903246 C41.6192856,20.0167913 42.1411257,21.5531388 42.7085204,23.1000005 C43.5775347,21.5531388 44.4253301,20.0167913 45.2521464,18.4903246 C45.3152035,18.3737811 45.3804186,18.2554641 45.4438354,18.1387939 C45.3106481,17.7156903 45.1714667,17.2887864 45.0343234,16.8632759 L45.035642,16.8611224 C45.2110273,17.4053299 45.3873716,17.9501708 45.5560436,18.4903246 C46.0329285,20.0167913 46.5545289,21.5531388 47.1220435,23.1000005 C47.9910577,21.5531388 48.8387332,20.0167913 49.6654297,18.4903246 C50.4921261,16.9639847 51.340401,15.4205432 52.2091755,13.8600003 L50.3264511,13.8600003 Z" id="Fill-9" fill="#060300"></path>
                <g id="Icon">
                    <polygon id="Fill-1" fill="#060300" points="6.73340367 18.0722316 6.88346116 16.5099154 0 15.6359449"></polygon>
                    <polygon id="Fill-2" fill="#238DC1" points="7.50170229 18.3502721 18.6921758 22.3990588 9.17141162 2.12611765"></polygon>
                    <polygon id="Fill-3" fill="#3CACC6" points="8.94008009 1.65515824 8.95134644 1.65645424 8.94192171 1.63733824"></polygon>
                    <polygon id="Fill-4" fill="#060300" points="17.57834 17.8678235 19.4494759 21.8497721 23.2176455 18.5837426"></polygon>
                    <polygon id="Fill-5" fill="#060300" points="22.1314126 20.7549596 25.5519347 21.9925699 25.5519347 21.9924596 23.8654931 19.2504375"></polygon>
                    <polygon id="Fill-6" fill="#E1251B" points="5.09484619 9.92647059e-05 5.98762433 15.449989 6.89074023 15.5644743 7.86824543 6.06550368"></polygon>
                </g>
            </g>
        </g>
    </g>
</svg>