<?xml version="1.0" encoding="UTF-8"?>
<svg width="264px" height="204px" viewBox="0 0 264 204" version="1.1" xmlns="http://www.w3.org/2000/svg" xmlns:xlink="http://www.w3.org/1999/xlink">
    <!-- Generator: Sketch 49 (51002) - http://www.bohemiancoding.com/sketch -->
    <title>talon-logo-bg</title>
    <desc>Created with Sketch.</desc>
    <defs>
        <filter x="-7.5%" y="-10.0%" width="115.0%" height="120.0%" filterUnits="objectBoundingBox" id="filter-1">
            <feOffset dx="0" dy="0" in="SourceAlpha" result="shadowOffsetOuter1"></feOffset>
            <feGaussianBlur stdDeviation="6" in="shadowOffsetOuter1" result="shadowBlurOuter1"></feGaussianBlur>
            <feColorMatrix values="0 0 0 0 0   0 0 0 0 0   0 0 0 0 0  0 0 0 0.15 0" type="matrix" in="shadowBlurOuter1" result="shadowMatrixOuter1"></feColorMatrix>
            <feMerge>
                <feMergeNode in="shadowMatrixOuter1"></feMergeNode>
                <feMergeNode in="SourceGraphic"></feMergeNode>
            </feMerge>
        </filter>
        <polygon id="path-2" points="0 0 113 0 113 40 0 40"></polygon>
    </defs>
    <g id="Page-1" stroke="none" stroke-width="1" fill="none" fill-rule="evenodd">
        <g id="talon-logo-bg" filter="url(#filter-1)" transform="translate(12.000000, 12.000000)">
            <rect id="Path" fill="#F9F9F9" x="0" y="0" width="240" height="180" rx="3"></rect>
            <g id="Talon-logo_Final" transform="translate(64.000000, 70.000000)">
                <mask id="mask-3" fill="white">
                    <use xlink:href="#path-2"></use>
                </mask>
                <g id="Clip-2"></g>
                <path d="M72.1658036,35.800571 C69.9752818,35.800571 68.4343268,33.5908683 68.4343268,29.6343362 C68.4343268,23.8794542 71.8415248,18.2269032 75.2486219,18.2269032 C77.9253095,18.2269032 79.3045792,20.1282942 79.3045792,24.5470911 C79.3045792,31.1758949 75.7348886,35.800571 72.1658036,35.800571 Z M38.5821091,29.2520905 C35.6628937,32.4844957 34.2927073,33.4424933 33.3990988,33.4424933 C32.0883586,33.4424933 30.1368321,31.8859247 30.1368321,29.2520905 C30.1368321,22.7865702 34.7424385,18.260067 40.8189564,18.260067 L38.5821091,29.2520905 Z M109.723906,14.0640862 C106.804085,14.0640862 103.230257,16.9374705 97.6298119,24.0016633 L97.5111216,23.8819896 C98.1068943,21.4874013 98.4643781,19.3323631 98.4643781,17.8954681 C98.4643781,15.4409416 97.332077,14.0640862 95.3662189,14.0640862 C92.7546292,14.0640862 89.7579018,16.266284 86.0753747,20.9392352 C85.4631509,16.6815921 82.6527349,14.0828486 78.4565897,14.0828486 C70.41381,14.0828486 61.5371706,21.9851625 61.5371706,31.5034761 C61.5371706,31.5631101 61.5375744,31.6225412 61.5383818,31.6817695 C59.7988023,33.5436073 58.6210839,34.3531285 57.7502849,34.3531285 C57.016444,34.3531285 56.6602722,33.7549632 57.0807345,31.5030704 L63.3190386,0 L55.7623238,0 L50.3706972,26.7042591 C50.2902583,27.1164232 50.2067916,27.5353823 50.1166637,27.9856797 C48.6436327,31.2345147 45.926776,33.6269732 45.1659876,33.6269732 C44.6947589,33.6269732 44.5735455,33.0399639 44.8019435,31.7525595 L48.3312633,14.1849769 L45.8289777,14.1849769 C33.4185777,14.1849769 24.0434594,22.680588 22.5171389,31.0880666 C21.2255747,32.4810474 19.8208714,33.8331567 18.673633,33.8331567 C17.9339383,33.8331567 17.5791795,33.2235311 18.0152855,30.9284342 L22.8749254,6.93985386 L37.5759668,6.93985386 L38.9485754,0.142898435 L1.37704936,0.142999853 L0,6.93985386 L14.3885711,6.93985386 L9.05487665,34.6503856 C8.98362212,35.2380035 8.94163645,35.7560483 8.94163645,36.1686181 C8.94163645,38.6228404 10.1927288,40 12.4563218,40 C15.9217547,40 19.6117504,37.7163633 22.4413426,35.0487569 C22.9725219,37.9122021 24.9133501,39.9865114 27.2416373,39.9865114 C29.0288544,39.9865114 31.5168084,39.1270924 36.6998187,33.799283 L36.8192154,33.919058 C36.6403726,34.9967293 36.5621541,35.8557426 36.5621541,36.8136387 C36.5621541,38.849409 37.6674068,39.9865114 39.8121077,39.9865114 C42.6475536,39.9865114 46.4254569,36.9628251 49.0255408,34.0350806 L49.0118147,34.0533359 C48.9012995,34.8488613 48.8216681,35.5768421 48.8216681,36.102899 C48.8216681,38.5572228 50.0727604,39.9342809 52.3364543,39.9342809 C54.9883139,39.9342809 58.9201309,37.8284306 62.0028483,34.654341 C63.0248361,37.9000319 65.6645844,39.9444228 69.1628186,39.9444228 C75.3606509,39.9444228 84.7453574,34.3142853 86.0487299,24.9732509 C87.3622961,22.9940721 88.9923697,21.3215823 89.5700765,21.3215823 C89.8678114,21.3215823 90.225497,21.6208678 90.225497,22.0998666 C90.225497,22.3991521 90.1058984,23.3570483 89.9275602,24.075293 L89.0641289,28.1116413 L89.069478,28.1116413 L86.692342,39.2081256 L94.3106224,39.2081256 L96.3785177,29.4657789 C100.164495,24.4165657 102.357237,21.9797873 103.484593,21.9201533 C103.782328,21.9201533 104.080063,22.2794785 104.080063,22.7583759 C104.080063,23.0876812 104.079054,23.3078604 103.923626,24.0344214 L100.398646,39.2292207 L107.978877,39.2292207 C107.978877,39.2292207 113,21.0443046 113,17.5362444 C113,15.8002667 111.987701,14.0640862 109.723906,14.0640862 Z" id="Fill-1" fill="#1B1A19" mask="url(#mask-3)"></path>
            </g>
        </g>
    </g>
</svg>