<?xml version="1.0" encoding="UTF-8"?>
<svg width="264px" height="204px" viewBox="0 0 264 204" version="1.1" xmlns="http://www.w3.org/2000/svg" xmlns:xlink="http://www.w3.org/1999/xlink">
    <!-- Generator: Sketch 48.2 (47327) - http://www.bohemiancoding.com/sketch -->
    <title>Tesco</title>
    <desc>Created with Sketch.</desc>
    <defs>
        <filter x="-7.5%" y="-10.0%" width="115.0%" height="120.0%" filterUnits="objectBoundingBox" id="filter-1">
            <feOffset dx="0" dy="0" in="SourceAlpha" result="shadowOffsetOuter1"></feOffset>
            <feGaussianBlur stdDeviation="6" in="shadowOffsetOuter1" result="shadowBlurOuter1"></feGaussianBlur>
            <feColorMatrix values="0 0 0 0 0   0 0 0 0 0   0 0 0 0 0  0 0 0 0.15 0" type="matrix" in="shadowBlurOuter1" result="shadowMatrixOuter1"></feColorMatrix>
            <feMerge>
                <feMergeNode in="shadowMatrixOuter1"></feMergeNode>
                <feMergeNode in="SourceGraphic"></feMergeNode>
            </feMerge>
        </filter>
    </defs>
    <g id="iPhone-SE-//-COLATERAL" stroke="none" stroke-width="1" fill="none" fill-rule="evenodd" transform="translate(-28.000000, -3348.000000)">
        <g id="CLIENTS-//-SWOOP" transform="translate(0.000000, 2740.000000)">
            <g id="Tesco" filter="url(#filter-1)" transform="translate(40.000000, 620.000000)">
                <rect id="Rectangle-Copy-5" fill="#F9F9F9" x="0" y="0" width="240" height="180" rx="3"></rect>
                <path d="M70.9339722,100.524721 L85.1118409,100.524721 C85.2774934,100.524721 85.2774934,100.607043 85.1118409,100.689365 C83.5368166,101.430919 81.2150308,103.738564 81.2150308,103.738564 C79.6400065,105.304654 78.3962873,106.293174 75.6597076,106.293174 L62.0622854,106.293174 C61.9794591,106.293174 61.9794591,106.12853 62.0622854,106.12853 C63.5544833,105.304654 65.7934429,102.997009 65.7934429,102.997009 C66.7051944,101.925509 68.6121864,100.524721 70.9339722,100.524721" id="Fill-1" fill="#00539F"></path>
                <path d="M164.128429,100.524721 L178.389786,100.524721 C178.472612,100.524721 178.472612,100.607043 178.389786,100.689365 C176.731936,101.430919 174.492976,103.738564 174.492976,103.738564 C172.835126,105.304654 171.591406,106.293174 168.937653,106.293174 L155.339568,106.293174 C155.256742,106.293174 155.256742,106.12853 155.339568,106.12853 C156.831766,105.304654 159.070726,102.997009 159.070726,102.997009 C159.98314,101.925509 161.807305,100.524721 164.128429,100.524721" id="Fill-4" fill="#00539F"></path>
                <path d="M94.2324041,100.524721 L108.410935,100.524721 C108.576588,100.524721 108.576588,100.607043 108.410935,100.689365 C106.835911,101.430919 104.514125,103.738564 104.514125,103.738564 C102.938438,105.304654 101.694719,106.293174 98.9588021,106.293174 L85.4435435,106.293174 C85.277891,106.293174 85.277891,106.12853 85.3607172,106.12853 C86.8535778,105.304654 89.0918748,102.997009 89.0918748,102.997009 C90.0042889,101.925509 91.9112809,100.524721 94.2324041,100.524721" id="Fill-7" fill="#00539F"></path>
                <path d="M117.531167,100.524721 L131.709699,100.524721 C131.875351,100.524721 131.875351,100.607043 131.709699,100.689365 C130.134012,101.430919 127.812226,103.738564 127.812226,103.738564 C126.237202,105.304654 124.993482,106.293174 122.340392,106.293174 L108.742307,106.293174 C108.65948,106.293174 108.65948,106.12853 108.65948,106.12853 C110.235167,105.304654 112.390638,102.997009 112.390638,102.997009 C113.303052,101.925509 115.210044,100.524721 117.531167,100.524721" id="Fill-10" fill="#00539F"></path>
                <path d="M140.830262,100.524721 L155.090957,100.524721 C155.173783,100.524721 155.173783,100.607043 155.00813,100.689365 C153.433106,101.430919 151.11132,103.738564 151.11132,103.738564 C149.536296,105.304654 148.292577,106.293174 145.638823,106.293174 L132.040739,106.293174 C131.957912,106.293174 131.957912,106.12853 132.040739,106.12853 C133.533599,105.304654 135.771896,102.997009 135.771896,102.997009 C136.601484,101.925509 138.508476,100.524721 140.830262,100.524721" id="Fill-13" fill="#00539F"></path>
                <path d="M144.727006,73.0002634 C135.77183,73.0002634 129.803038,77.6148941 129.803038,84.6201498 C129.803038,91.0471772 135.274872,95.3325207 143.40046,95.3325207 C146.053551,95.3325207 148.375337,95.0032335 151.111254,94.2610201 L151.111254,88.9048347 C149.204262,91.0471772 146.882476,91.8710537 144.395038,91.8710537 C139.586476,91.8710537 136.26945,88.7395325 136.26945,84.1255604 C136.26945,79.592593 139.669303,76.2964282 144.477864,76.2964282 C147.048791,76.2964282 149.121436,77.2856069 150.779949,79.0156818 L150.779949,73.576516 C149.03861,73.2472288 146.882476,73.0002634 144.727006,73.0002634" id="Fill-16" fill="#EF1C2F"></path>
                <path d="M77.8985346,76.7909517 C81.2148983,76.7909517 85.1951972,77.4501847 86.8537104,78.8509724 L86.8537104,73.7417523 L63.305872,73.7417523 L63.305872,78.8509724 C64.9637225,77.4501847 68.5292276,76.8732735 72.3432114,76.8732735 L72.3432114,90.8824677 C72.3432114,92.9424884 72.1775589,93.5193995 71.3486336,94.5909001 L78.893775,94.5909001 C78.0641872,93.5193995 77.8985346,92.9424884 77.8985346,90.8824677 L77.8985346,76.7909517 Z" id="Fill-18" fill="#EF1C2F"></path>
                <path d="M101.943331,81.8177182 C100.616785,82.3123076 98.1293467,82.3946294 96.8856275,82.3946294 L94.8958094,82.3946294 L94.8958094,76.8731418 L97.5489003,76.8731418 C99.9535124,76.8731418 104.015975,77.3677311 105.591662,78.7685189 L105.591662,73.7416206 L88.4287346,73.7416206 C89.2576599,74.7301408 89.4233124,75.3900323 89.4233124,77.3677311 L89.4233124,90.8829946 C89.4233124,92.9430152 89.2576599,93.5199264 88.5115609,94.5914269 L106.752555,94.5914269 L106.752555,89.4822069 C104.265116,91.3775839 99.4558922,91.3775839 97.5489003,91.3775839 L94.8958094,91.3775839 L94.8958094,85.5261506 L96.8028013,85.5261506 C98.1293467,85.5261506 100.533959,85.6907942 101.943331,86.1853835 L101.943331,81.8177182 Z" id="Fill-20" fill="#EF1C2F"></path>
                <path d="M127.398227,74.4010511 C124.661647,73.4941942 121.096805,73.0002634 118.360225,73.0002634 C113.386011,73.0002634 108.576787,74.5656947 108.576787,79.8402169 C108.576787,88.9048347 123.500754,84.1255604 123.500754,89.7287113 C123.500754,91.5417665 120.847663,92.2833213 118.692193,92.2833213 C114.877546,92.2833213 112.225118,91.6240883 108.908092,89.4817459 L108.908092,94.0963765 C111.39553,94.9209117 114.79472,95.4148425 118.443051,95.4148425 C123.583581,95.4148425 128.392805,93.931733 128.392805,88.5748889 C128.392805,79.0156818 113.551663,83.3010253 113.551663,78.6863946 C113.551663,76.7910176 115.955613,76.1317846 118.02892,76.1317846 C121.510936,76.1317846 125.32492,77.2026265 127.398227,79.2633058 L127.398227,74.4010511 Z" id="Fill-22" fill="#EF1C2F"></path>
                <path d="M165.123603,91.9542317 C160.811999,91.9542317 158.076082,88.4927647 158.076082,84.2074212 C158.076082,79.9220777 160.811999,76.4612694 165.123603,76.4612694 C169.352381,76.4612694 172.171124,79.9220777 172.171124,84.2074212 C172.171124,88.4927647 169.352381,91.9542317 165.123603,91.9542317 M165.704049,73.3297482 C157.661288,73.3297482 151.940312,77.9450374 151.940312,84.4543866 C151.940312,90.8827311 157.080841,95.0857528 164.625983,95.0857528 C172.75157,95.0857528 178.38972,90.6357658 178.38972,84.0427776 C178.38972,77.6150917 173.249191,73.3297482 165.704049,73.3297482" id="Fill-24" fill="#EF1C2F"></path>
            </g>
        </g>
    </g>
</svg>