<?xml version="1.0" encoding="UTF-8"?>
<svg width="24px" height="25px" viewBox="0 0 24 25" version="1.1" xmlns="http://www.w3.org/2000/svg" xmlns:xlink="http://www.w3.org/1999/xlink">
    <!-- Generator: Sketch 48.2 (47327) - http://www.bohemiancoding.com/sketch -->
    <title>twitter-logo</title>
    <desc>Created with Sketch.</desc>
    <defs>
        <polygon id="path-1" points="0 0.212798507 23.7918078 0.212798507 23.7918078 24.0046318 0 24.0046318"></polygon>
    </defs>
    <g id="iPhone-SE-//-HOME" stroke="none" stroke-width="1" fill="none" fill-rule="evenodd" transform="translate(-148.000000, -6103.000000)">
        <g id="FOOTER-//-SWOOP" transform="translate(0.000000, 6080.000000)">
            <g id="twitter-logo" transform="translate(148.000000, 23.000000)">
                <path d="M17.1061092,7.57358902 C16.6541071,7.84479028 16.1724823,8.05546923 15.6303351,8.14586966 C15.2087218,7.69412291 14.6063077,7.39278818 13.943882,7.39278818 C12.6787869,7.39278818 11.6248814,8.44694903 11.6248814,9.77205578 C11.6248814,9.95285662 11.6550148,10.1334021 11.684893,10.3142029 C9.75762746,10.2238025 8.07117439,9.26004209 6.92686849,7.84479028 C6.7156788,8.2061366 6.62553375,8.5976164 6.62553375,9.04936314 C6.62553375,9.8624562 7.04714701,10.5851488 7.64956112,11.0371509 C7.25808133,11.0371509 6.92686849,10.9163617 6.59540027,10.7358162 L6.59540027,10.7659497 C6.59540027,11.9102556 7.37835986,12.874016 8.46265419,13.0849503 C8.28185334,13.1449619 8.07117439,13.1753508 7.86049544,13.1753508 C7.70982807,13.1753508 7.5591607,13.1753508 7.43888218,13.1449619 C7.73970618,14.0788442 8.58318808,14.7714034 9.60721546,14.8015369 C8.8240005,15.4338291 7.83036197,15.8253089 6.74606764,15.8253089 C6.56552217,15.8253089 6.38472132,15.8253089 6.20417585,15.7954308 C7.22794786,16.4578565 8.43252071,16.8493363 9.75788283,16.8493363 C14.004149,16.8493363 16.3532831,13.2353623 16.3532831,10.1032686 L16.3532831,9.80218925 C16.8047745,9.47097641 17.1965096,9.04936314 17.497589,8.56748292 C17.0759757,8.74828377 16.6239736,8.89869577 16.1724823,8.92882924 C16.5639621,8.56748292 16.9253084,8.11573618 17.1061092,7.57358902" id="Fill-1" fill="#FFFFFF"></path>
                <g id="Group-5" transform="translate(0.000000, 0.042519)">
                    <mask id="mask-2" fill="white">
                        <use xlink:href="#path-1"></use>
                    </mask>
                    <g id="Clip-4"></g>
                    <path d="M11.8959805,1.11629199 C5.84247201,1.11629199 0.903391335,6.05537267 0.903391335,12.1086258 C0.903391335,18.1621343 5.84247201,23.1012149 11.8959805,23.1012149 C17.9492336,23.1012149 22.8883143,18.1621343 22.8883143,12.1086258 C22.8883143,6.05537267 17.9492336,1.11629199 11.8959805,1.11629199 M11.8959805,24.0047084 C5.33045832,24.0047084 -0.000102147369,18.6741479 -0.000102147369,12.1086258 C-0.000102147369,5.54335898 5.33045832,0.212798507 11.8959805,0.212798507 C18.4612473,0.212798507 23.7918078,5.54335898 23.7918078,12.1086258 C23.7918078,18.6741479 18.4612473,24.0047084 11.8959805,24.0047084" id="Fill-3" fill="#FFFFFF" mask="url(#mask-2)"></path>
                </g>
            </g>
        </g>
    </g>
</svg>