<?xml version="1.0" encoding="UTF-8"?>
<svg width="264px" height="204px" viewBox="0 0 264 204" version="1.1" xmlns="http://www.w3.org/2000/svg" xmlns:xlink="http://www.w3.org/1999/xlink">
    <!-- Generator: Sketch 48.2 (47327) - http://www.bohemiancoding.com/sketch -->
    <title>Whsmiths</title>
    <desc>Created with Sketch.</desc>
    <defs>
        <filter x="-7.5%" y="-10.0%" width="115.0%" height="120.0%" filterUnits="objectBoundingBox" id="filter-1">
            <feOffset dx="0" dy="0" in="SourceAlpha" result="shadowOffsetOuter1"></feOffset>
            <feGaussianBlur stdDeviation="6" in="shadowOffsetOuter1" result="shadowBlurOuter1"></feGaussianBlur>
            <feColorMatrix values="0 0 0 0 0   0 0 0 0 0   0 0 0 0 0  0 0 0 0.15 0" type="matrix" in="shadowBlurOuter1" result="shadowMatrixOuter1"></feColorMatrix>
            <feMerge>
                <feMergeNode in="shadowMatrixOuter1"></feMergeNode>
                <feMergeNode in="SourceGraphic"></feMergeNode>
            </feMerge>
        </filter>
    </defs>
    <g id="iPhone-SE-//-COLATERAL" stroke="none" stroke-width="1" fill="none" fill-rule="evenodd" transform="translate(-28.000000, -2908.000000)">
        <g id="CLIENTS-//-SWOOP" transform="translate(0.000000, 2740.000000)">
            <g id="Whsmiths" filter="url(#filter-1)" transform="translate(40.000000, 180.000000)">
                <rect id="Rectangle" fill="#F9F9F9" x="0" y="0" width="240" height="180" rx="3"></rect>
                <path d="M59.099109,105.218489 L50.0721481,81.0261977 L49.9945639,81.0261977 L42.0617399,105.218489 L41.031925,105.218489 L33.8179157,82.3636206 L33.1508238,80.1413207 C32.244348,77.1736895 31.3829638,76.2888124 29.3107349,76.199477 L28.9997348,76.1551354 L28.9997348,75.1744021 L40.177172,75.1744021 L40.177172,76.1551354 C40.0863254,76.199477 39.9895109,76.199477 39.8986644,76.199477 C37.6513735,76.371627 37.0167741,76.7726583 37.0167741,77.9698832 C37.0167741,78.4152561 37.1593435,79.1671082 37.4245888,79.9183082 L37.9756359,81.6502415 L43.233461,98.7041765 L43.3243075,98.7041765 L51.0820696,75.1744021 L52.2929144,75.1744021 L61.0353997,98.7041765 L61.1262462,98.7041765 L65.5876723,83.1598144 L66.17718,81.294204 C66.3907025,80.5423519 66.5332718,79.7018165 66.5332718,78.9884374 C66.5332718,77.0843541 65.4968258,76.1551354 63.4119977,76.1551354 L63.4119977,75.1744021 L71.5842056,75.1744021 L71.5842056,76.1551354 C70.1399449,76.2888124 69.3694073,76.6898437 68.6963473,77.7083978 C68.0226242,78.766077 67.6599013,79.7846311 66.66921,83.1154727 L60.0831691,105.218489 L59.099109,105.218489" id="Fill-1" fill="#01478D"></path>
                <path d="M79.2774467,89.8015438 L79.2774467,96.8825165 C79.2774467,103.129475 79.5108626,103.537027 83.072444,103.537027 L83.8363504,103.537027 L83.8363504,104.511891 L70.4056544,104.511891 L70.4056544,103.537027 L71.1695608,103.537027 C74.7835281,103.537027 74.9579269,103.129475 74.9579269,96.8825165 L74.9579269,82.4910377 C74.9579269,78.5935357 74.9128352,77.9186295 74.4658969,77.1289566 C73.922144,76.3268941 73.4234828,76.1547441 70.9494072,76.1547441 L70.4056544,76.1547441 L70.4056544,75.1740108 L83.8363504,75.1740108 L83.8363504,76.1547441 L83.2925976,76.1547441 C80.818522,76.1547441 80.2747691,76.3268941 79.8211996,77.1289566 C79.3291696,77.969492 79.2774467,78.5935357 79.2774467,82.4910377 L79.2774467,88.292623 L94.8712183,88.292623 L94.8712183,82.4910377 C94.8712183,78.5935357 94.7803718,77.9186295 94.3268023,77.1289566 C93.8347723,76.3268941 93.3036185,76.1547441 90.8626986,76.1547441 L90.0464062,76.1547441 L90.0464062,75.1740108 L103.61304,75.1740108 L103.61304,76.1547441 L103.160134,76.1547441 C100.731813,76.1547441 100.148937,76.3268941 99.6953673,77.1289566 C99.2417978,77.969492 99.1516144,78.5935357 99.1516144,82.4910377 L99.1516144,96.8825165 C99.1516144,103.129475 99.377736,103.537027 102.933349,103.537027 L103.61304,103.537027 L103.61304,104.511891 L90.0464062,104.511891 L90.0464062,103.537027 L91.0888202,103.537027 C94.6444336,103.537027 94.8712183,103.129475 94.8712183,96.8825165 L94.8712183,89.8015438 L79.2774467,89.8015438" id="Fill-4" fill="#01478D"></path>
                <path d="M108.275721,94.7558772 L109.408982,94.7558772 C110.030319,98.041725 110.98255,100.035144 112.511026,101.589058 C114.04547,103.180794 116.033483,103.976987 118.280774,103.976987 C122.062509,103.976987 124.853553,101.537544 124.853553,98.2582167 C124.853553,95.513598 123.104923,93.6095147 118.824527,91.8391085 L116.791422,90.9985731 C113.054779,89.4003169 111.16358,88.1587503 109.985227,86.528542 C109.085383,85.2354608 108.540967,83.5100483 108.540967,81.9561338 C108.540967,77.746936 111.837303,74.6521485 116.337852,74.6521485 C119.271466,74.6521485 121.162665,75.4926839 123.325077,77.746936 C124.043892,76.8620589 124.368154,76.1995422 124.458338,75.1744673 L125.443061,75.1744673 L125.443061,82.8416629 L124.458338,82.8416629 C123.325077,78.3644589 120.353003,75.6707027 116.571268,75.6707027 C113.455962,75.6707027 111.422857,77.4861026 111.422857,80.275063 C111.422857,81.8289775 112.42681,83.3763712 114.091225,84.5286025 C115.217854,85.2869753 116.072607,85.7258274 118.54602,86.7893753 C122.062509,88.336769 122.600294,88.610644 124.005431,89.4003169 C124.950368,89.9734982 125.760029,90.6803565 126.342905,91.4445981 C127.476166,92.9026564 128.019919,94.628721 128.019919,96.8445001 C128.019919,101.626879 124.134738,105.039883 118.636866,105.039883 C115.398884,105.039883 112.646964,103.798317 110.483889,101.366046 C109.946767,102.117246 109.674227,102.91996 109.408982,104.199348 L108.275721,104.199348 L108.275721,94.7558772" id="Fill-6" fill="#01478D"></path>
                <path d="M135.75865,86.0826474 C136.212219,87.1396745 136.386618,88.2097432 136.386618,89.444789 L136.386618,89.8014786 L136.477464,89.8014786 C138.374631,87.3242141 140.628553,86.0826474 143.108597,86.0826474 C146.164886,86.0826474 148.068684,87.4070286 148.787499,90.0688327 C151.397513,87.0503391 153.152111,86.0826474 155.943154,86.0826474 C157.750138,86.0826474 159.641337,86.9231828 160.49609,88.0819349 C161.305088,89.1389619 161.441026,89.8014786 161.441026,93.1257993 L161.441026,98.4428867 C161.441026,101.945226 161.441026,102.161718 161.713566,102.645564 C162.114749,103.314601 162.704257,103.537614 164.102763,103.537614 L164.420394,103.537614 L164.420394,104.511826 L155.406033,104.511826 L155.406033,103.537614 L155.587062,103.537614 C157.789262,103.537614 158.242168,103.047247 158.242168,100.74148 L158.242168,92.5460973 C158.242168,88.8272661 157.394046,87.636562 154.58974,87.636562 C152.699204,87.636562 150.898852,88.865739 148.917469,91.4447285 L148.917469,98.4428867 C148.917469,101.983699 148.917469,102.161718 149.234437,102.645564 C149.552069,103.263739 150.225129,103.537614 151.397513,103.537614 L151.533451,103.537614 L151.533451,104.511826 L142.830089,104.511826 L142.830089,103.537614 L143.056874,103.537614 C145.265041,103.537614 145.71198,103.047247 145.71198,100.74148 L145.763703,98.4428867 L145.763703,93.5203097 C145.763703,88.8272661 144.941442,87.5856995 141.936213,87.5856995 C140.136523,87.5856995 138.873293,88.3368994 136.626665,90.8265535 C136.574279,90.8650265 136.477464,90.9543619 136.386618,91.0371765 L136.386618,98.4428867 C136.386618,101.983699 136.386618,102.161718 136.71088,102.645564 C137.066972,103.263739 137.701571,103.537614 138.964139,103.537614 L139.177662,103.537614 L139.177662,104.511826 L130.357592,104.511826 L130.357592,103.537614 L130.578409,103.537614 C132.786576,103.537614 133.239482,103.047247 133.239482,100.74148 L133.285237,98.4428867 L133.285237,93.1257993 C133.285237,89.6234598 133.239482,89.4004473 132.974237,88.9166015 C132.611514,88.2925578 131.976915,88.0819349 130.578409,88.0819349 L130.357592,88.0819349 L130.357592,87.0503391 C132.293883,86.8788411 134.275928,86.4712891 135.538496,86.0826474 L135.75865,86.0826474" id="Fill-8" fill="#01478D"></path>
                <path d="M170.669242,74.7348327 C171.880087,74.7348327 172.916533,75.7533868 172.916533,77.0399472 C172.916533,78.2815139 171.880087,79.339193 170.669242,79.339193 C169.412643,79.339193 168.370228,78.2815139 168.370228,77.0399472 C168.370228,75.7533868 169.354952,74.7348327 170.669242,74.7348327 Z M172.605533,98.4426259 C172.605533,101.945617 172.650625,102.162109 172.916533,102.645955 C173.285224,103.31434 173.913855,103.537353 175.26727,103.537353 L175.7593,103.537353 L175.7593,104.511565 L166.032754,104.511565 L166.032754,103.537353 L166.79003,103.537353 C168.959736,103.537353 169.412643,103.046986 169.458397,100.741872 L169.458397,93.074676 C169.458397,88.5531303 169.270736,88.2094824 166.660722,88.2094824 L166.032754,88.2094824 L166.032754,87.2352699 C168.104983,87.0507303 170.856903,86.5284116 172.113503,86.0823866 L172.605533,86.0823866 L172.605533,98.4426259 Z" id="Fill-10" fill="#01478D"></path>
                <path d="M182.649312,87.7637834 L182.649312,98.4872936 C182.649312,102.511952 183.27728,103.709177 185.362771,103.709177 C186.385955,103.709177 187.253307,103.129475 188.10806,101.945291 L188.781783,102.333933 C187.875307,104.116729 186.120046,105.21875 184.100203,105.21875 C182.429158,105.21875 180.85559,104.333221 180.181867,103.04666 C179.586391,101.945291 179.502176,101.143229 179.502176,97.825429 L179.502176,87.7637834 L176.886194,87.7637834 L176.886194,86.7895709 C179.547268,86.6558939 181.392712,84.6624752 181.937128,81.2494711 L182.649312,81.2494711 L182.649312,86.7895709 L188.10806,86.7895709 L188.10806,87.7637834 L182.649312,87.7637834" id="Fill-12" fill="#01478D"></path>
                <path d="M196.215946,89.712404 L196.306792,89.712404 C198.068021,87.2736124 200.179374,86.0829082 202.750264,86.0829082 C204.595708,86.0829082 206.130152,86.5667541 207.21169,87.5474874 C208.513381,88.6997186 208.785258,89.8460811 208.785258,93.5205706 L208.785258,98.4431475 C208.785258,101.945487 208.836981,102.161979 209.102889,102.645825 C209.464949,103.31421 210.099548,103.537222 211.485455,103.537222 L211.854809,103.537222 L211.854809,104.511435 L202.523479,104.511435 L202.523479,103.537222 L202.976386,103.537222 C205.139461,103.537222 205.631491,103.046856 205.631491,100.741741 L205.631491,93.1254081 C205.631491,88.6997186 204.731647,87.4072895 201.532788,87.4072895 C199.505651,87.4072895 197.478514,88.8653478 196.215946,91.3041394 L196.215946,98.4431475 C196.215946,101.983308 196.267669,102.161979 196.533577,102.645825 C196.895637,103.31421 197.524268,103.537222 198.922774,103.537222 L199.058713,103.537222 L199.058713,104.511435 L189.908413,104.511435 L189.908413,103.537222 L190.400443,103.537222 C192.563518,103.537222 193.017088,103.046856 193.055548,100.741741 L193.055548,80.7651688 C193.055548,77.2119668 192.706087,76.6387856 190.400443,76.6387856 L190.096074,76.6387856 L190.096074,75.6710939 L190.31689,75.6710939 C191.216735,75.6710939 192.745211,75.4924231 194.324747,75.1742064 C194.991839,75.0470502 195.231886,74.9642356 195.762376,74.7347023 L196.215946,74.7347023 L196.215946,89.712404" id="Fill-15" fill="#01478D"></path>
            </g>
        </g>
    </g>
</svg>