<?xml version="1.0" encoding="UTF-8"?>
<svg width="24px" height="15px" viewBox="0 0 24 15" version="1.1" xmlns="http://www.w3.org/2000/svg" xmlns:xlink="http://www.w3.org/1999/xlink">
    <!-- Generator: Sketch 48.2 (47327) - http://www.bohemiancoding.com/sketch -->
    <title>scroll-icon</title>
    <desc>Created with Sketch.</desc>
    <defs></defs>
    <g id="iPhone-SE-//-CONTACT" stroke="none" stroke-width="1" fill="none" fill-rule="evenodd" transform="translate(-148.000000, -296.000000)">
        <g id="INTRO-//-CONTACT" fill="#FFFFFF" stroke="#FFFFFF" stroke-width="3">
            <path d="M159.95832,306.373483 C162.555404,303.775663 165.082464,301.247132 167.611142,298.720366 C167.78385,298.547659 167.94979,298.357004 168.152802,298.227694 C168.675191,297.895077 169.195961,297.95451 169.622434,298.390398 C170.051848,298.829228 170.071414,299.35191 169.747036,299.868709 C169.644794,300.03156 169.490034,300.163076 169.351898,300.30136 C166.599759,303.055999 163.847473,305.810639 161.092981,308.562778 C160.20826,309.446616 159.703083,309.440879 158.806888,308.545124 C156.052984,305.79225 153.292313,303.045996 150.559004,300.27282 C150.272875,299.982572 149.982038,299.52197 150.000868,299.156254 C150.019257,298.802748 150.368791,298.373333 150.692286,298.151049 C151.147004,297.83844 151.638793,298.051014 152.017455,298.424674 C152.923949,299.319105 153.82191,300.222215 154.721489,301.123412 C156.449887,302.8549 158.177109,304.587564 159.95832,306.373483" id="scroll-icon"></path>
        </g>
    </g>
</svg>