<?xml version="1.0" encoding="UTF-8"?>
<svg width="629px" height="289px" viewBox="0 0 629 289" version="1.1" xmlns="http://www.w3.org/2000/svg" xmlns:xlink="http://www.w3.org/1999/xlink">
    <!-- Generator: Sketch 49 (51002) - http://www.bohemiancoding.com/sketch -->
    <title>multi-device-3</title>
    <desc>Created with Sketch.</desc>
    <defs>
        <polygon id="path-1" points="0 206.90625 98.99925 206.90625 98.99925 0 0 0"></polygon>
        <polygon id="path-3" points="0 238.937815 162.937654 238.937815 162.937654 -5.68434189e-14 0 -5.68434189e-14"></polygon>
        <polygon id="path-5" points="0 288.256857 520.327573 288.256857 520.327573 0 0 0"></polygon>
    </defs>
    <g id="Page-1" stroke="none" stroke-width="1" fill="none" fill-rule="evenodd">
        <g id="SERVICES" transform="translate(-718.000000, -151.000000)">
            <g id="multi-device-3" transform="translate(718.000000, 151.000000)">
                <g id="VECTOR-//-iPHONE" transform="translate(0.000000, 82.000000)">
                    <path d="M98.24925,194.162175 C98.24925,200.786925 92.856,206.156175 86.20275,206.156175 L12.7965,206.156175 C6.14325,206.156175 0.75,200.786925 0.75,194.162175 L0.75,12.743925 C0.75,6.119175 6.14325,0.749925 12.7965,0.749925 L86.20275,0.749925 C92.856,0.749925 98.24925,6.119175 98.24925,12.743925 L98.24925,194.162175 Z" id="Fill-1" fill="#F4FBFF"></path>
                    <path d="M98.24925,194.162175 C98.24925,200.786925 92.856,206.156175 86.20275,206.156175 L12.7965,206.156175 C6.14325,206.156175 0.75,200.786925 0.75,194.162175 L0.75,12.743925 C0.75,6.119175 6.14325,0.749925 12.7965,0.749925 L86.20275,0.749925 C92.856,0.749925 98.24925,6.119175 98.24925,12.743925 L98.24925,194.162175 Z" id="Stroke-3" stroke="#135B7E" stroke-width="1.5"></path>
                    <mask id="mask-2" fill="white">
                        <use xlink:href="#path-1"></use>
                    </mask>
                    <g id="Clip-6"></g>
                    <polygon id="Fill-5" fill="#FFFFFF" mask="url(#mask-2)" points="7.49925 177.00225 91.44675 177.00225 91.44675 27.68925 7.49925 27.68925"></polygon>
                    <polygon id="Stroke-7" stroke="#135B7E" stroke-width="0.75" mask="url(#mask-2)" points="7.49925 177.00225 91.44675 177.00225 91.44675 27.68925 7.49925 27.68925"></polygon>
                    <path d="M58.49925,19.998825 C58.49925,20.475075 58.17,20.859075 57.76425,20.859075 L42.68775,20.859075 C42.28125,20.859075 41.95275,20.474325 41.95275,19.998825 L41.95275,18.063825 C41.95275,17.587575 42.282,17.203575 42.68775,17.203575 L57.76425,17.203575 C58.17,17.203575 58.49925,17.588325 58.49925,18.063825 L58.49925,19.998825 Z" id="Stroke-8" stroke="#135B7E" stroke-width="0.75" mask="url(#mask-2)"></path>
                    <path d="M50.24925,7.43925 C51.492,7.43925 52.49925,8.4465 52.49925,9.68925 C52.49925,10.932 51.492,11.93925 50.24925,11.93925 C49.0065,11.93925 47.99925,10.932 47.99925,9.68925 C47.99925,8.4465 49.0065,7.43925 50.24925,7.43925 Z" id="Stroke-9" stroke="#135B7E" stroke-width="0.75" mask="url(#mask-2)"></path>
                    <path d="M49.52925,183.68925 C53.688,183.68925 57.05925,187.04775 57.05925,191.19 C57.05925,195.33225 53.688,198.69075 49.52925,198.69075 C45.3705,198.69075 41.99925,195.33225 41.99925,191.19 C41.99925,187.04775 45.3705,183.68925 49.52925,183.68925 Z" id="Stroke-10" stroke="#135B7E" stroke-width="0.75" mask="url(#mask-2)"></path>
                </g>
                <g id="VECTOR-//-iPAD" transform="translate(59.000000, 50.000000)">
                    <path d="M153.162387,238.188599 L9.77496728,238.188599 C4.79182442,238.188599 0.751377419,234.160063 0.751377419,229.190511 L0.751377419,9.74730408 C0.751377419,4.77775235 4.79107327,0.749216301 9.77496728,0.749216301 L153.162387,0.749216301 C158.147032,0.749216301 162.186728,4.77775235 162.186728,9.74730408 L162.186728,229.190511 C162.186728,234.160063 158.147032,238.188599 153.162387,238.188599" id="Fill-1" fill="#F4FBFF"></path>
                    <path d="M153.162387,238.188599 L9.77496728,238.188599 C4.79182442,238.188599 0.751377419,234.160063 0.751377419,229.190511 L0.751377419,9.74730408 C0.751377419,4.77775235 4.79107327,0.749216301 9.77496728,0.749216301 L153.162387,0.749216301 C158.147032,0.749216301 162.186728,4.77775235 162.186728,9.74730408 L162.186728,229.190511 C162.186728,234.160063 158.147032,238.188599 153.162387,238.188599 Z" id="Stroke-3" stroke="#135B7E" stroke-width="1.5"></path>
                    <path d="M153.162387,238.188599 L9.77496728,238.188599 C4.79182442,238.188599 0.751377419,234.160063 0.751377419,229.190511 L0.751377419,9.74730408 C0.751377419,4.77775235 4.79107327,0.749216301 9.77496728,0.749216301 L153.162387,0.749216301 C158.147032,0.749216301 162.186728,4.77775235 162.186728,9.74730408 L162.186728,229.190511 C162.186728,234.160063 158.147032,238.188599 153.162387,238.188599 Z" id="Stroke-7" stroke="#135B7E" stroke-width="1.5"></path>
                    <mask id="mask-4" fill="white">
                        <use xlink:href="#path-3"></use>
                    </mask>
                    <g id="Clip-10"></g>
                    <polygon id="Fill-9" fill="#FFFFFF" mask="url(#mask-4)" points="13.4583917 214.151492 150.167318 214.151492 150.167318 24.661953 13.4583917 24.661953"></polygon>
                    <polygon id="Stroke-11" stroke="#135B7E" stroke-width="0.75" mask="url(#mask-4)" points="13.4583917 214.151492 150.167318 214.151492 150.167318 24.661953 13.4583917 24.661953"></polygon>
                    <path d="M81.8293802,219.458191 C85.1569839,219.458191 87.854371,222.148627 87.854371,225.467655 C87.854371,228.786683 85.1569839,231.477119 81.8293802,231.477119 C78.5010253,231.477119 75.8043894,228.786683 75.8043894,225.467655 C75.8043894,222.148627 78.5010253,219.458191 81.8293802,219.458191 Z" id="Stroke-12" stroke="#135B7E" stroke-width="0.75" mask="url(#mask-4)"></path>
                    <path d="M81.0547171,11.1760596 C82.2948691,11.1760596 83.3006618,12.1792602 83.3006618,13.4162163 C83.3006618,14.6531724 82.2948691,15.656373 81.0547171,15.656373 C79.814565,15.656373 78.8087724,14.6531724 78.8087724,13.4162163 C78.8087724,12.1792602 79.814565,11.1760596 81.0547171,11.1760596 Z" id="Stroke-13" stroke="#135B7E" stroke-width="0.75" mask="url(#mask-4)"></path>
                </g>
                <g id="VECTOR-//-LAPTOP" transform="translate(108.000000, 0.000000)">
                    <path d="M74.2143885,0.750649351 C64.0972432,0.750649351 55.4733813,9.06334026 55.4733813,19.3592468 L55.4733813,264.24959 L464.776978,264.24959 L464.776978,19.3592468 C464.776978,9.06258961 456.183852,0.750649351 446.035971,0.750649351 L74.2143885,0.750649351 Z" id="Fill-1" fill="#F4FBFF"></path>
                    <path d="M446.035971,0.750649351 L74.2143885,0.750649351 C64.0972432,0.750649351 55.4733813,9.06334026 55.4733813,19.3592468 L55.4733813,264.24959 L464.776978,264.24959 L464.776978,19.3592468 C464.776978,9.06258961 456.183852,0.750649351 446.035971,0.750649351 Z" id="Stroke-3" stroke="#135B7E" stroke-width="1.5"></path>
                    <path d="M260.87482,12.0103896 C262.530776,12.0103896 263.873381,13.3548026 263.873381,15.012987 C263.873381,16.6711714 262.530776,18.0155844 260.87482,18.0155844 C259.218865,18.0155844 257.876259,16.6711714 257.876259,15.012987 C257.876259,13.3548026 259.218865,12.0103896 260.87482,12.0103896 Z" id="Stroke-5" stroke="#8492A5" stroke-width="1.5"></path>
                    <path d="M39.1975662,287.506058 C16.2233403,287.506058 0.750015108,279.612229 0.750015108,276.256076 L0.750015108,266.050998 C0.750015108,265.042125 1.75003525,264.228421 2.99518777,264.228421 L517.329386,264.228421 C518.575288,264.228421 519.578307,265.042125 519.578307,266.050998 L519.578307,276.656923 C519.57231,279.310468 507.590809,287.506058 481.128507,287.506058 L39.1975662,287.506058 Z" id="Fill-7" fill="#F4FBFF"></path>
                    <path d="M481.128507,287.506058 L39.1975662,287.506058 C16.2233403,287.506058 0.750015108,279.612229 0.750015108,276.256076 L0.750015108,266.050998 C0.750015108,265.042125 1.75003525,264.228421 2.99518777,264.228421 L517.329386,264.228421 C518.575288,264.228421 519.578307,265.042125 519.578307,266.050998 L519.578307,276.656923 C519.57231,279.310468 507.590809,287.506058 481.128507,287.506058 Z" id="Stroke-9" stroke="#135B7E" stroke-width="1.5"></path>
                    <path d="M1.12446043,275.112987 L518.182852,275.112987" id="Stroke-11" stroke="#135B7E" stroke-width="0.75" stroke-linecap="square"></path>
                    <mask id="mask-6" fill="white">
                        <use xlink:href="#path-5"></use>
                    </mask>
                    <g id="Clip-14"></g>
                    <polygon id="Fill-13" fill="#FFFFFF" mask="url(#mask-6)" points="71.9654676 249.22234 447.590725 249.22234 447.590725 30.025974 71.9654676 30.025974"></polygon>
                    <polygon id="Stroke-15" stroke="#135B7E" stroke-width="0.75" mask="url(#mask-6)" points="71.9654676 249.22234 447.590725 249.22234 447.590725 30.025974 71.9654676 30.025974"></polygon>
                    <g id="Group-18" mask="url(#mask-6)">
                        <g transform="translate(203.902158, 264.236078)">
                            <path d="M112.446043,0.743142857 L112.446043,3.0603974 C112.446043,4.71257662 109.197852,5.21175844 106.739032,5.21175844 L5.85843885,5.21175844 C3.27143022,5.21175844 0,4.71332727 0,3.0603974 L0,0.743142857" id="Fill-16" stroke="none" fill="#F4FBFF" fill-rule="evenodd"></path>
                            <path d="M112.446043,0.743142857 L112.446043,3.0603974 C112.446043,4.71257662 109.197852,5.21175844 106.739032,5.21175844 L5.85843885,5.21175844 C3.27143022,5.21175844 0,4.71332727 0,3.0603974 L0,0.743142857" id="Stroke-17" stroke="#135B7E" stroke-width="0.75" fill="none"></path>
                        </g>
                    </g>
                </g>
            </g>
        </g>
    </g>
</svg>