<?xml version="1.0" encoding="UTF-8"?>
<svg width="54px" height="38px" viewBox="0 0 54 38" version="1.1" xmlns="http://www.w3.org/2000/svg" xmlns:xlink="http://www.w3.org/1999/xlink">
    <!-- Generator: Sketch 48.2 (47327) - http://www.bohemiancoding.com/sketch -->
    <title>campaign-manager-icon</title>
    <desc>Created with Sketch.</desc>
    <defs></defs>
    <g id="Page-1" stroke="none" stroke-width="1" fill="none" fill-rule="evenodd">
        <g id="PRODUCT-SECTIONS" transform="translate(-1012.000000, -219.000000)">
            <g id="MANAGER" transform="translate(830.000000, 219.000000)">
                <g id="campaign-manager-icon" transform="translate(39.000000, 0.000000)">
                    <g transform="translate(144.000000, 0.000000)">
                        <path d="M2.3517,2.29184532 C1.9539,2.29184532 1.6317,2.6888183 1.6317,3.1738079 L1.6317,34.9657746 C1.6317,35.4543568 1.9539,35.8513297 2.3517,35.8513297 L49.8717,35.8513297 C50.2677,35.8513297 50.5917,35.4543568 50.5917,34.9657746 L50.5917,3.1738079 C50.5917,2.6888183 50.2677,2.29184532 49.8717,2.29184532 L2.3517,2.29184532 Z M49.8717,37.6170511 L2.3517,37.6170511 C1.1601,37.6170511 0.1917,36.4279285 0.1917,34.9657746 L0.1917,3.1738079 C0.1917,1.71345031 1.1601,0.526123909 2.3517,0.526123909 L49.8717,0.526123909 C51.0633,0.526123909 52.0317,1.71345031 52.0317,3.1738079 L52.0317,34.9657746 C52.0317,36.4279285 51.0633,37.6170511 49.8717,37.6170511 Z" id="Fill-4" fill="#238DC1"></path>
                        <path d="M2.3517,2.29184532 C1.9539,2.29184532 1.6317,2.6888183 1.6317,3.1738079 L1.6317,34.9657746 C1.6317,35.4543568 1.9539,35.8513297 2.3517,35.8513297 L49.8717,35.8513297 C50.2677,35.8513297 50.5917,35.4543568 50.5917,34.9657746 L50.5917,3.1738079 C50.5917,2.6888183 50.2677,2.29184532 49.8717,2.29184532 L2.3517,2.29184532 Z M49.8717,37.6170511 L2.3517,37.6170511 C1.1601,37.6170511 0.1917,36.4279285 0.1917,34.9657746 L0.1917,3.1738079 C0.1917,1.71345031 1.1601,0.526123909 2.3517,0.526123909 L49.8717,0.526123909 C51.0633,0.526123909 52.0317,1.71345031 52.0317,3.1738079 L52.0317,34.9657746 C52.0317,36.4279285 51.0633,37.6170511 49.8717,37.6170511 Z" id="Stroke-6" stroke="#238DC1" stroke-width="0.5"></path>
                        <polygon id="Fill-8" fill="#238DC1" points="1.2096 9.06517422 50.652 9.06517422 50.652 7.29945281 1.2096 7.29945281"></polygon>
                        <polygon id="Stroke-10" stroke="#238DC1" stroke-width="0.5" points="1.2096 9.06517422 50.652 9.06517422 50.652 7.29945281 1.2096 7.29945281"></polygon>
                        <path d="M8.23158,17.6723027 L44.23158,17.6723027" id="Stroke-11" stroke="#238DC1" stroke-width="1.8" stroke-linecap="round" stroke-linejoin="round"></path>
                        <path d="M8.23158,25.979995 L44.23158,25.979995" id="Stroke-12" stroke="#238DC1" stroke-width="1.8" stroke-linecap="round" stroke-linejoin="round"></path>
                        <path d="M15.96762,17.3917272 C15.96762,18.3203925 15.15762,19.0802096 14.16762,19.0802096 L12.86982,19.0802096 C11.87982,19.0802096 11.06982,18.3203925 11.06982,17.3917272 C11.06982,16.463062 11.87982,15.7032449 12.86982,15.7032449 L14.16762,15.7032449 C15.15762,15.7032449 15.96762,16.463062 15.96762,17.3917272" id="Fill-13" fill="#238DC1"></path>
                        <path d="M15.96762,17.3917272 C15.96762,18.3203925 15.15762,19.0802096 14.16762,19.0802096 L12.86982,19.0802096 C11.87982,19.0802096 11.06982,18.3203925 11.06982,17.3917272 C11.06982,16.463062 11.87982,15.7032449 12.86982,15.7032449 L14.16762,15.7032449 C15.15762,15.7032449 15.96762,16.463062 15.96762,17.3917272 Z" id="Stroke-14" stroke="#238DC1" stroke-width="1.8"></path>
                        <path d="M32.14656,25.9817913 C32.14656,26.9104565 31.33656,27.6702736 30.34656,27.6702736 L29.05056,27.6702736 C28.05876,27.6702736 27.25056,26.9104565 27.25056,25.9817913 C27.25056,25.053126 28.05876,24.2933089 29.05056,24.2933089 L30.34656,24.2933089 C31.33656,24.2933089 32.14656,25.053126 32.14656,25.9817913" id="Fill-15" fill="#238DC1"></path>
                        <path d="M32.14656,25.9817913 C32.14656,26.9104565 31.33656,27.6702736 30.34656,27.6702736 L29.05056,27.6702736 C28.05876,27.6702736 27.25056,26.9104565 27.25056,25.9817913 C27.25056,25.053126 28.05876,24.2933089 29.05056,24.2933089 L30.34656,24.2933089 C31.33656,24.2933089 32.14656,25.053126 32.14656,25.9817913 Z" id="Stroke-16" stroke="#238DC1" stroke-width="1.8"></path>
                    </g>
                </g>
            </g>
        </g>
    </g>
</svg>