<?xml version="1.0" encoding="UTF-8"?>
<svg width="51px" height="53px" viewBox="0 0 51 53" version="1.1" xmlns="http://www.w3.org/2000/svg" xmlns:xlink="http://www.w3.org/1999/xlink">
    <!-- Generator: Sketch 48.2 (47327) - http://www.bohemiancoding.com/sketch -->
    <title>campaign-viewer-icon</title>
    <desc>Created with Sketch.</desc>
    <defs></defs>
    <g id="Page-1" stroke="none" stroke-width="1" fill="none" fill-rule="evenodd">
        <g id="PRODUCT-SECTIONS" transform="translate(-374.000000, -610.000000)">
            <g id="VIEWER" transform="translate(190.000000, 610.000000)">
                <g id="ICON" transform="translate(90.000000, 0.000000)">
                    <g id="campaign-viewer-icon" transform="translate(94.000000, 0.000000)">
                        <path d="M25.4655,52.72322 C25.3287,52.72322 25.1901,52.6854985 25.0659,52.611852 C24.8373,52.4717439 24.6969,52.2256565 24.6969,51.9562179 L24.6987,27.7875692 L26.2395,27.7875692 L26.2359,50.6898561 L49.3245,38.6908541 L49.3245,14.0264383 L25.1163,1.44544865 L25.8273,0.0820889813 L50.4495,12.8804258 C50.7033,13.0133489 50.8617,13.2756025 50.8617,13.5612075 L50.8617,39.1560848 C50.8617,39.4416898 50.7033,39.7039435 50.4495,39.8368665 L25.8219,52.6369996 C25.7103,52.6944798 25.5879,52.72322 25.4655,52.72322" id="Fill-1" fill="#238DC1"></path>
                        <path d="M25.47252,52.7250162 C25.35192,52.7250162 25.22952,52.6944798 25.11972,52.6387958 L0.41652,39.9087168 C0.15912,39.77759 0.00072,39.5153364 0.00072,39.2279351 L0.00072,13.6079102 C0.00072,13.3205089 0.15912,13.0582553 0.41292,12.9271285 L25.11612,0.0856814969 L25.82712,1.44904116 L1.53792,14.0713447 L1.53792,38.7609081 L24.70212,50.6952449 L24.70212,27.7983468 L26.24112,27.7983468 L26.24112,51.9562179 C26.24112,52.2256565 26.10252,52.4717439 25.87212,52.6136482 C25.74972,52.6872948 25.61112,52.7250162 25.47252,52.7250162" id="Fill-3" fill="#238DC1"></path>
                        <path d="M25.0866,3.22769563 L25.8552,3.22769563 L25.8552,1.17996175 L25.0866,1.17996175 L25.0866,3.22769563 Z M25.0866,7.32136715 L25.8552,7.32136715 L25.8552,5.27363326 L25.0866,5.27363326 L25.0866,7.32136715 Z M25.0866,11.4186312 L25.8552,11.4186312 L25.8552,9.3708973 L25.0866,9.3708973 L25.0866,11.4186312 Z M25.0866,15.5123027 L25.8552,15.5123027 L25.8552,13.4645688 L25.0866,13.4645688 L25.0866,15.5123027 Z M25.0866,19.6077705 L25.8552,19.6077705 L25.8552,17.5600366 L25.0866,17.5600366 L25.0866,19.6077705 Z M25.0866,23.7032383 L25.8552,23.7032383 L25.8552,21.6555044 L25.0866,21.6555044 L25.0866,23.7032383 Z M25.0866,27.798706 L25.8552,27.798706 L25.8552,25.7509721 L25.0866,25.7509721 L25.0866,27.798706 Z" id="Fill-5" fill="#238DC1"></path>
                        <g id="Group-9" transform="translate(0.000000, 38.391238)" fill="#238DC1">
                            <path d="M25.4655,14.3706012 C25.3449,14.3706012 25.2225,14.3400649 25.1109,14.2825846 L0.3825,1.43036008 L1.0935,0.0687966736 L25.4655,12.7360067 L49.8393,0.0687966736 L50.5503,1.43036008 L25.8219,14.2825846 C25.7103,14.3400649 25.5879,14.3706012 25.4655,14.3706012" id="Fill-7"></path>
                        </g>
                        <g id="Group-21" transform="translate(0.000000, 26.715563)">
                            <g id="Group-12" transform="translate(48.600000, 10.777547)" fill="#9B9B9B">
                                <polygon id="Fill-10" points="1.43982 1.99672017 0.50742 1.56921081 0.82782 0.870466528 1.76202 1.29797588"></polygon>
                            </g>
                            <path d="M29.76156,3.47198669 L28.00116,2.66546694 L28.32336,1.96851892 L30.08196,2.77503867 L29.76156,3.47198669 Z M33.27876,5.0850262 L31.52016,4.27850644 L31.84056,3.58155842 L33.59916,4.38807817 L33.27876,5.0850262 Z M36.79596,6.69986195 L35.03736,5.8933422 L35.35776,5.19459792 L37.11816,6.00111767 L36.79596,6.69986195 Z M40.31316,8.31290146 L38.55456,7.5063817 L38.87496,6.80763742 L40.63536,7.61595343 L40.31316,8.31290146 Z M43.83036,9.92594096 L42.07176,9.12121746 L42.39396,8.42247318 L44.15256,9.22899293 L43.83036,9.92594096 Z M47.34936,11.5389805 L45.58896,10.7324607 L45.91116,10.0355127 L47.66976,10.8438287 L47.34936,11.5389805 Z" id="Fill-13" fill="#238DC1"></path>
                            <polygon id="Fill-15" fill="#238DC1" points="26.24238 1.85822869 25.47198 1.50616216 24.70158 1.85822869 24.37938 1.16128067 25.47198 0.66012474 26.56458 1.16128067"></polygon>
                            <path d="M21.18348,3.47198669 L20.86128,2.77503867 L22.61988,1.96851892 L22.94208,2.66546694 L21.18348,3.47198669 Z M17.66628,5.0850262 L17.34408,4.38807817 L19.10268,3.58155842 L19.42308,4.27850644 L17.66628,5.0850262 Z M14.14728,6.69986195 L13.82688,6.00111767 L15.58548,5.19459792 L15.90588,5.8933422 L14.14728,6.69986195 Z M10.63008,8.31290146 L10.30968,7.61595343 L12.06828,6.80763742 L12.38868,7.5063817 L10.63008,8.31290146 Z M7.11288,9.92594096 L6.79068,9.22899293 L8.54928,8.42247318 L8.87148,9.12121746 L7.11288,9.92594096 Z M3.59568,11.5389805 L3.27348,10.8438287 L5.03208,10.0355127 L5.35428,10.7324607 L3.59568,11.5389805 Z" id="Fill-17" fill="#238DC1"></path>
                            <polygon id="Fill-19" fill="#238DC1" points="0.9036 12.7742669 0.5832 12.0755227 1.5156 11.6480133 1.8378 12.3467576"></polygon>
                        </g>
                        <path d="M2.3697,13.4598985 L25.4331,26.8977031 L48.4947,13.4598985 L25.4331,1.63154096 L2.3697,13.4598985 Z M25.4331,28.5556491 C25.2963,28.5556491 25.1631,28.5215202 25.0443,28.4514661 L0.3825,14.0796075 C0.1395,13.9394994 -0.0063,13.6754495 0.0009,13.3952333 C0.0081,13.1168133 0.1665,12.8617447 0.4185,12.7342104 L25.0803,0.0849629938 C25.2999,-0.0282012474 25.5627,-0.0282012474 25.7841,0.0849629938 L50.4459,12.7342104 C50.6961,12.8617447 50.8563,13.1168133 50.8617,13.3952333 C50.8707,13.6754495 50.7231,13.9394994 50.4819,14.0796075 L25.8183,28.4514661 C25.6995,28.5215202 25.5663,28.5556491 25.4331,28.5556491 Z" id="Fill-22" fill="#238DC1"></path>
                        <path d="M49.93434,19.8888848 L25.76934,33.9014919" id="Stroke-24" stroke="#238DC1" stroke-width="1.44"></path>
                    </g>
                </g>
            </g>
        </g>
    </g>
</svg>