<?xml version="1.0" encoding="UTF-8"?>
<svg width="53px" height="38px" viewBox="0 0 53 38" version="1.1" xmlns="http://www.w3.org/2000/svg" xmlns:xlink="http://www.w3.org/1999/xlink">
    <!-- Generator: Sketch 48.2 (47327) - http://www.bohemiancoding.com/sketch -->
    <title>campaign-builder-icon</title>
    <desc>Created with Sketch.</desc>
    <defs></defs>
    <g id="iPhone-SE-//-COLATERAL" stroke="none" stroke-width="1" fill="none" fill-rule="evenodd" transform="translate(-30.000000, -2701.000000)">
        <g id="campaign-builder-icon" transform="translate(30.000000, 2701.000000)">
            <g id="Group-19" transform="translate(0.000000, 0.249141)">
                <path d="M2.47122,2.04270437 C2.07522,2.04270437 1.75302,2.43967734 1.75302,2.92466694 L1.75302,34.7166337 C1.75302,35.2052158 2.07522,35.6021888 2.47122,35.6021888 L49.99122,35.6021888 C50.38722,35.6021888 50.71122,35.2052158 50.71122,34.7166337 L50.71122,2.92466694 C50.71122,2.43967734 50.38722,2.04270437 49.99122,2.04270437 L2.47122,2.04270437 Z M49.99122,37.3679102 L2.47122,37.3679102 C1.28142,37.3679102 0.31122,36.1787875 0.31122,34.7166337 L0.31122,2.92466694 C0.31122,1.46430936 1.28142,0.276982952 2.47122,0.276982952 L49.99122,0.276982952 C51.18282,0.276982952 52.15302,1.46430936 52.15302,2.92466694 L52.15302,34.7166337 C52.15302,36.1787875 51.18282,37.3679102 49.99122,37.3679102 Z" id="Fill-4" fill="#238DC1"></path>
                <path d="M2.47122,2.04270437 C2.07522,2.04270437 1.75302,2.43967734 1.75302,2.92466694 L1.75302,34.7166337 C1.75302,35.2052158 2.07522,35.6021888 2.47122,35.6021888 L49.99122,35.6021888 C50.38722,35.6021888 50.71122,35.2052158 50.71122,34.7166337 L50.71122,2.92466694 C50.71122,2.43967734 50.38722,2.04270437 49.99122,2.04270437 L2.47122,2.04270437 Z M49.99122,37.3679102 L2.47122,37.3679102 C1.28142,37.3679102 0.31122,36.1787875 0.31122,34.7166337 L0.31122,2.92466694 C0.31122,1.46430936 1.28142,0.276982952 2.47122,0.276982952 L49.99122,0.276982952 C51.18282,0.276982952 52.15302,1.46430936 52.15302,2.92466694 L52.15302,34.7166337 C52.15302,36.1787875 51.18282,37.3679102 49.99122,37.3679102 Z" id="Stroke-6" stroke="#238DC1" stroke-width="0.5"></path>
                <polygon id="Fill-8" fill="#238DC1" points="1.5102 8.81603326 50.9508 8.81603326 50.9508 7.05031185 1.5102 7.05031185"></polygon>
                <polygon id="Stroke-10" stroke="#238DC1" stroke-width="0.5" points="1.5102 8.81603326 50.9508 8.81603326 50.9508 7.05031185 1.5102 7.05031185"></polygon>
                <polygon id="Fill-11" fill="#238DC1" points="8.4564 16.6369397 16.7058 16.6369397 16.7058 13.7934636 8.4564 13.7934636"></polygon>
                <polygon id="Fill-12" fill="#238DC1" points="22.1058 16.6369397 30.357 16.6369397 30.357 13.7934636 22.1058 13.7934636"></polygon>
                <polygon id="Fill-13" fill="#238DC1" points="35.757 16.6369397 44.0064 16.6369397 44.0064 13.7934636 35.757 13.7934636"></polygon>
                <polygon id="Fill-14" fill="#238DC1" points="8.4564 23.3729064 16.7058 23.3729064 16.7058 20.5294304 8.4564 20.5294304"></polygon>
                <polygon id="Fill-15" fill="#238DC1" points="22.1058 23.3729064 30.357 23.3729064 30.357 20.5294304 22.1058 20.5294304"></polygon>
                <polygon id="Fill-16" fill="#238DC1" points="35.757 23.3729064 44.0064 23.3729064 44.0064 20.5294304 35.757 20.5294304"></polygon>
                <polygon id="Fill-17" fill="#238DC1" points="8.4564 30.1088732 16.7058 30.1088732 16.7058 27.2653971 8.4564 27.2653971"></polygon>
                <polygon id="Fill-18" fill="#238DC1" points="22.1058 30.1088732 30.357 30.1088732 30.357 27.2653971 22.1058 27.2653971"></polygon>
            </g>
        </g>
    </g>
</svg>