<?xml version="1.0" encoding="UTF-8"?>
<svg width="240px" height="241px" viewBox="0 0 240 241" version="1.1" xmlns="http://www.w3.org/2000/svg" xmlns:xlink="http://www.w3.org/1999/xlink">
    <!-- Generator: Sketch 48.2 (47327) - http://www.bohemiancoding.com/sketch -->
    <title>colateral-icon</title>
    <desc>Created with Sketch.</desc>
    <defs></defs>
    <g id="iPhone-SE-//-COLATERAL" stroke="none" stroke-width="1" fill="none" fill-rule="evenodd" transform="translate(-40.000000, -1438.000000)">
        <g id="KEY-BENEFITS-//-COLATERAL" transform="translate(0.000000, 1018.000000)">
            <g id="colateral-icon" transform="translate(40.000000, 420.000000)">
                <path d="M238.780047,106.0945 C230.593322,97.4965677 221.345817,89.6757082 211.050011,82.8324561 C206.694573,79.9247006 202.226818,77.2425468 197.721623,74.8110617 C196.236531,128.90534 167.957385,180.4804 119.847894,209.933957 C134.811132,219.12096 151.421698,225.951679 169.192882,229.899709 C169.84183,229.623974 170.465818,229.348238 171.114766,229.022369 C218.849864,206.311796 244.720415,156.002613 238.780047,106.0945" id="Fill-18" fill="#2BBEC7"></path>
                <path d="M42.1713463,59.3510773 C41.7969534,65.0036537 41.7220748,70.6060963 41.8967915,76.1458718 C89.0952596,49.8632717 147.849989,48.0083243 197.719127,74.8173284 C198.168398,57.7718653 195.99692,40.4632001 190.892696,23.5180045 C206.342644,34.9108912 219.2592,50.2267411 228.032474,68.8263494 C233.735726,80.9211082 237.279979,93.4796038 238.765071,106.100767 C234.771547,72.2855758 216.563571,40.3879996 186.087987,20.083845 C132.961631,-15.3230913 61.9892118,-2.60166109 24.1630466,47.9080568 C31.126755,38.6709198 39.3384399,30.4991243 48.5734653,23.6308053 C45.1914493,35.0236921 43.0199703,46.9805831 42.1713463,59.3510773 Z" id="Fill-28" fill="#D8D8D8"></path>
                <path d="M190.89644,23.5205111 C195.988184,40.4531734 198.172142,57.7618385 197.722871,74.8198351 C202.228066,77.2387868 206.695821,79.8958737 211.051259,82.8036292 C221.334585,89.6719481 230.59457,97.4928077 238.768815,106.09074 C237.283723,93.4821105 233.73947,80.9236149 228.036218,68.8037893 C219.250464,50.2167144 206.333908,34.9133979 190.89644,23.5205111" id="Fill-31" fill="#4A4A4A"></path>
                <path d="M104.707445,218.155886 C109.948946,215.661734 114.965811,212.90438 119.845399,209.933957 C74.2443403,181.971878 43.8186752,132.264299 41.8843118,76.1270717 C26.683959,84.612203 12.6691838,95.6541537 0.526373279,109.089989 C0.43901493,110.142797 0.364136345,111.183072 0.276777996,112.23588 C-3.77914536,172.546739 37.1794407,225.487942 94.3617201,237.883503 C86.1749948,236.066156 78.1629862,233.434136 70.5378503,229.987443 C82.0941119,227.355423 93.5380557,223.457527 104.707445,218.155886" id="Fill-42" fill="#F05A2C"></path>
                <path d="M104.707445,218.155886 C93.5380557,223.457527 82.0941119,227.355423 70.5378503,229.987443 C78.1629862,233.434136 86.1749948,236.066156 94.3617201,237.883503 C94.686194,237.971237 95.0356274,238.021371 95.372581,238.096572 C95.9466502,238.221906 96.5207193,238.334707 97.0823087,238.422441 C97.7811755,238.585375 98.4675625,238.698176 99.1664293,238.810977 C99.3661055,238.861111 99.5657818,238.911244 99.765458,238.936311 C103.684104,239.600583 107.677628,240.076853 111.733552,240.352589 C121.89208,241.054461 131.813492,240.427789 141.385472,238.660576 C141.510269,238.648042 141.635067,238.635509 141.722425,238.610442 C142.708327,238.422441 143.681748,238.234439 144.63021,238.021371 C144.904765,237.971237 145.141881,237.921104 145.416435,237.87097 C146.140262,237.720569 146.876568,237.532567 147.612874,237.344566 C148.074625,237.244298 148.536376,237.144031 148.985648,237.03123 C149.110446,236.99363 149.222763,236.95603 149.347561,236.918429 C156.036715,235.20135 162.688429,232.882665 169.177906,229.899709 C151.406722,225.951679 134.808636,219.12096 119.845399,209.933957 C114.965811,212.90438 109.948946,215.661734 104.707445,218.155886" id="Fill-48" fill="#4A4A4A"></path>
                <path d="M41.9005354,76.1258183 C41.7258187,70.5985763 41.8006973,64.9961336 42.1750903,59.3435572 C42.9987547,46.9855965 45.207673,35.0287054 48.5772093,23.6358187 C39.329704,30.5041376 31.1180192,38.6633998 24.1543108,47.9005368 C24.0170334,48.1010716 23.879756,48.2765396 23.7299988,48.4645411 C23.4679238,48.8280105 23.1933689,49.2040134 22.9312939,49.5674828 C21.9329128,50.94616 20.9594912,52.3624374 20.0110291,53.7787149 C14.3701757,62.3014464 9.96481892,71.3004483 6.73256,80.5626521 C6.69512071,80.6629196 6.64520165,80.7757204 6.60776236,80.9010547 C6.28328849,81.8661287 5.95881462,82.8562696 5.64682052,83.833877 C5.55946217,84.0594787 5.47210382,84.3226808 5.42218476,84.5733493 C5.16010972,85.4130891 4.91051443,86.2528288 4.67339891,87.0925685 C4.56108104,87.4309711 4.44876316,87.7944405 4.37388457,88.15791 C4.16172858,88.8848488 3.96205236,89.5992543 3.79981542,90.3261931 C3.67501778,90.78993 3.55022014,91.2286 3.45038203,91.66727 C3.30062486,92.3190083 3.15086768,92.9206129 3.01359028,93.5598178 C2.88879264,94.0987552 2.763995,94.6376926 2.65167712,95.1766301 C2.53935924,95.6779672 2.45200089,96.1793044 2.35216278,96.6806415 C2.21488537,97.3323798 2.09008773,97.9966515 1.96529009,98.6609233 C1.91537103,98.9366587 1.86545198,99.2123941 1.82801268,99.4755961 C1.32882212,102.295618 0.941949426,105.128173 0.65491485,108.010861 C0.629955322,108.286597 0.580036265,108.574865 0.555076737,108.863134 C0.555076737,108.925801 0.542596973,109.001002 0.542596973,109.088736 C12.6729277,95.6403669 26.6877029,84.6109496 41.9005354,76.1258183" id="Fill-49" fill="#4A4A4A"></path>
            </g>
        </g>
    </g>
</svg>