<?xml version="1.0" encoding="UTF-8"?>
<svg width="198px" height="31px" viewBox="0 0 198 31" version="1.1" xmlns="http://www.w3.org/2000/svg" xmlns:xlink="http://www.w3.org/1999/xlink">
    <!-- Generator: Sketch 48.2 (47327) - http://www.bohemiancoding.com/sketch -->
    <title>colateral-logo</title>
    <desc>Created with Sketch.</desc>
    <defs></defs>
    <g id="iPhone-SE-//-COLATERAL" stroke="none" stroke-width="1" fill="none" fill-rule="evenodd" transform="translate(-61.000000, -118.000000)">
        <g id="INTRO-//-COLATERAL" transform="translate(0.000000, -2.000000)">
            <g id="colateral-logo" transform="translate(61.000000, 120.000000)">
                <g id="Icon">
                    <path d="M48.3828747,30.2570523 C42.8170932,30.2570523 38.6139845,25.5903744 38.6139845,20.0529186 C38.6139845,14.4761678 42.8170932,9.77333844 48.3828747,9.77333844 C51.9951851,9.77333844 54.2448227,11.3294217 56.0141489,13.2627372 L54.1343358,15.312366 C52.6228125,13.6808363 50.9271443,12.3526643 48.3475803,12.3526643 C44.4743979,12.3526643 41.5250094,15.7288934 41.5250094,19.9774721 C41.5250094,24.2637741 44.5480559,27.6400032 48.5301907,27.6400032 C50.9639733,27.6400032 52.8422519,26.3872776 54.3568443,24.7180247 L56.1599303,26.4642959 C54.2448227,28.6648176 51.9583561,30.2570523 48.3828747,30.2570523 Z" id="Fill-1" fill="#FFFFFF"></path>
                    <path d="M69.0302822,12.353293 C64.9008314,12.353293 62.0619299,15.7279503 62.0619299,19.9781008 C62.0619299,24.2282514 65.0865109,27.6406319 69.1024056,27.6406319 C73.2318564,27.6406319 76.1075869,24.262831 76.1075869,20.0519755 C76.1075869,15.7672453 73.0477114,12.353293 69.0302822,12.353293 M69.0302822,30.257681 C63.3141156,30.257681 59.1509049,25.6287263 59.1509049,20.0519755 C59.1509049,14.4767965 63.3540137,9.77239536 69.1024056,9.77239536 C74.8170376,9.77239536 79.0201464,14.40135 79.0201464,19.9781008 C79.0201464,25.5532799 74.7817432,30.257681 69.0302822,30.257681" id="Fill-3" fill="#FFFFFF"></path>
                    <polygon id="Fill-5" fill="#F05A2C" points="83.0404913 29.8017014 86.4318277 29.8017014 86.4318277 25.8203289 83.0404913 25.8203289"></polygon>
                    <polygon id="Fill-7" fill="#FFFFFF" points="92.6620656 29.8017014 95.5025017 29.8017014 95.5025017 2.11127891 92.6620656 2.11127891"></polygon>
                    <path d="M103.539509,23.9607308 C103.539509,26.4646102 105.750783,27.9075238 108.331881,27.9075238 C111.835239,27.9075238 114.709435,25.7054302 114.709435,22.5948356 L114.709435,20.6992433 C113.309933,20.2811441 111.428586,19.8646168 109.106825,19.8646168 C105.531343,19.8646168 103.539509,21.4568515 103.539509,23.9607308 M103.208048,13.9452133 L102.359446,11.5560754 C104.461768,10.5689842 106.525726,9.92454572 109.29097,9.92454572 C114.488461,9.92454572 117.401021,12.6563363 117.401021,17.814988 L117.401021,29.8015443 L114.674141,29.8015443 L114.674141,26.8434143 C113.346762,28.6258369 111.133954,30.2196434 107.780981,30.2196434 C104.240794,30.2196434 100.665313,28.1715864 100.665313,24.0754723 C100.665313,19.90234 103.982991,17.7018183 108.810658,17.7018183 C111.244441,17.7018183 112.976938,18.0428991 114.674141,18.5364447 L114.674141,17.854283 C114.674141,14.3255892 112.573354,12.5054434 108.996338,12.5054434 C106.7467,12.5054434 104.977374,13.1121586 103.208048,13.9452133" id="Fill-8" fill="#FFFFFF"></path>
                    <path d="M127.135998,24.2277799 C127.135998,26.615346 128.425012,27.4892675 130.343189,27.4892675 C131.302277,27.4892675 132.110981,27.2990795 133.106898,26.8055339 L133.106898,29.3078415 C132.110981,29.8406821 131.044474,30.1440398 129.680267,30.1440398 C126.620392,30.1440398 124.297096,28.5879565 124.297096,24.6050122 L124.297096,12.7693488 L121.64234,12.7693488 L121.64234,10.1900229 L124.297096,10.1900229 L124.297096,4.27376306 L127.135998,4.27376306 L127.135998,10.1900229 L133.180556,10.1900229 L133.180556,12.7693488 L127.135998,12.7693488 L127.135998,24.2277799 Z" id="Fill-9" fill="#FFFFFF"></path>
                    <path d="M151.652751,18.9152488 C151.358119,15.3504036 149.366284,12.2382371 145.568295,12.2382371 C142.250616,12.2382371 139.74471,15.0831974 139.37642,18.9152488 L151.652751,18.9152488 Z M146.085435,27.715764 C148.703363,27.715764 150.546347,26.6139313 152.094699,24.9462502 L153.864025,26.5777799 C151.945848,28.7767299 149.624087,30.2573666 146.011777,30.2573666 C140.775922,30.2573666 136.50069,26.1219575 136.50069,20.0139379 C136.50069,14.3255892 140.370803,9.7736528 145.643487,9.7736528 C151.284461,9.7736528 154.526947,14.4010357 154.526947,20.1679744 C154.526947,20.432037 154.526947,20.7369665 154.491653,21.0764756 L139.37642,21.0764756 C139.781539,25.3266261 142.730928,27.715764 146.085435,27.715764 L146.085435,27.715764 Z" id="Fill-10" fill="#FFFFFF"></path>
                    <path d="M162.345128,29.8012299 L159.506227,29.8012299 L159.506227,10.1898658 L162.345128,10.1898658 L162.345128,15.312366 C163.746165,12.0493066 166.511408,9.69946378 170.123718,9.8503567 L170.123718,12.9971028 L169.902744,12.9971028 C165.736465,12.9971028 162.345128,16.0699742 162.345128,21.9878059 L162.345128,29.8012299 Z" id="Fill-11" fill="#FFFFFF"></path>
                    <path d="M174.991591,23.9607308 C174.991591,26.4646102 177.202865,27.9075238 179.783963,27.9075238 C183.287321,27.9075238 186.161517,25.7054302 186.161517,22.5948356 L186.161517,20.6992433 C184.762015,20.2811441 182.882202,19.8646168 180.558907,19.8646168 C176.983425,19.8646168 174.991591,21.4568515 174.991591,23.9607308 M174.66013,13.9452133 L173.811528,11.5560754 C175.915384,10.5689842 177.977808,9.92454572 180.743052,9.92454572 C185.940543,9.92454572 188.853103,12.6563363 188.853103,17.814988 L188.853103,29.8015443 L186.126223,29.8015443 L186.126223,26.8434143 C184.798844,28.6258369 182.586036,30.2196434 179.233063,30.2196434 C175.692876,30.2196434 172.117395,28.1715864 172.117395,24.0754723 C172.117395,19.90234 175.435073,17.7018183 180.264275,17.7018183 C182.696523,17.7018183 184.42902,18.0428991 186.126223,18.5364447 L186.126223,17.854283 C186.126223,14.3255892 184.025435,12.5054434 180.44842,12.5054434 C178.198782,12.5054434 176.429456,13.1121586 174.66013,13.9452133" id="Fill-12" fill="#FFFFFF"></path>
                    <polygon id="Fill-13" fill="#FFFFFF" points="195.158686 29.8017014 197.997588 29.8017014 197.997588 2.11127891 195.158686 2.11127891"></polygon>
                    <path d="M29.5023382,13.3993267 C28.4956791,12.3210711 27.358584,11.3402671 26.0925874,10.4820636 C25.5570324,10.1174057 25.0076666,9.78104026 24.4536972,9.47611082 C24.2710868,16.260005 20.793816,22.7279671 14.8781591,26.4217 C16.7180742,27.5738304 18.7605487,28.430462 20.9457356,28.9255794 C21.0255318,28.8909998 21.1022589,28.8564202 21.182055,28.8155533 C27.0516757,25.9674495 30.2327799,19.6582393 29.5023382,13.3993267" id="Fill-18" fill="#2BBEC7"></path>
                    <path d="M6.11408651,3.05766044 C5.6982258,4.48642777 5.43121561,5.98592616 5.3268668,7.53729399 C5.28083056,8.24617635 5.27162331,8.9487715 5.29310689,9.64350765 C11.0967423,6.34744044 18.321363,6.11481386 24.4533903,9.47689672 C24.5086338,7.33924703 24.2416236,5.16858951 23.6139962,3.04351423 C25.5137584,4.47228156 27.1020087,6.39302268 28.1807912,8.72557573 C28.8820766,10.2423639 29.3178864,11.8173088 29.5004968,13.4001126 L29.5035659,13.4001126 C29.0094436,9.15939287 26.7705477,5.1591587 23.0231977,2.61284069 C16.4906552,-1.82749783 7.76371847,-0.232119568 3.11252362,6.10223945 C3.96879769,4.94382193 4.97852591,3.91900752 6.11408651,3.05766044" id="Fill-28" fill="#B2B3B4"></path>
                    <path d="M23.6144565,3.04382859 C24.2405494,5.16733207 24.5090941,7.33798959 24.4538506,9.47721108 C25.0078201,9.78056872 25.5571859,10.1137906 26.0927408,10.4784485 C27.3572029,11.3397956 28.4958326,12.3205995 29.5009572,13.3988552 C29.3183467,11.8176231 28.882537,10.2426783 28.1812516,8.72274649 C27.1009345,6.39176524 25.5126842,4.47259592 23.6144565,3.04382859" id="Fill-31" fill="#F9F9F9"></path>
                    <path d="M13.0164535,27.4528017 C13.6609609,27.1400132 14.2778465,26.7942169 14.8778522,26.4217 C9.27063808,22.9150115 5.52942626,16.6812477 5.29157234,9.64114995 C3.42250097,10.7052594 1.69921103,12.0900163 0.206102286,13.7749872 C0.195360497,13.9070185 0.186153249,14.037478 0.175411459,14.1695093 C-0.323314482,21.7330169 4.71305025,28.3723054 11.7443188,29.9268168 C10.7376596,29.6989056 9.75248407,29.3688274 8.8148793,28.936582 C10.2358646,28.6065038 11.643039,28.1176736 13.0164535,27.4528017" id="Fill-42" fill="#F05A2C"></path>
                    <path d="M13.0164535,27.4528017 C11.643039,28.1176736 10.2358646,28.6065038 8.8148793,28.936582 C9.75248407,29.3688274 10.7376596,29.6989056 11.7443188,29.9268168 C11.7842168,29.9378194 11.827184,29.9441066 11.8686166,29.9535374 C11.9392055,29.9692555 12.0097944,29.9834017 12.0788488,29.9944043 C12.1647831,30.0148377 12.2491829,30.0289839 12.3351172,30.0431301 C12.3596698,30.0494173 12.3842225,30.0557045 12.4087752,30.0588481 C12.8906211,30.1421536 13.3816744,30.201882 13.8804003,30.2364617 C15.129517,30.3244825 16.3494774,30.2458925 17.5264706,30.0242685 C17.541816,30.0226967 17.5571614,30.0211249 17.5679032,30.0179813 C17.689132,29.9944043 17.8088262,29.9708273 17.9254513,29.9441066 C17.9592112,29.9378194 17.9883675,29.9315322 18.0221274,29.925245 C18.1111308,29.9063834 18.2016688,29.8828064 18.2922067,29.8592294 C18.3489848,29.846655 18.4057628,29.8340805 18.4610063,29.8199343 C18.4763517,29.8152189 18.4901626,29.8105035 18.505508,29.8057881 C19.3280221,29.5904514 20.1459327,29.2996681 20.9438942,28.9255794 C18.7587073,28.430462 16.7177673,27.5738304 14.8778522,26.4217 C14.2778465,26.7942169 13.6609609,27.1400132 13.0164535,27.4528017" id="Fill-48" fill="#F9F9F9"></path>
                    <path d="M5.29356725,9.64099277 C5.27208367,8.94782842 5.28129092,8.24523327 5.32732716,7.53635091 C5.42860689,5.98655488 5.70022071,4.48705649 6.11454687,3.05828916 C4.97745173,3.91963624 3.96772352,4.94287885 3.11144944,6.10129637 C3.09456948,6.12644519 3.07768953,6.14845041 3.05927503,6.17202742 C3.02704966,6.21760966 2.99328975,6.2647637 2.96106439,6.31034593 C2.83830108,6.48324407 2.71860685,6.66085761 2.60198171,6.83847115 C1.90836901,7.907296 1.36667591,9.03584929 0.969229703,10.1974104 C0.964626079,10.2099848 0.958487914,10.224131 0.95388429,10.239849 C0.913986214,10.3608777 0.874088139,10.48505 0.835724605,10.6076505 C0.824982816,10.635943 0.814241026,10.6689508 0.808102861,10.7003868 C0.775877492,10.8056975 0.745186665,10.9110082 0.716030379,11.0163189 C0.702219507,11.0587575 0.688408635,11.1043397 0.679201387,11.149922 C0.653114184,11.2410864 0.628561522,11.3306791 0.608612484,11.4218436 C0.593267071,11.4800002 0.577921657,11.5350133 0.565645326,11.5900263 C0.54723083,11.67176 0.528816334,11.7472064 0.511936379,11.8273683 C0.496590965,11.8949558 0.481245552,11.9625432 0.467434679,12.0301307 C0.453623807,12.0930027 0.442882018,12.1558748 0.430605687,12.2187468 C0.413725732,12.3004805 0.398380318,12.3837859 0.383034905,12.4670914 C0.376896739,12.501671 0.370758574,12.5362507 0.36615495,12.5692585 C0.304773296,12.9229138 0.257202513,13.2781409 0.221908062,13.6396551 C0.21883898,13.6742348 0.212700814,13.7103862 0.209631731,13.7465376 C0.209631731,13.7543966 0.20809719,13.7638274 0.20809719,13.77483 C1.69967139,12.0882873 3.42296133,10.7051022 5.29356725,9.64099277" id="Fill-49" fill="#F9F9F9"></path>
                </g>
            </g>
        </g>
    </g>
</svg>