<?xml version="1.0" encoding="UTF-8"?>
<svg width="302px" height="168px" viewBox="0 0 302 168" version="1.1" xmlns="http://www.w3.org/2000/svg" xmlns:xlink="http://www.w3.org/1999/xlink">
    <!-- Generator: Sketch 48.2 (47327) - http://www.bohemiancoding.com/sketch -->
    <title>product-laptop-300x166</title>
    <desc>Created with Sketch.</desc>
    <defs>
        <polygon id="path-1" points="0 166.339996 300.006065 166.339996 300.006065 0 0 0"></polygon>
    </defs>
    <g id="iPhone-SE-//-COLATERAL" stroke="none" stroke-width="1" fill="none" fill-rule="evenodd" transform="translate(-9.000000, -331.000000)">
        <g id="INTRO-//-COLATERAL" transform="translate(0.000000, -2.000000)">
            <g id="product-laptop-300x166" transform="translate(10.000000, 334.000000)">
                <path d="M42.7626875,0.373797745 C36.9368525,0.373797745 31.9709065,5.1850663 31.9709065,11.1441921 L31.9709065,152.883278 L267.663404,152.883278 L267.663404,11.1441921 C267.663404,5.18463184 262.715156,0.373797745 256.871623,0.373797745 L42.7626875,0.373797745 Z" id="Fill-1" fill="#FFFFFF"></path>
                <path d="M256.871623,0.373797745 L42.7626875,0.373797745 C36.9368525,0.373797745 31.9709065,5.1850663 31.9709065,11.1441921 L31.9709065,152.883278 L267.663404,152.883278 L267.663404,11.1441921 C267.663404,5.18463184 262.715156,0.373797745 256.871623,0.373797745 Z" id="Stroke-3" stroke="#8492A5" stroke-width="0.945"></path>
                <path d="M150.560665,6.7283594 C151.587172,6.7283594 152.419438,7.5651991 152.419438,8.59734813 C152.419438,9.62949715 151.587172,10.4663368 150.560665,10.4663368 C149.534157,10.4663368 148.701891,9.62949715 148.701891,8.59734813 C148.701891,7.5651991 149.534157,6.7283594 150.560665,6.7283594 Z" id="Stroke-5" stroke="#8492A5" stroke-width="0.945"></path>
                <path d="M22.5484798,165.966199 C9.29684016,165.966199 0.371754727,161.402804 0.371754727,159.462624 L0.371754727,153.563105 C0.371754727,152.979879 0.948570965,152.50948 1.66678069,152.50948 L298.337122,152.50948 C299.055764,152.50948 299.63431,152.979879 299.63431,153.563105 L299.63431,159.694352 C299.630851,161.228357 292.719866,165.966199 277.456288,165.966199 L22.5484798,165.966199 Z" id="Fill-7" fill="#FFFFFF"></path>
                <path d="M277.456288,165.966199 L22.5484798,165.966199 C9.29684016,165.966199 0.371754727,161.402804 0.371754727,159.462624 L0.371754727,153.563105 C0.371754727,152.979879 0.948570965,152.50948 1.66678069,152.50948 L298.337122,152.50948 C299.055764,152.50948 299.63431,152.979879 299.63431,153.563105 L299.63431,159.694352 C299.630851,161.228357 292.719866,165.966199 277.456288,165.966199 Z" id="Stroke-9" stroke="#8492A5" stroke-width="0.945"></path>
                <mask id="mask-2" fill="white">
                    <use xlink:href="#path-1"></use>
                </mask>
                <g id="Clip-14"></g>
                <polygon id="Fill-13" fill="#FFFFFF" mask="url(#mask-2)" points="41.2647747 144.285929 257.254271 144.285929 257.254271 17.568494 41.2647747 17.568494"></polygon>
                <polygon id="Stroke-15" stroke="#8492A5" stroke-width="0.7875" mask="url(#mask-2)" points="41.2647747 144.285929 257.254271 144.285929 257.254271 17.568494 41.2647747 17.568494"></polygon>
                <g id="Group-18" mask="url(#mask-2)">
                    <g transform="translate(117.846249, 152.883278)">
                        <path d="M64.8756924,0.0556656614 L64.8756924,1.54992563 C64.8756924,2.61531799 63.0016499,2.93721073 61.5830348,2.93721073 L3.38002357,2.93721073 C1.88745014,2.93721073 0,2.61580204 0,1.54992563 L0,0.0556656614" id="Fill-16" stroke="none" fill="#FFFFFF" fill-rule="evenodd"></path>
                        <path d="M64.8756924,0.0556656614 L64.8756924,1.54992563 C64.8756924,2.61531799 63.0016499,2.93721073 61.5830348,2.93721073 L3.38002357,2.93721073 C1.88745014,2.93721073 0,2.61580204 0,1.54992563 L0,0.0556656614" id="Stroke-17" stroke="#8492A5" stroke-width="0.7875" fill="none"></path>
                    </g>
                </g>
            </g>
        </g>
    </g>
</svg>