<?xml version="1.0" encoding="utf-8"?>
<!-- Generator: Adobe Illustrator 22.0.1, SVG Export Plug-In . SVG Version: 6.00 Build 0)  -->
<svg version="1.1" id="Layer_1" xmlns="http://www.w3.org/2000/svg" xmlns:xlink="http://www.w3.org/1999/xlink" x="0px" y="0px"
	 viewBox="0 0 302 168" style="enable-background:new 0 0 302 168;" xml:space="preserve">
<style type="text/css">
	.st0{fill:#F4FBFF;}
	.st1{fill:none;stroke:#135B7E;stroke-miterlimit:10;}
	.st2{fill:none;stroke:#135B7E;stroke-width:0.945;}
	.st3{filter:url(#Adobe_OpacityMaskFilter);}
	.st4{fill:#FFFFFF;}
	.st5{mask:url(#mask-2_1_);fill:#FFFFFF;}
	.st6{filter:url(#Adobe_OpacityMaskFilter_1_);}
	.st7{mask:url(#mask-2_2_);fill:none;stroke:#135B7E;stroke-width:0.7875;}
	.st8{filter:url(#Adobe_OpacityMaskFilter_2_);}
	.st9{mask:url(#mask-2_3_);}
	.st10{fill:none;stroke:#135B7E;stroke-width:0.7875;}
	.st11{enable-background:new    ;}
	.st12{clip-path:url(#SVGID_2_);}
	.st13{clip-path:url(#SVGID_4_);fill:#F4FBFF;}
	.st14{fill:none;stroke:#135B7E;stroke-width:1.5;stroke-miterlimit:10;}
	.st15{fill:none;stroke:#8492A5;stroke-width:1.5;stroke-miterlimit:10;}
	.st16{clip-path:url(#SVGID_6_);}
	.st17{clip-path:url(#SVGID_8_);fill:#F4FBFF;}
	.st18{fill:none;stroke:#135B7E;stroke-width:0.75;stroke-linecap:square;stroke-miterlimit:10;}
	.st19{clip-path:url(#SVGID_10_);}
	.st20{clip-path:url(#SVGID_12_);}
	.st21{clip-path:url(#SVGID_14_);fill:#FFFFFF;}
	.st22{clip-path:url(#SVGID_16_);fill:none;stroke:#135B7E;stroke-width:0.75;stroke-miterlimit:10;}
	.st23{clip-path:url(#SVGID_18_);}
	.st24{clip-path:url(#SVGID_20_);fill:#F4FBFF;}
	.st25{clip-path:url(#SVGID_22_);fill:none;stroke:#135B7E;stroke-width:0.75;stroke-miterlimit:10;}
</style>
<title>product-laptop-300x166</title>
<desc>Created with Sketch.</desc>
<g id="iPhone-SE-_x2F__x2F_-COLATERAL" transform="translate(-9.000000, -331.000000)">
	<g id="INTRO-_x2F__x2F_-COLATERAL" transform="translate(0.000000, -2.000000)">
		<g id="product-laptop-300x166" transform="translate(10.000000, 334.000000)">
			<path id="Fill-1" class="st0" d="M42.8,0.4C36.9,0.4,32,5.2,32,11.1v141.7h235.7V11.1c0-6-4.9-10.8-10.8-10.8H42.8z"/>
			<path id="Stroke-3" class="st1" d="M256.9,0.4H42.8C36.9,0.4,32,5.2,32,11.1v141.7h235.7V11.1C267.7,5.2,262.7,0.4,256.9,0.4z"/>
			<path id="Stroke-5" class="st2" d="M150.6,6.7c1,0,1.9,0.8,1.9,1.9s-0.8,1.9-1.9,1.9s-1.9-0.8-1.9-1.9S149.5,6.7,150.6,6.7z"/>
			<path id="Fill-7" class="st0" d="M22.5,166c-13.3,0-22.2-4.6-22.2-6.5v-5.9c0-0.6,0.6-1.1,1.3-1.1h296.7c0.7,0,1.3,0.5,1.3,1.1
				v6.1c0,1.5-6.9,6.3-22.2,6.3H22.5z"/>
			<path id="Stroke-9" class="st2" d="M277.5,166H22.5c-13.3,0-22.2-4.6-22.2-6.5v-5.9c0-0.6,0.6-1.1,1.3-1.1h296.7
				c0.7,0,1.3,0.5,1.3,1.1v6.1C299.6,161.2,292.7,166,277.5,166z"/>
			<g id="Clip-14">
			</g>
			<defs>
				<filter id="Adobe_OpacityMaskFilter" filterUnits="userSpaceOnUse" x="41.3" y="17.6" width="216" height="126.7">
					<feColorMatrix  type="matrix" values="1 0 0 0 0  0 1 0 0 0  0 0 1 0 0  0 0 0 1 0"/>
				</filter>
			</defs>
			<mask maskUnits="userSpaceOnUse" x="41.3" y="17.6" width="216" height="126.7" id="mask-2_1_">
				<g class="st3">
					<polygon id="path-1_1_" class="st4" points="0,166.3 300,166.3 300,0 0,0 					"/>
				</g>
			</mask>
			<polygon id="Fill-13" class="st5" points="41.3,144.3 257.3,144.3 257.3,17.6 41.3,17.6 			"/>
			<defs>
				<filter id="Adobe_OpacityMaskFilter_1_" filterUnits="userSpaceOnUse" x="40.9" y="17.2" width="216.8" height="127.5">
					<feColorMatrix  type="matrix" values="1 0 0 0 0  0 1 0 0 0  0 0 1 0 0  0 0 0 1 0"/>
				</filter>
			</defs>
			<mask maskUnits="userSpaceOnUse" x="40.9" y="17.2" width="216.8" height="127.5" id="mask-2_2_">
				<g class="st6">
					<polygon id="path-1_2_" class="st4" points="0,166.3 300,166.3 300,0 0,0 					"/>
				</g>
			</mask>
			<polygon id="Stroke-15" class="st7" points="41.3,144.3 257.3,144.3 257.3,17.6 41.3,17.6 			"/>
			<defs>
				<filter id="Adobe_OpacityMaskFilter_2_" filterUnits="userSpaceOnUse" x="117.5" y="152.9" width="65.7" height="3.3">
					<feColorMatrix  type="matrix" values="1 0 0 0 0  0 1 0 0 0  0 0 1 0 0  0 0 0 1 0"/>
				</filter>
			</defs>
			<mask maskUnits="userSpaceOnUse" x="117.5" y="152.9" width="65.7" height="3.3" id="mask-2_3_">
				<g class="st8">
					<polygon id="path-1_3_" class="st4" points="0,166.3 300,166.3 300,0 0,0 					"/>
				</g>
			</mask>
			<g id="Group-18" class="st9">
				<g transform="translate(117.846249, 152.883278)">
					<path id="Fill-16" class="st0" d="M64.9,0.1v1.5c0,1.1-1.9,1.4-3.3,1.4H3.4C1.9,2.9,0,2.6,0,1.5V0.1"/>
					<path id="Stroke-17" class="st10" d="M64.9,0.1v1.5c0,1.1-1.9,1.4-3.3,1.4H3.4C1.9,2.9,0,2.6,0,1.5V0.1"/>
				</g>
			</g>
		</g>
	</g>
</g>
<g>
	<g class="st11">
		<g>
			<g>
				<defs>
					<path id="SVGID_1_" d="M388,184.7c-9.3,0-17.3,7.7-17.3,17.2v225.8h377.4V201.9c0-9.5-7.9-17.2-17.3-17.2H388z"/>
				</defs>
				<clipPath id="SVGID_2_">
					<use xlink:href="#SVGID_1_"  style="overflow:visible;"/>
				</clipPath>
				<g class="st12">
					<defs>
						<rect id="SVGID_3_" x="319" y="183" width="481" height="267"/>
					</defs>
					<clipPath id="SVGID_4_">
						<use xlink:href="#SVGID_3_"  style="overflow:visible;"/>
					</clipPath>
					<rect x="365.7" y="179.7" class="st13" width="387.4" height="253"/>
				</g>
			</g>
			<g>
				<path class="st14" d="M730.9,184.7H388c-9.3,0-17.3,7.7-17.3,17.2v225.8h377.4V201.9C748.2,192.4,740.2,184.7,730.9,184.7z"/>
				<ellipse class="st15" cx="560.1" cy="197.8" rx="2.8" ry="2.8"/>
			</g>
			<g>
				<defs>
					<path id="SVGID_5_" d="M355.7,449.1c-21.2,0-35.5-7.3-35.5-10.4v-9.4c0-0.9,0.9-1.7,2.1-1.7h474.3c1.1,0,2.1,0.8,2.1,1.7v9.8
						c0,2.4-11.1,10-35.5,10H355.7z"/>
				</defs>
				<clipPath id="SVGID_6_">
					<use xlink:href="#SVGID_5_"  style="overflow:visible;"/>
				</clipPath>
				<g class="st16">
					<defs>
						<rect id="SVGID_7_" x="319" y="183" width="481" height="267"/>
					</defs>
					<clipPath id="SVGID_8_">
						<use xlink:href="#SVGID_7_"  style="overflow:visible;"/>
					</clipPath>
					<rect x="315.3" y="422.6" class="st17" width="488.4" height="31.5"/>
				</g>
			</g>
			<g>
				<path class="st14" d="M763.2,449.1H355.7c-21.2,0-35.5-7.3-35.5-10.4v-9.4c0-0.9,0.9-1.7,2.1-1.7h474.3c1.1,0,2.1,0.8,2.1,1.7
					v9.8C798.7,441.6,787.6,449.1,763.2,449.1z"/>
				<line class="st18" x1="320.6" y1="437.7" x2="797.4" y2="437.7"/>
			</g>
			<g>
				<g>
					<g class="st11">
						<g>
							<defs>
								<rect id="SVGID_9_" x="382" y="207" width="355" height="230"/>
							</defs>
							<clipPath id="SVGID_10_">
								<use xlink:href="#SVGID_9_"  style="overflow:visible;"/>
							</clipPath>
							<g class="st19">
								<defs>
									<rect id="SVGID_11_" x="385.9" y="211.7" width="346.4" height="202.1"/>
								</defs>
								<clipPath id="SVGID_12_">
									<use xlink:href="#SVGID_11_"  style="overflow:visible;"/>
								</clipPath>
								<g class="st20">
									<defs>
										<rect id="SVGID_13_" x="319" y="184" width="481" height="266"/>
									</defs>
									<clipPath id="SVGID_14_">
										<use xlink:href="#SVGID_13_"  style="overflow:visible;"/>
									</clipPath>
									<rect x="380.9" y="206.7" class="st21" width="356.4" height="212.1"/>
								</g>
							</g>
							<g class="st19">
								<defs>
									<rect id="SVGID_15_" x="319" y="184" width="481" height="266"/>
								</defs>
								<clipPath id="SVGID_16_">
									<use xlink:href="#SVGID_15_"  style="overflow:visible;"/>
								</clipPath>
								<rect x="385.9" y="211.7" class="st22" width="346.4" height="202.1"/>
							</g>
							<g class="st19">
								<defs>
									<path id="SVGID_17_" d="M611.3,428.3v2.1c0,1.5-3,2-5.3,2h-93c-2.4,0-5.4-0.5-5.4-2v-2.1"/>
								</defs>
								<clipPath id="SVGID_18_">
									<use xlink:href="#SVGID_17_"  style="overflow:visible;"/>
								</clipPath>
								<g class="st23">
									<defs>
										<rect id="SVGID_19_" x="319" y="184" width="481" height="266"/>
									</defs>
									<clipPath id="SVGID_20_">
										<use xlink:href="#SVGID_19_"  style="overflow:visible;"/>
									</clipPath>
									<rect x="502.6" y="423.3" class="st24" width="113.7" height="14.1"/>
								</g>
							</g>
							<g class="st19">
								<defs>
									<rect id="SVGID_21_" x="319" y="184" width="481" height="266"/>
								</defs>
								<clipPath id="SVGID_22_">
									<use xlink:href="#SVGID_21_"  style="overflow:visible;"/>
								</clipPath>
								<path class="st25" d="M611.3,428.3v2.1c0,1.5-3,2-5.3,2h-93c-2.4,0-5.4-0.5-5.4-2v-2.1"/>
							</g>
						</g>
					</g>
				</g>
			</g>
		</g>
	</g>
</g>
</svg>
