<?xml version="1.0" encoding="utf-8"?>
<!-- Generator: Adobe Illustrator 22.0.1, SVG Export Plug-In . SVG Version: 6.00 Build 0)  -->
<svg version="1.1" id="Layer_1" xmlns="http://www.w3.org/2000/svg" xmlns:xlink="http://www.w3.org/1999/xlink" x="0px" y="0px"
	 viewBox="0 0 41 44" style="enable-background:new 0 0 41 44;" xml:space="preserve">
<style type="text/css">
	.st0{fill:#238DC1;}
</style>
<title>shop-viewer-icon</title>
<desc>Created with Sketch.</desc>
<g id="Page-1">
	<g id="PRODUCT-SECTIONS" transform="translate(-1020.000000, -610.000000)">
		<g id="SURVEY" transform="translate(830.000000, 610.000000)">
			<g id="ICON" transform="translate(1.000000, 0.000000)">
				<g id="shop-viewer-icon" transform="translate(189.200000, 0.000000)">
					<path id="Fill-1" class="st0" d="M14.2,5.7h2V3.9h-2V5.7z M24.1,5.7h2V3.9h-2V5.7z M10.2,1.8c-0.6,0-1.1,0.5-1.1,1.1v3.9
						c0,0.6,0.5,1.1,1.1,1.1s1.1-0.5,1.1-1.1V2.9C11.3,2.3,10.8,1.8,10.2,1.8z M10.2,9.6c-1.6,0-2.9-1.3-2.9-2.9V2.9
						C7.3,1.3,8.6,0,10.2,0s2.9,1.3,2.9,2.9v3.9C13.1,8.4,11.8,9.6,10.2,9.6z M20.1,1.8c-0.6,0-1.1,0.5-1.1,1.1v3.9
						c0,0.6,0.5,1.1,1.1,1.1c0.6,0,1.1-0.5,1.1-1.1V2.9C21.2,2.3,20.7,1.8,20.1,1.8z M20.1,9.6c-1.6,0-2.9-1.3-2.9-2.9V2.9
						c0-1.6,1.3-2.9,2.9-2.9C21.7,0,23,1.3,23,2.9v3.9C23,8.4,21.7,9.6,20.1,9.6z M30.1,1.8c-0.6,0-1.1,0.5-1.1,1.1v3.9
						c0,0.6,0.5,1.1,1.1,1.1s1.1-0.5,1.1-1.1V2.9C31.2,2.3,30.7,1.8,30.1,1.8z M30.1,9.6c-1.6,0-2.9-1.3-2.9-2.9V2.9
						c0-1.6,1.3-2.9,2.9-2.9C31.7,0,33,1.3,33,2.9v3.9C33,8.4,31.7,9.6,30.1,9.6z M37.6,43.7H2.9c-1.6,0-2.9-1.3-2.9-2.9v-34
						c0-1.6,1.3-2.9,2.9-2.9h3.3v1.8H2.9c-0.6,0-1.1,0.5-1.1,1.1v34c0,0.6,0.5,1.1,1.1,1.1h34.7c0.6,0,1.1-0.5,1.1-1.1v-34
						c0-0.6-0.5-1.1-1.1-1.1h-3.3V3.9h3.3c1.6,0,2.9,1.3,2.9,2.9v34C40.5,42.4,39.2,43.7,37.6,43.7z"/>
					<path id="Fill-3" class="st0" d="M32.6,16.5H8.2c-0.5,0-0.9-0.4-0.9-0.9c0-0.5,0.4-0.9,0.9-0.9h24.5c0.5,0,0.9,0.4,0.9,0.9
						C33.5,16.1,33.1,16.5,32.6,16.5"/>
					<path id="Fill-4" class="st0" d="M33.1,25.7H8.2c-0.5,0-0.9-0.4-0.9-0.9s0.4-0.9,0.9-0.9h24.9c0.5,0,0.9,0.4,0.9,0.9
						S33.6,25.7,33.1,25.7"/>
					<path id="Fill-5" class="st0" d="M33.1,34.9L33.1,34.9l-24.9,0c-0.5,0-0.9-0.4-0.9-0.9c0-0.5,0.4-0.9,0.9-0.9h0l24.9,0
						c0.5,0,0.9,0.4,0.9,0.9C34,34.5,33.6,34.9,33.1,34.9"/>
				</g>
			</g>
		</g>
	</g>
</g>
</svg>
