<?xml version="1.0" encoding="UTF-8"?>
<svg width="41px" height="44px" viewBox="0 0 41 44" version="1.1" xmlns="http://www.w3.org/2000/svg" xmlns:xlink="http://www.w3.org/1999/xlink">
    <!-- Generator: Sketch 48.2 (47327) - http://www.bohemiancoding.com/sketch -->
    <title>shop-viewer-icon</title>
    <desc>Created with Sketch.</desc>
    <defs></defs>
    <g id="Page-1" stroke="none" stroke-width="1" fill="none" fill-rule="evenodd">
        <g id="PRODUCT-SECTIONS" transform="translate(-1020.000000, -610.000000)" fill="#238DC1">
            <g id="SURVEY" transform="translate(830.000000, 610.000000)">
                <g id="ICON" transform="translate(1.000000, 0.000000)">
                    <g id="shop-viewer-icon" transform="translate(189.200000, 0.000000)">
                        <path d="M14.1678,5.72197921 L16.1568,5.72197921 L16.1568,3.92572141 L14.1678,3.92572141 L14.1678,5.72197921 Z M24.1182,5.72197921 L26.1072,5.72197921 L26.1072,3.92572141 L24.1182,3.92572141 L24.1182,5.72197921 Z M10.1862,1.79715593 C9.585,1.79715593 9.0972,2.27316424 9.0972,2.86054054 L9.0972,6.78716008 C9.0972,7.37453638 9.585,7.85234096 10.1862,7.85234096 C10.7874,7.85234096 11.277,7.37453638 11.277,6.78716008 L11.277,2.86054054 C11.277,2.27316424 10.7874,1.79715593 10.1862,1.79715593 Z M10.1862,9.64859875 C8.5914,9.64859875 7.2972,8.36427443 7.2972,6.78716008 L7.2972,2.86054054 C7.2972,1.2834262 8.5914,0.000898128898 10.1862,0.000898128898 C11.781,0.000898128898 13.077,1.2834262 13.077,2.86054054 L13.077,6.78716008 C13.077,8.36427443 11.781,9.64859875 10.1862,9.64859875 Z M20.1384,1.79715593 C19.5372,1.79715593 19.0476,2.27316424 19.0476,2.86054054 L19.0476,6.78716008 C19.0476,7.37453638 19.5372,7.85234096 20.1384,7.85234096 C20.7378,7.85234096 21.2274,7.37453638 21.2274,6.78716008 L21.2274,2.86054054 C21.2274,2.27316424 20.7378,1.79715593 20.1384,1.79715593 Z M20.1384,9.64859875 C18.5436,9.64859875 17.2476,8.36427443 17.2476,6.78716008 L17.2476,2.86054054 C17.2476,1.2834262 18.5436,0.000898128898 20.1384,0.000898128898 C21.7314,0.000898128898 23.0274,1.2834262 23.0274,2.86054054 L23.0274,6.78716008 C23.0274,8.36427443 21.7314,9.64859875 20.1384,9.64859875 Z M30.087,1.79715593 C29.4858,1.79715593 28.9962,2.27316424 28.9962,2.86054054 L28.9962,6.78716008 C28.9962,7.37453638 29.4858,7.85234096 30.087,7.85234096 C30.6882,7.85234096 31.176,7.37453638 31.176,6.78716008 L31.176,2.86054054 C31.176,2.27316424 30.6882,1.79715593 30.087,1.79715593 Z M30.087,9.64859875 C28.4922,9.64859875 27.1962,8.36427443 27.1962,6.78716008 L27.1962,2.86054054 C27.1962,1.2834262 28.4922,0.000898128898 30.087,0.000898128898 C31.6818,0.000898128898 32.976,1.2834262 32.976,2.86054054 L32.976,6.78716008 C32.976,8.36427443 31.6818,9.64859875 30.087,9.64859875 Z M37.629,43.6715177 L2.889,43.6715177 C1.296,43.6715177 0,42.3871933 0,40.810079 L0,6.78716008 C0,5.21004574 1.296,3.92572141 2.889,3.92572141 L6.2064,3.92572141 L6.2064,5.72197921 L2.889,5.72197921 C2.2878,5.72197921 1.8,6.19978378 1.8,6.78716008 L1.8,40.810079 C1.8,41.3974553 2.2878,41.8752599 2.889,41.8752599 L37.629,41.8752599 C38.2302,41.8752599 38.7198,41.3974553 38.7198,40.810079 L38.7198,6.78716008 C38.7198,6.19978378 38.2302,5.72197921 37.629,5.72197921 L34.3116,5.72197921 L34.3116,3.92572141 L37.629,3.92572141 C39.2238,3.92572141 40.5198,5.21004574 40.5198,6.78716008 L40.5198,40.810079 C40.5198,42.3871933 39.2238,43.6715177 37.629,43.6715177 Z" id="Fill-1"></path>
                        <path d="M32.60736,16.5171293 L8.15616,16.5171293 C7.65936,16.5171293 7.25616,16.1147676 7.25616,15.6190004 C7.25616,15.1232333 7.65936,14.7208715 8.15616,14.7208715 L32.60736,14.7208715 C33.10416,14.7208715 33.50736,15.1232333 33.50736,15.6190004 C33.50736,16.1147676 33.10416,16.5171293 32.60736,16.5171293" id="Fill-3"></path>
                        <path d="M25.35642,25.7229505 L8.15562,25.7229505 C7.65882,25.7229505 7.25562,25.3205888 7.25562,24.8248216 C7.25562,24.3290545 7.65882,23.9266927 8.15562,23.9266927 L25.35642,23.9266927 C25.85322,23.9266927 26.25642,24.3290545 26.25642,24.8248216 C26.25642,25.3205888 25.85322,25.7229505 25.35642,25.7229505" id="Fill-4"></path>
                        <path d="M19.6893,34.9409863 L19.6875,34.9409863 L8.1549,34.9284125 C7.6581,34.9284125 7.2567,34.5260507 7.2567,34.0284873 C7.2567,33.5345164 7.6581,33.1321547 8.1567,33.1321547 L8.1585,33.1321547 L19.6911,33.1447285 C20.1861,33.1447285 20.5893,33.5488865 20.5893,34.0446536 C20.5893,34.5386245 20.1861,34.9409863 19.6893,34.9409863" id="Fill-5"></path>
                        <path d="M33.10308,31.3258378 L29.02248,35.3494553 C28.74708,35.6242827 28.36368,35.7913347 27.94248,35.7913347 C27.51768,35.7913347 27.13788,35.6242827 26.85888,35.3494553 L24.81948,33.3376466 C24.54408,33.0646154 24.37128,32.6874012 24.37128,32.2706694 C24.37128,31.4372058 25.05708,30.7636091 25.90128,30.7636091 C26.32428,30.7636091 26.70588,30.9306611 26.98488,31.2054886 L27.94248,32.1485239 L30.93948,29.1936798 C31.21668,28.9188524 31.59828,28.7500042 32.01948,28.7500042 C32.86548,28.7500042 33.54948,29.4253971 33.54948,30.2588607 C33.54948,30.6773888 33.37848,31.0546029 33.10308,31.3258378" id="Fill-6"></path>
                    </g>
                </g>
            </g>
        </g>
    </g>
</svg>