<?xml version="1.0" encoding="UTF-8"?>
<svg width="24px" height="24px" viewBox="0 0 24 24" version="1.1" xmlns="http://www.w3.org/2000/svg" xmlns:xlink="http://www.w3.org/1999/xlink">
    <!-- Generator: Sketch 48.2 (47327) - http://www.bohemiancoding.com/sketch -->
    <title>tick-icon</title>
    <desc>Created with Sketch.</desc>
    <defs>
        <polygon id="path-1" points="8.7611231e-06 0.00367612487 23.9961503 0.00367612487 23.9961503 23.978022 8.7611231e-06 23.978022"></polygon>
    </defs>
    <g id="iPhone-SE-//-COLATERAL" stroke="none" stroke-width="1" fill="none" fill-rule="evenodd" transform="translate(-256.000000, -1750.000000)">
        <g id="KEY-BENEFITS-//-COLATERAL" transform="translate(0.000000, 1018.000000)">
            <g id="Gain-insight" transform="translate(40.000000, 732.000000)">
                <g id="tick-icon" transform="translate(216.000000, 0.000000)">
                    <g id="Group-3" transform="translate(0.000000, 0.018242)">
                        <mask id="mask-2" fill="white">
                            <use xlink:href="#path-1"></use>
                        </mask>
                        <g id="Clip-2"></g>
                        <path d="M2.00052209,11.9875253 C2.00052209,14.3006242 2.00100605,16.6137011 1.99986214,18.9268 C1.99973016,19.2000088 2.02570999,19.4692176 2.09449826,19.733767 C2.43940752,21.0598989 3.63311604,21.9824484 5.00483373,21.9824923 C9.65449826,21.9826462 14.3041628,21.983789 18.9538273,21.9790637 C19.1988649,21.978822 19.4486101,21.9497011 19.6880601,21.8971736 C21.00982,21.6073055 21.9976257,20.3751077 21.9980876,19.0211736 C21.9996715,14.3373055 21.9994295,9.65343736 21.9975597,4.96956923 C21.9973837,4.51022857 21.8993599,4.06684396 21.681468,3.66218462 C21.0987146,2.57996484 20.1888704,2.00712967 18.9544873,2.00537143 C14.3185716,1.99866813 9.68263391,2.00207473 5.04671824,2.00477802 C4.84998863,2.00488791 4.65048726,2.02031648 4.45701338,2.05490989 C3.71846893,2.18704176 3.11510321,2.55433846 2.64872007,3.13956923 C2.20279523,3.69915165 1.99836627,4.3417011 1.99933419,5.05651429 C2.00250192,7.36684396 2.00052209,9.6771956 2.00052209,11.9875253 M12.0087201,0.00433846154 C14.3184836,0.00433846154 16.6282251,0.00598681319 18.9379666,0.00367912088 C20.1792132,0.00242637363 21.2787696,0.394030769 22.2231069,1.19600879 C23.1531894,1.98587692 23.7272975,2.98759121 23.9268869,4.19361319 C23.9710152,4.46031648 23.9919795,4.73392088 23.9922214,5.00438242 C23.9960491,9.68273407 23.9986229,14.3611297 23.9924414,19.0394593 C23.9908576,20.2284044 23.5819336,21.2788879 22.8194332,22.1890198 C22.1766247,22.9562945 21.3709199,23.4830857 20.4122838,23.7729758 C19.9737723,23.9055912 19.5244378,23.9767121 19.065468,23.9767341 C14.3608081,23.9771516 9.65617012,23.9803824 4.95153217,23.9746901 C3.7271802,23.9731736 2.65131586,23.5469758 1.72820678,22.7485802 C0.915550504,22.0457231 0.385064711,21.1654374 0.132063795,20.1203165 C0.0379776352,19.7315692 -3.51970669e-05,19.3366022 8.79926673e-06,18.9369758 C0.00053675527,14.3080747 -0.000409165903,9.67915165 0.000800733272,5.05025055 C0.00117470211,3.58629451 0.540877727,2.34939341 1.60363116,1.34706374 C2.32662291,0.665173626 3.18521137,0.236074725 4.16962933,0.0791076923 C4.46662658,0.031767033 4.77053126,0.00822857143 5.07135619,0.00748131868 C7.38380348,0.00174505495 9.69625078,0.00433846154 12.0087201,0.00433846154" id="Fill-1" fill="#7ED321" mask="url(#mask-2)"></path>
                    </g>
                    <path d="M10.9058354,13.6004286 C11.0991333,13.313989 11.2877896,13.0345385 11.4763138,12.755022 C12.9153239,10.6214396 14.3554559,8.48864835 15.7917602,6.35326374 C15.9691094,6.08961538 16.2302497,6.02902198 16.5120022,6.08295604 C16.5582863,6.09179121 16.6037346,6.11957143 16.6431553,6.14757143 C16.9474779,6.36379121 17.2496887,6.583 17.5538574,6.79941758 C17.6251094,6.85012088 17.7047208,6.88930769 17.774873,6.94135165 C18.0256081,7.12737363 18.0683945,7.36504396 17.8935311,7.62194505 C16.8716722,9.12359341 15.8482955,10.6242088 14.8254687,12.1251978 C14.0591626,13.2497473 13.2929225,14.3743187 12.5266383,15.4988681 C12.3196136,15.8026703 12.1138207,16.1073077 11.9049921,16.4099011 C11.7417657,16.6464066 11.5185283,16.7878352 11.2291204,16.813989 C11.0588986,16.8293516 10.9042735,16.7716813 10.7554779,16.6975934 C10.5536007,16.5970659 10.36996,16.4759231 10.2077236,16.3125385 C9.12534775,15.2224286 8.03646049,14.1387582 6.94975105,13.052978 C6.68975472,12.7931978 6.69144858,12.3173297 6.95344675,12.0552637 C7.22741192,11.7812418 7.50775655,11.5132418 7.77391237,11.2318571 C8.00674097,10.9857033 8.3723725,11.0484066 8.56787021,11.2838791 C8.71637984,11.4627582 8.89168323,11.6197253 9.05783538,11.7836593 C9.64666031,12.3645385 10.2366511,12.9442308 10.826268,13.5242967 C10.8496741,13.5473297 10.8737181,13.5697253 10.9058354,13.6004286" id="Fill-4" fill="#7ED321"></path>
                </g>
            </g>
        </g>
    </g>
</svg>